;TYPE=PLATED
;Layer: PTH_Through
;EasyEDA Pro Client v3.2.116, 2026-06-17 16:20:27
;Gerber Generator version 0.3
M48
METRIC,LZ,0000.00000
;Hole size 1 = 0.30500 METRIC
T01C0.30500
;Hole size 2 = 0.71120 METRIC
T02C0.71120
;Hole size 3 = 1.00000 METRIC
T03C1.00000
;Hole size 4 = 1.10002 METRIC
T04C1.10002
;Hole size 5 = 1.20000 METRIC
T05C1.20000
;Hole size 6 = 1.30002 METRIC
T06C1.30002
%
G05
G90
T01
X2.26009Y-7.874
X23.04898Y-40.64
X29.52598Y-57.785
X28.74899Y-60.96
X36.576Y-59.13501
T02
X23.241Y-27.305
X23.241Y-24.765
X23.241Y-22.225
X23.241Y-19.685
T03
X72.12599Y-26.924
X64.52601Y-26.924
X35.94103Y-3.30205
X35.94103Y-5.84205
X35.94103Y-8.38205
X35.94103Y-10.92205
X35.94103Y-13.46203
X35.94103Y-16.00203
X35.94103Y-18.54203
X35.94103Y-21.08203
X35.94103Y-23.62203
X35.94103Y-26.162
X35.94103Y-28.702
X35.94103Y-31.242
X35.94103Y-33.782
X35.94103Y-36.322
X35.94103Y-38.86197
X35.94103Y-41.40197
X35.94103Y-43.94197
X35.94103Y-46.48197
X35.94103Y-49.02197
X35.94103Y-51.56195
X51.181Y-51.56195
X51.181Y-49.02197
X51.181Y-46.48197
X51.181Y-43.94197
X51.181Y-41.40197
X51.181Y-38.86197
X51.181Y-36.322
X51.181Y-33.782
X51.181Y-31.242
X51.181Y-28.702
X51.181Y-26.162
X51.181Y-23.62203
X51.181Y-21.08203
X51.181Y-18.54203
X51.181Y-16.00203
X51.181Y-13.46203
X51.181Y-10.92205
X51.181Y-8.38205
X51.181Y-5.84205
X51.181Y-3.30205
T04
X17.526Y-68.326
X14.986Y-68.326
X12.446Y-68.326
X9.906Y-68.326
T05
X60.78118Y-53.12989G85X60.78118Y-50.62987
X66.98082Y-50.63012G85X66.98082Y-53.13015
X62.53091Y-47.17986G85X65.03093Y-47.17986
T06
X39.624Y-65.151
X40.894Y-70.231
X42.164Y-65.151
X43.434Y-70.231
X44.704Y-65.151
X45.974Y-70.231
X47.244Y-65.151
X48.514Y-70.231
X49.784Y-65.151
X51.054Y-70.231
X52.324Y-65.151
X53.594Y-70.231
X54.864Y-65.151
X56.134Y-70.231
X57.404Y-65.151
M30