G04 Layer: TopSolderMaskLayer*
G04 EasyEDA Pro v3.2.116, 2026-06-17 16:20:27*
G04 Gerber Generator version 0.3*
G04 Scale: 100 percent, Rotated: No, Reflected: No*
G04 Dimensions in millimeters*
G04 Leading zeros omitted, absolute positions, 4 integers and 5 decimals*
G04 Generated by one-click*
%FSLAX45Y45*%
%MOMM*%
%AMRoundRect*1,1,$1,$2,$3*1,1,$1,$4,$5*1,1,$1,0-$2,0-$3*1,1,$1,0-$4,0-$5*20,1,$1,$2,$3,$4,$5,0*20,1,$1,$4,$5,0-$2,0-$3,0*20,1,$1,0-$2,0-$3,0-$4,0-$5,0*20,1,$1,0-$4,0-$5,$2,$3,0*4,1,4,$2,$3,$4,$5,0-$2,0-$3,0-$4,0-$5,$2,$3,0*%
%ADD10C,1.9016*%
%ADD11RoundRect,0.1016X-0.4X0.45X0.4X0.45*%
%ADD12RoundRect,0.1016X-0.55X-1.4X-0.55X1.4*%
%ADD13O,2.1016X4.70159*%
%ADD14O,4.70159X2.1016*%
%ADD15RoundRect,0.1016X-0.44996X-0.5X-0.44996X0.5*%
%ADD16RoundRect,0.1016X-0.5X0.32501X0.5X0.32501*%
%ADD17RoundRect,0.1016X-0.40324X0.432X0.40324X0.432*%
%ADD18RoundRect,0.1094X-0.615X0.93X0.615X0.93*%
%ADD19RoundRect,0.1016X-0.615X0.93X0.615X0.93*%
%ADD20C,1.7016*%
%ADD21RoundRect,0.1016X-1.25X0.7X1.25X0.7*%
%ADD22RoundRect,0.1016X-0.7X-0.85X-0.7X0.85*%
%ADD23RoundRect,0.1016X-0.6477X-0.6477X-0.6477X0.6477*%
%ADD24C,1.397*%
%ADD25C,2.1016*%
%ADD26RoundRect,0.1016X-1.0X0.8X1.0X0.8*%
%ADD27RoundRect,0.1016X-1.6X0.57501X1.6X0.57501*%
%ADD28RoundRect,0.1016X-1.25X0.55X1.25X0.55*%
%ADD29RoundRect,0.1016X-1.17X1.8X1.17X1.8*%
%ADD30RoundRect,0.1016X-0.7X-0.6X-0.7X0.6*%
%ADD31RoundRect,0.1016X-0.6X0.7X0.6X0.7*%
%ADD32RoundRect,0.1016X-0.85X0.85X0.85X0.85*%
%ADD33C,1.8016*%
G75*


G04 Pad Start*
G54D10*
G01X7212597Y-2692400D03*
G01X6452603Y-2692400D03*
G54D11*
G01X2444902Y-4064000D03*
G01X2304898Y-4064000D03*
G01X3689502Y-6134100D03*
G01X3549498Y-6134100D03*
G54D12*
G01X2324103Y-3664410D03*
G01X2324103Y-3244395D03*
G54D11*
G01X2952598Y-5778500D03*
G01X3092602Y-5778500D03*
G54D13*
G01X6078118Y-5187988D03*
G01X6698082Y-5188013D03*
G54D14*
G01X6378092Y-4717986D03*
G54D15*
G01X5991647Y-3941276D03*
G01X5821644Y-3941276D03*
G01X5991647Y-4236419D03*
G01X5821644Y-4236419D03*
G01X5991647Y-3735089D03*
G01X5821644Y-3735089D03*
G01X5991647Y-3528902D03*
G01X5821644Y-3528902D03*
G54D16*
G01X5853100Y-2533396D03*
G01X5853100Y-2343404D03*
G01X5653100Y-2438400D03*
G54D17*
G01X6965574Y-4236419D03*
G01X7116247Y-4236419D03*
G01X6965574Y-3941276D03*
G01X7116247Y-3941276D03*
G01X6965574Y-3735089D03*
G01X7116247Y-3735089D03*
G01X6965574Y-3528902D03*
G01X7116247Y-3528902D03*
G01X5703164Y-2832100D03*
G01X5853836Y-2832100D03*
G54D19*
G01X6957009Y-901700D03*
G01X7393991Y-901700D03*
G01X6957009Y-482600D03*
G01X7393991Y-482600D03*
G01X226009Y-342900D03*
G01X662991Y-342900D03*
G01X6969709Y-1333500D03*
G01X7406691Y-1333500D03*
G01X6957009Y-1739900D03*
G01X7393991Y-1739900D03*
G01X226009Y-787400D03*
G01X662991Y-787400D03*
G54D20*
G01X3594103Y-330205D03*
G01X3594103Y-584205D03*
G01X3594103Y-838205D03*
G01X3594103Y-1092205D03*
G01X3594103Y-1346205D03*
G01X3594103Y-1600205D03*
G01X3594103Y-1854205D03*
G01X3594103Y-2108205D03*
G01X3594103Y-2362205D03*
G01X3594103Y-2616205D03*
G01X3594103Y-2870205D03*
G01X3594103Y-3124205D03*
G01X3594103Y-3378205D03*
G01X3594103Y-3632205D03*
G01X3594103Y-3886205D03*
G01X3594103Y-4140205D03*
G01X3594103Y-4394205D03*
G01X3594103Y-4648205D03*
G01X3594103Y-4902205D03*
G01X3594103Y-5156205D03*
G01X5118103Y-5156205D03*
G01X5118103Y-4902205D03*
G01X5118103Y-4648205D03*
G01X5118103Y-4394205D03*
G01X5118103Y-4140205D03*
G01X5118103Y-3886205D03*
G01X5118103Y-3632205D03*
G01X5118103Y-3378205D03*
G01X5118103Y-3124205D03*
G01X5118103Y-2870205D03*
G01X5118103Y-2616205D03*
G01X5118103Y-2362205D03*
G01X5118103Y-2108205D03*
G01X5118103Y-1854205D03*
G01X5118103Y-1600205D03*
G01X5118103Y-1346205D03*
G01X5118103Y-1092205D03*
G01X5118103Y-838205D03*
G01X5118103Y-584205D03*
G01X5118103Y-330205D03*
G54D21*
G01X1745666Y-2219439D03*
G01X1745640Y-2419439D03*
G01X1745666Y-2619438D03*
G01X1745590Y-2819438D03*
G01X1745666Y-3019438D03*
G01X1745742Y-3219437D03*
G01X1745615Y-3419437D03*
G01X1745463Y-3619436D03*
G54D22*
G01X1490269Y-3749535D03*
G01X1290269Y-3749459D03*
G01X1090346Y-3749459D03*
G01X890270Y-3749459D03*
G01X690397Y-3749408D03*
G01X490601Y-3749561D03*
G54D21*
G01X235534Y-3619436D03*
G01X235458Y-3419437D03*
G01X235458Y-3219437D03*
G01X235458Y-3019438D03*
G01X235458Y-2819438D03*
G01X235458Y-2619438D03*
G01X235458Y-2419439D03*
G01X235458Y-2219439D03*
G54D23*
G01X2324100Y-2730500D03*
G54D24*
G01X2324100Y-2476500D03*
G01X2324100Y-2222500D03*
G01X2324100Y-1968500D03*
G54D25*
G01X3962400Y-6515100D03*
G01X4089400Y-7023100D03*
G01X4216400Y-6515100D03*
G01X4343400Y-7023100D03*
G01X4470400Y-6515100D03*
G01X4597400Y-7023100D03*
G01X4724400Y-6515100D03*
G01X4851400Y-7023100D03*
G01X4978400Y-6515100D03*
G01X5105400Y-7023100D03*
G01X5232400Y-6515100D03*
G01X5359400Y-7023100D03*
G01X5486400Y-6515100D03*
G01X5613400Y-7023100D03*
G54D26*
G01X5740400Y-6515100D03*
G54D27*
G01X6217526Y-6817360D03*
G01X6217526Y-6647180D03*
G01X6217526Y-6306820D03*
G01X6217526Y-6477000D03*
G01X6217526Y-6136640D03*
G36*
G01X6807672Y-6908749D02*
G01X6807672Y-6108700D01*
G02X6812674Y-6103699I5001J0D01*
G01X7468072Y-6103699D01*
G01X7468072Y-5930900D01*
G02X7473074Y-5925899I5001J0D01*
G01X7625474Y-5925899D01*
G02X7630475Y-5930900I0J-5001D01*
G01X7630475Y-7023100D01*
G02X7625474Y-7028101I-5001J0D01*
G01X7473074Y-7028101D01*
G02X7468072Y-7023100I0J5001D01*
G01X7468072Y-6913750D01*
G01X6812674Y-6913750D01*
G02X6807672Y-6908749I0J5001D01*
G37*
G54D28*
G01X3624395Y-6910197D03*
G01X3624395Y-6680200D03*
G01X3624395Y-6450203D03*
G54D29*
G01X3030403Y-6680200D03*
G54D30*
G01X3657600Y-5643499D03*
G01X3657600Y-5913501D03*
G54D31*
G01X3144901Y-6096000D03*
G01X2874899Y-6096000D03*
G54D32*
G01X1752600Y-6832600D03*
G54D33*
G01X1498600Y-6832600D03*
G01X1244600Y-6832600D03*
G01X990600Y-6832600D03*
G04 Pad End*

M02*

