G04 Layer: TopLayer*
G04 EasyEDA Pro v3.2.116, 2026-06-17 16:20:27*
G04 Gerber Generator version 0.3*
G04 Scale: 100 percent, Rotated: No, Reflected: No*
G04 Dimensions in millimeters*
G04 Leading zeros omitted, absolute positions, 4 integers and 5 decimals*
G04 Generated by one-click*
%FSLAX45Y45*%
%MOMM*%
%AMPolygonMacro1*4,1,8,2.54,3.683,2.54,5.461,4.064,5.461,4.064,-5.461,2.54,-5.461,2.54,-4.31749,-4.064,-4.31749,-4.064,3.683,2.54,3.683,0*%
%ADD10C,0.2032*%
%ADD11C,0.254*%
%ADD12C,1.8*%
%ADD13R,0.8X0.9*%
%ADD14R,1.1X2.79999*%
%ADD15O,2.0X4.59999*%
%ADD16O,4.59999X2.0*%
%ADD17R,0.9074X1.0*%
%ADD18R,0.89992X1.0*%
%ADD19R,1.0X0.65001*%
%ADD20R,0.80648X0.86401*%
%ADD21R,1.23X1.85999*%
%ADD22C,1.6*%
%ADD23R,2.49999X1.4*%
%ADD24R,1.4X1.7*%
%ADD25R,1.2954X1.2954*%
%ADD26C,1.2954*%
%ADD27C,2.0*%
%ADD28R,2.0X1.6*%
%ADD29R,3.19999X1.15001*%
%ADD30PolygonMacro1*%
%ADD31R,2.49999X1.1*%
%ADD32R,2.34X3.59999*%
%ADD33R,1.4X1.2*%
%ADD34R,1.2X1.4*%
%ADD35R,1.7X1.7*%
%ADD36C,1.7*%
%ADD37C,0.61*%
G75*


G04 Copper Start*
G36*
G01X7223477Y-7490714D02*
G01X6576060Y-7490714D01*
G01X6576060Y-6108700D01*
G01X6776860Y-6108700D01*
G01X6776860Y-6908749D01*
G01X6778613Y-6919816D01*
G01X6783700Y-6929800D01*
G01X6791623Y-6937723D01*
G01X6801607Y-6942810D01*
G01X6812674Y-6944563D01*
G01X7437260Y-6944563D01*
G01X7437260Y-6944563D01*
G01X7437260Y-7023100D01*
G01X7439013Y-7034167D01*
G01X7444100Y-7044151D01*
G01X7452023Y-7052074D01*
G01X7462007Y-7057161D01*
G01X7473074Y-7058914D01*
G01X7625474Y-7058914D01*
G01X7636541Y-7057161D01*
G01X7646525Y-7052074D01*
G01X7654448Y-7044151D01*
G01X7659535Y-7034167D01*
G01X7661288Y-7023100D01*
G01X7661288Y-5930900D01*
G01X7659535Y-5919833D01*
G01X7654448Y-5909849D01*
G01X7646525Y-5901926D01*
G01X7636541Y-5896839D01*
G01X7625474Y-5895086D01*
G01X7473074Y-5895086D01*
G01X7462007Y-5896839D01*
G01X7452023Y-5901926D01*
G01X7444100Y-5909849D01*
G01X7439013Y-5919833D01*
G01X7437260Y-5930900D01*
G01X7437260Y-6072886D01*
G01X6812674Y-6072886D01*
G01X6801607Y-6074639D01*
G01X6791623Y-6079726D01*
G01X6783700Y-6087649D01*
G01X6778613Y-6097633D01*
G01X6776860Y-6108700D01*
G01X6576060Y-6108700D01*
G01X6576060Y-5750560D01*
G01X7691041Y-5750560D01*
G01X7691041Y-7023150D01*
G01X7223477Y-7490714D01*
G37*
G54D10*
G01X7223477Y-7490714D02*
G01X6576060Y-7490714D01*
G01X6576060Y-5750560D01*
G01X7691041Y-5750560D01*
G01X7691041Y-7023150D01*
G01X7223477Y-7490714D01*
G01X7437260Y-6944563D02*
G01X7437260Y-7023100D01*
G03X7473074Y-7058914I35814J0D01*
G01X7625474Y-7058914D01*
G03X7661288Y-7023100I0J35814D01*
G01X7661288Y-5930900D01*
G03X7625474Y-5895086I-35814J0D01*
G01X7473074Y-5895086D01*
G03X7437260Y-5930900I0J-35814D01*
G01X7437260Y-6072886D01*
G01X6812674Y-6072886D01*
G03X6776860Y-6108700I0J-35814D01*
G01X6776860Y-6908749D01*
G03X6812674Y-6944563I35814J0D01*
G01X7437260Y-6944563D01*
G54D11*
G01X7219074Y-6508750D02*
G01X6787020Y-6508750D01*
G01X7219074Y-6508750D02*
G01X7651128Y-6508750D01*
G01X7219074Y-6508750D02*
G01X7219074Y-5905246D01*
G01X7219074Y-6508750D02*
G01X7219074Y-7048754D01*
G04 Copper End*

G04 Pad Start*
G54D12*
G01X7212597Y-2692400D03*
G01X6452603Y-2692400D03*
G54D13*
G01X2444902Y-4064000D03*
G01X2304898Y-4064000D03*
G01X3689502Y-6134100D03*
G01X3549498Y-6134100D03*
G54D14*
G01X2324103Y-3664410D03*
G01X2324103Y-3244395D03*
G54D13*
G01X2952598Y-5778500D03*
G01X3092602Y-5778500D03*
G54D15*
G01X6078118Y-5187988D03*
G01X6698082Y-5188013D03*
G54D16*
G01X6378092Y-4717986D03*
G54D18*
G01X5991647Y-3941276D03*
G01X5821644Y-3941276D03*
G01X5991647Y-4236419D03*
G01X5821644Y-4236419D03*
G01X5991647Y-3735089D03*
G01X5821644Y-3735089D03*
G01X5991647Y-3528902D03*
G01X5821644Y-3528902D03*
G54D19*
G01X5853100Y-2533396D03*
G01X5853100Y-2343404D03*
G01X5653100Y-2438400D03*
G54D20*
G01X6965574Y-4236419D03*
G01X7116247Y-4236419D03*
G01X6965574Y-3941276D03*
G01X7116247Y-3941276D03*
G01X6965574Y-3735089D03*
G01X7116247Y-3735089D03*
G01X6965574Y-3528902D03*
G01X7116247Y-3528902D03*
G01X5703164Y-2832100D03*
G01X5853836Y-2832100D03*
G54D21*
G01X6957009Y-901700D03*
G01X7393991Y-901700D03*
G01X6957009Y-482600D03*
G01X7393991Y-482600D03*
G01X226009Y-342900D03*
G01X662991Y-342900D03*
G01X6969709Y-1333500D03*
G01X7406691Y-1333500D03*
G01X6957009Y-1739900D03*
G01X7393991Y-1739900D03*
G01X226009Y-787400D03*
G01X662991Y-787400D03*
G54D22*
G01X3594103Y-330205D03*
G01X3594103Y-584205D03*
G01X3594103Y-838205D03*
G01X3594103Y-1092205D03*
G01X3594103Y-1346205D03*
G01X3594103Y-1600205D03*
G01X3594103Y-1854205D03*
G01X3594103Y-2108205D03*
G01X3594103Y-2362205D03*
G01X3594103Y-2616205D03*
G01X3594103Y-2870205D03*
G01X3594103Y-3124205D03*
G01X3594103Y-3378205D03*
G01X3594103Y-3632205D03*
G01X3594103Y-3886205D03*
G01X3594103Y-4140205D03*
G01X3594103Y-4394205D03*
G01X3594103Y-4648205D03*
G01X3594103Y-4902205D03*
G01X3594103Y-5156205D03*
G01X5118103Y-5156205D03*
G01X5118103Y-4902205D03*
G01X5118103Y-4648205D03*
G01X5118103Y-4394205D03*
G01X5118103Y-4140205D03*
G01X5118103Y-3886205D03*
G01X5118103Y-3632205D03*
G01X5118103Y-3378205D03*
G01X5118103Y-3124205D03*
G01X5118103Y-2870205D03*
G01X5118103Y-2616205D03*
G01X5118103Y-2362205D03*
G01X5118103Y-2108205D03*
G01X5118103Y-1854205D03*
G01X5118103Y-1600205D03*
G01X5118103Y-1346205D03*
G01X5118103Y-1092205D03*
G01X5118103Y-838205D03*
G01X5118103Y-584205D03*
G01X5118103Y-330205D03*
G54D23*
G01X1745666Y-2219439D03*
G01X1745640Y-2419439D03*
G01X1745666Y-2619438D03*
G01X1745590Y-2819438D03*
G01X1745666Y-3019438D03*
G01X1745742Y-3219437D03*
G01X1745615Y-3419437D03*
G01X1745463Y-3619436D03*
G54D24*
G01X1490269Y-3749535D03*
G01X1290269Y-3749459D03*
G01X1090346Y-3749459D03*
G01X890270Y-3749459D03*
G01X690397Y-3749408D03*
G01X490601Y-3749561D03*
G54D23*
G01X235534Y-3619436D03*
G01X235458Y-3419437D03*
G01X235458Y-3219437D03*
G01X235458Y-3019438D03*
G01X235458Y-2819438D03*
G01X235458Y-2619438D03*
G01X235458Y-2419439D03*
G01X235458Y-2219439D03*
G54D25*
G01X2324100Y-2730500D03*
G54D26*
G01X2324100Y-2476500D03*
G01X2324100Y-2222500D03*
G01X2324100Y-1968500D03*
G54D27*
G01X3962400Y-6515100D03*
G01X4089400Y-7023100D03*
G01X4216400Y-6515100D03*
G01X4343400Y-7023100D03*
G01X4470400Y-6515100D03*
G01X4597400Y-7023100D03*
G01X4724400Y-6515100D03*
G01X4851400Y-7023100D03*
G01X4978400Y-6515100D03*
G01X5105400Y-7023100D03*
G01X5232400Y-6515100D03*
G01X5359400Y-7023100D03*
G01X5486400Y-6515100D03*
G01X5613400Y-7023100D03*
G54D28*
G01X5740400Y-6515100D03*
G54D29*
G01X6217526Y-6817360D03*
G01X6217526Y-6647180D03*
G01X6217526Y-6306820D03*
G01X6217526Y-6477000D03*
G01X6217526Y-6136640D03*
G54D30*
G01X7219074Y-6477000D03*
G54D31*
G01X3624395Y-6910197D03*
G01X3624395Y-6680200D03*
G01X3624395Y-6450203D03*
G54D32*
G01X3030403Y-6680200D03*
G54D33*
G01X3657600Y-5643499D03*
G01X3657600Y-5913501D03*
G54D34*
G01X3144901Y-6096000D03*
G01X2874899Y-6096000D03*
G54D35*
G01X1752600Y-6832600D03*
G54D36*
G01X1498600Y-6832600D03*
G01X1244600Y-6832600D03*
G01X990600Y-6832600D03*
G04 Pad End*

G04 Via Start*
G54D37*
G01X226009Y-787400D03*
G01X2304898Y-4064000D03*
G01X2952598Y-5778500D03*
G01X2874899Y-6096000D03*
G01X3657600Y-5913501D03*
G04 Via End*

G04 Track Start*
G54D11*
G01X5991647Y-4236419D02*
G01X6965574Y-4236419D01*
G01X5991647Y-3941276D02*
G01X6965574Y-3941276D01*
G01X5991647Y-3735089D02*
G01X6965574Y-3735089D01*
G01X5991647Y-3528902D02*
G01X6965574Y-3528902D01*
G01X5853836Y-2832100D02*
G01X5853836Y-2534133D01*
G01X5853100Y-2533396D01*
G01X5853100Y-2343404D02*
G01X6103607Y-2343404D01*
G01X6452603Y-2692400D01*
G01X7393991Y-901700D02*
G01X7393991Y-1320800D01*
G01X7406691Y-1333500D01*
G01X7406691Y-1727200D01*
G01X7393991Y-1739900D01*
G01X7393991Y-482600D02*
G01X7393991Y-901700D01*
G01X5653100Y-2438400D02*
G01X5600700Y-2386000D01*
G01X5600700Y-2222500D01*
G01X5618661Y-2204539D01*
G01X6344739Y-2204539D01*
G01X7116247Y-2976047D02*
G01X7116247Y-3528902D01*
G01X6344739Y-2204539D02*
G01X7116247Y-2976047D01*
G01X7116247Y-3528902D02*
G01X7116247Y-3735089D01*
G01X7116247Y-3941276D02*
G01X7124700Y-3949729D01*
G01X7124700Y-4227966D02*
G01X7116247Y-4236419D01*
G01X7124700Y-3949729D02*
G01X7124700Y-4227966D01*
G01X6957009Y-482600D02*
G01X6731000Y-482600D01*
G01X6957009Y-901700D02*
G01X6642100Y-901700D01*
G01X6957009Y-1739900D02*
G01X6299200Y-1739900D01*
G01X3624395Y-6680200D02*
G01X3467100Y-6680200D01*
G01X3378200Y-6591300D01*
G01X3378200Y-5537208D01*
G01X3581403Y-5334005D01*
G01X3030403Y-6680200D02*
G01X3030403Y-6210498D01*
G01X3144901Y-6096000D01*
G01X3144901Y-5830799D01*
G01X3092602Y-5778500D01*
G01X7739555Y-4859727D02*
G01X7116247Y-4236419D01*
G01X7739555Y-7043245D02*
G01X7739555Y-4859727D01*
G01X1752600Y-6832597D02*
G01X1752600Y-6883400D01*
G01X2952598Y-5778500D02*
G01X2952598Y-6018301D01*
G01X2874899Y-6096000D01*
G01X2324103Y-3664410D02*
G01X2324103Y-4044795D01*
G01X2304898Y-4064000D01*
G01X2324103Y-3244395D02*
G01X2444902Y-3365195D01*
G01X2444902Y-4064000D01*
G01X226009Y-342900D02*
G01X226009Y-787400D01*
G01X1745640Y-2419439D02*
G01X1466939Y-2419439D01*
G01X1282700Y-2235200D01*
G01X1282700Y-1930400D01*
G01X2324100Y-2730500D02*
G01X2324100Y-3244393D01*
G01X2324100Y-1968500D02*
G01X2324100Y-1981200D01*
G01X2082800Y-2222500D01*
G01X2082800Y-3454400D01*
G01X1917764Y-3619436D01*
G01X1745463Y-3619436D01*
G01X7393991Y-1739900D02*
G01X7393991Y-2511006D01*
G01X7212597Y-2692400D01*
G01X314262Y-2619438D02*
G01X235458Y-2619438D01*
G01X444500Y-2489200D02*
G01X314262Y-2619438D01*
G01X235458Y-2219439D02*
G01X327139Y-2219439D01*
G01X444500Y-2336800D01*
G01X444500Y-2489200D01*
G01X333439Y-2619438D02*
G01X520700Y-2806700D01*
G01X314262Y-2619438D02*
G01X333439Y-2619438D01*
G01X520700Y-2806700D02*
G01X520700Y-3441700D01*
G01X235534Y-3619436D02*
G01X235534Y-3956634D01*
G01X825500Y-4546600D01*
G01X1981200Y-4546600D01*
G01X2444902Y-4082898D01*
G01X2444902Y-4064000D01*
G01X2279129Y-3619436D02*
G01X2324103Y-3664410D01*
G01X1917764Y-3619436D02*
G01X2279129Y-3619436D01*
G01X6217526Y-6306820D02*
G01X6075680Y-6306820D01*
G01X5969000Y-6413500D01*
G01X5969000Y-6553200D01*
G01X6062980Y-6647180D01*
G01X6217526Y-6647180D01*
G01X6217526Y-6136640D02*
G01X6068060Y-6136640D01*
G01X5892800Y-6311900D01*
G01X5892800Y-6654800D01*
G01X6055360Y-6817360D01*
G01X6217526Y-6817360D01*
G01X6217526Y-6477000D02*
G01X7187324Y-6477000D01*
G01X3624395Y-6680200D02*
G01X3344995Y-6959600D01*
G01X2286000Y-6959600D02*
G01X1905000Y-6578600D01*
G01X1752597Y-6578600D01*
G01X1498600Y-6832597D01*
G01X3344995Y-6959600D02*
G01X2286000Y-6959600D01*
G01X1498600Y-6832597D02*
G01X1231897Y-7099300D01*
G01X825500Y-7099300D01*
G01X571500Y-6845300D01*
G01X571500Y-5397500D01*
G01X6969709Y-1333500D02*
G01X6464300Y-1333500D01*
G01X3689502Y-6134100D02*
G01X3689502Y-5945403D01*
G01X3657600Y-5913501D01*
G01X3549498Y-6134100D02*
G01X3549498Y-6114898D01*
G01X3454400Y-6019800D01*
G01X3454400Y-5846699D01*
G01X3657600Y-5643499D01*
G01X6078118Y-5187988D02*
G01X6078118Y-5997232D01*
G01X6217526Y-6136640D01*
G01X6378092Y-5667769D02*
G01X6378092Y-4717986D01*
G01X7187324Y-6477000D02*
G01X6378092Y-5667769D01*
G01X662991Y-342900D02*
G01X3594100Y-342900D01*
G01X662991Y-787400D02*
G01X3390908Y-787400D01*
G01X3594103Y-584205D01*
G01X1282700Y-1930400D02*
G01X1612900Y-1600200D01*
G01X3568700Y-1600200D01*
G01X3594100Y-1625600D01*
G01X1745666Y-2219439D02*
G01X2110900Y-1854205D01*
G01X3594103Y-1854205D01*
G01X3479808Y-2476500D02*
G01X3594103Y-2362205D01*
G01X3479808Y-2476500D02*
G01X2324100Y-2476500D01*
G01X990600Y-6832597D02*
G01X990600Y-6743708D01*
G01X3594103Y-4140205D01*
G01X3541116Y-4394205D02*
G01X3594103Y-4394205D01*
G01X1244600Y-6832597D02*
G01X1244600Y-6690721D01*
G01X3541116Y-4394205D01*
G01X5118103Y-330205D02*
G01X5130808Y-317500D01*
G01X6489700Y-317500D01*
G01X5118103Y-330205D02*
G01X5118103Y-584205D01*
G01X6731000Y-482600D02*
G01X5867400Y-1346200D01*
G01X6642100Y-901700D02*
G01X5943600Y-1600200D01*
G01X6464300Y-1333500D02*
G01X5943600Y-1854200D01*
G01X6299200Y-1739900D02*
G01X5981700Y-2057400D01*
G01X5118108Y-1346200D02*
G01X5867400Y-1346200D01*
G01X5118108Y-1600200D02*
G01X5943600Y-1600200D01*
G01X5118108Y-1854200D02*
G01X5943600Y-1854200D01*
G01X5168908Y-2057400D02*
G01X5118103Y-2108205D01*
G01X5168908Y-2057400D02*
G01X5981700Y-2057400D01*
G01X5156208Y-2832100D02*
G01X5118103Y-2870205D01*
G01X5156208Y-2832100D02*
G01X5703164Y-2832100D01*
G01X5821644Y-3735089D02*
G01X5718756Y-3632200D01*
G01X5077430Y-3632200D01*
G01X5821644Y-3941276D02*
G01X5766569Y-3886200D01*
G01X5173056Y-3886200D01*
G01X5103470Y-4152900D02*
G01X5738126Y-4152900D01*
G01X5821644Y-4236419D01*
G01X5821644Y-3528902D02*
G01X5670948Y-3378205D01*
G01X5118103Y-3378205D01*
G01X3581403Y-5334005D02*
G01X3581403Y-5168905D01*
G01X3594103Y-5156205D01*
G01X3860800Y-4152903D02*
G01X3594103Y-3886205D01*
G01X3594103Y-3632205D02*
G01X4089400Y-4127503D01*
G01X4089400Y-5295900D01*
G01X1498600Y-6832597D02*
G01X2205231Y-7539228D01*
G01X7243572Y-7539228D01*
G01X7739555Y-7043245D01*
G01X1752600Y-6883400D02*
G01X2286000Y-7416800D01*
G01X3117792Y-7416800D01*
G01X3624395Y-6910197D01*
G01X3860800Y-5372100D02*
G01X3860800Y-4152903D01*
G01X4978400Y-6515100D02*
G01X4978400Y-6489700D01*
G01X3860800Y-5372100D01*
G01X5232400Y-6438900D02*
G01X4089400Y-5295900D01*
G01X5232400Y-6438900D02*
G01X5232400Y-6515100D01*
G01X5105400Y-7023100D02*
G01X5372100Y-7289800D01*
G01X6223000Y-7289800D01*
G01X6483350Y-7029450D02*
G01X6483350Y-6756400D01*
G01X6374130Y-6647180D01*
G01X6217526Y-6647180D01*
G01X6223000Y-7289800D02*
G01X6483350Y-7029450D01*
G01X5359400Y-7023100D02*
G01X5565140Y-6817360D01*
G01X6055360Y-6817360D01*
G01X4724400Y-6515100D02*
G01X5105400Y-6896100D01*
G01X5105400Y-7023100D01*
G01X3624395Y-6910197D02*
G01X4130998Y-7416800D01*
G01X4521200Y-7416800D01*
G01X4851400Y-7086600D01*
G01X4851400Y-7023100D01*
G01X3624395Y-6450203D02*
G01X3735197Y-6450203D01*
G01X3886200Y-6299200D01*
G01X4508500Y-6299200D01*
G01X4724400Y-6515100D01*
G01X3549498Y-6134100D02*
G01X3549498Y-6375306D01*
G01X3624395Y-6450203D01*
G01X4851400Y-7023100D02*
G01X5232400Y-7404100D01*
G01X6692900Y-7404100D01*
G01X7219074Y-6877926D01*
G01X7219074Y-6508750D01*
G01X6489700Y-317500D02*
G01X6629400Y-177800D01*
G01X7089191Y-177800D01*
G01X7393991Y-482600D01*
G01X7116247Y-3735089D02*
G01X7116247Y-3941276D01*
G01X2444902Y-4400398D02*
G01X2444902Y-4082898D01*
G01X571500Y-5397500D02*
G01X990600Y-4978400D01*
G01X1866900Y-4978400D01*
G01X2444902Y-4400398D01*
G01X1745615Y-3419437D02*
G01X1745615Y-3619284D01*
G01X1745742Y-3019514D02*
G01X1745742Y-3219437D01*
G01X1701279Y-3263900D01*
G01X889000Y-3263900D02*
G01X558800Y-3594100D01*
G01X260871Y-3594100D02*
G01X235534Y-3619436D01*
G01X520700Y-3441700D02*
G01X368300Y-3594100D01*
G01X558800Y-3594100D02*
G01X368300Y-3594100D01*
G01X260871Y-3594100D01*
G01X889000Y-3263900D02*
G01X1701279Y-3263900D01*
G04 Track End*

M02*

