G04 Layer: BottomLayer*
G04 EasyEDA Pro v3.2.116, 2026-06-17 16:20:27*
G04 Gerber Generator version 0.3*
G04 Scale: 100 percent, Rotated: No, Reflected: No*
G04 Dimensions in millimeters*
G04 Leading zeros omitted, absolute positions, 4 integers and 5 decimals*
G04 Generated by one-click*
%FSLAX45Y45*%
%MOMM*%
%ADD10C,0.2032*%
%ADD11C,0.254*%
%ADD12C,1.8*%
%ADD13O,2.0X4.59999*%
%ADD14O,4.59999X2.0*%
%ADD15C,1.6*%
%ADD16R,1.2954X1.2954*%
%ADD17C,1.3003*%
%ADD18C,1.2954*%
%ADD19C,2.0*%
%ADD20R,2.0X1.6*%
%ADD21R,1.7X1.7*%
%ADD22C,1.7*%
%ADD23C,0.61*%
G75*


G04 Copper Start*
G36*
G01X2743200Y-1222624D02*
G01X-14986Y-1222624D01*
G01X-14986Y-1081519D01*
G01X3478783Y-1081519D01*
G01X3478783Y-1102891D01*
G01X3482710Y-1123899D01*
G01X3490430Y-1143828D01*
G01X3501681Y-1161999D01*
G01X3516079Y-1177793D01*
G01X3533134Y-1190672D01*
G01X3552266Y-1200198D01*
G01X3572822Y-1206047D01*
G01X3594103Y-1208019D01*
G01X3615383Y-1206047D01*
G01X3635939Y-1200198D01*
G01X3655071Y-1190672D01*
G01X3672126Y-1177793D01*
G01X3686524Y-1161999D01*
G01X3697775Y-1143828D01*
G01X3705495Y-1123899D01*
G01X3709422Y-1102891D01*
G01X3709422Y-1081519D01*
G01X3709422Y-1081519D01*
G01X5002783Y-1081519D01*
G01X5002783Y-1102891D01*
G01X5006710Y-1123899D01*
G01X5014430Y-1143828D01*
G01X5025681Y-1161999D01*
G01X5040079Y-1177793D01*
G01X5057134Y-1190672D01*
G01X5076266Y-1200198D01*
G01X5096822Y-1206047D01*
G01X5118103Y-1208019D01*
G01X5139383Y-1206047D01*
G01X5159939Y-1200198D01*
G01X5179071Y-1190672D01*
G01X5196126Y-1177793D01*
G01X5210524Y-1161999D01*
G01X5221775Y-1143828D01*
G01X5229495Y-1123899D01*
G01X5233422Y-1102891D01*
G01X5233422Y-1081519D01*
G01X5229495Y-1060511D01*
G01X5221775Y-1040582D01*
G01X5210524Y-1022412D01*
G01X5196126Y-1006618D01*
G01X5179071Y-993738D01*
G01X5159939Y-984212D01*
G01X5139383Y-978363D01*
G01X5118103Y-976391D01*
G01X5118103Y-976391D01*
G01X5096822Y-978363D01*
G01X5076266Y-984212D01*
G01X5057134Y-993738D01*
G01X5040079Y-1006618D01*
G01X5025681Y-1022412D01*
G01X5014430Y-1040582D01*
G01X5006710Y-1060511D01*
G01X5002783Y-1081519D01*
G01X3709422Y-1081519D01*
G01X3705495Y-1060511D01*
G01X3697775Y-1040582D01*
G01X3686524Y-1022412D01*
G01X3672126Y-1006618D01*
G01X3655071Y-993738D01*
G01X3635939Y-984212D01*
G01X3615383Y-978363D01*
G01X3594103Y-976391D01*
G01X3594103Y-976391D01*
G01X3572822Y-978363D01*
G01X3552266Y-984212D01*
G01X3533134Y-993738D01*
G01X3516079Y-1006618D01*
G01X3501681Y-1022412D01*
G01X3490430Y-1040582D01*
G01X3482710Y-1060511D01*
G01X3478783Y-1081519D01*
G01X-14986Y-1081519D01*
G01X-14986Y-827519D01*
G01X3478783Y-827519D01*
G01X3478783Y-848891D01*
G01X3482710Y-869899D01*
G01X3490430Y-889828D01*
G01X3501681Y-907999D01*
G01X3516079Y-923793D01*
G01X3533134Y-936672D01*
G01X3552266Y-946198D01*
G01X3572822Y-952047D01*
G01X3594103Y-954019D01*
G01X3615383Y-952047D01*
G01X3635939Y-946198D01*
G01X3655071Y-936672D01*
G01X3672126Y-923793D01*
G01X3686524Y-907999D01*
G01X3697775Y-889828D01*
G01X3705495Y-869899D01*
G01X3709422Y-848891D01*
G01X3709422Y-827519D01*
G01X3709422Y-827519D01*
G01X5002783Y-827519D01*
G01X5002783Y-848891D01*
G01X5006710Y-869899D01*
G01X5014430Y-889828D01*
G01X5025681Y-907999D01*
G01X5040079Y-923793D01*
G01X5057134Y-936672D01*
G01X5076266Y-946198D01*
G01X5096822Y-952047D01*
G01X5118103Y-954019D01*
G01X5139383Y-952047D01*
G01X5159939Y-946198D01*
G01X5179071Y-936672D01*
G01X5196126Y-923793D01*
G01X5210524Y-907999D01*
G01X5221775Y-889828D01*
G01X5229495Y-869899D01*
G01X5233422Y-848891D01*
G01X5233422Y-827519D01*
G01X5229495Y-806511D01*
G01X5221775Y-786582D01*
G01X5210524Y-768412D01*
G01X5196126Y-752618D01*
G01X5179071Y-739738D01*
G01X5159939Y-730212D01*
G01X5139383Y-724363D01*
G01X5118103Y-722391D01*
G01X5118103Y-722391D01*
G01X5096822Y-724363D01*
G01X5076266Y-730212D01*
G01X5057134Y-739738D01*
G01X5040079Y-752618D01*
G01X5025681Y-768412D01*
G01X5014430Y-786582D01*
G01X5006710Y-806511D01*
G01X5002783Y-827519D01*
G01X3709422Y-827519D01*
G01X3705495Y-806511D01*
G01X3697775Y-786582D01*
G01X3686524Y-768412D01*
G01X3672126Y-752618D01*
G01X3655071Y-739738D01*
G01X3635939Y-730212D01*
G01X3615383Y-724363D01*
G01X3594103Y-722391D01*
G01X3594103Y-722391D01*
G01X3572822Y-724363D01*
G01X3552266Y-730212D01*
G01X3533134Y-739738D01*
G01X3516079Y-752618D01*
G01X3501681Y-768412D01*
G01X3490430Y-786582D01*
G01X3482710Y-806511D01*
G01X3478783Y-827519D01*
G01X-14986Y-827519D01*
G01X-14986Y-573519D01*
G01X3478783Y-573519D01*
G01X3478783Y-594891D01*
G01X3482710Y-615899D01*
G01X3490430Y-635828D01*
G01X3501681Y-653999D01*
G01X3516079Y-669793D01*
G01X3533134Y-682672D01*
G01X3552266Y-692198D01*
G01X3572822Y-698047D01*
G01X3594103Y-700019D01*
G01X3615383Y-698047D01*
G01X3635939Y-692198D01*
G01X3655071Y-682672D01*
G01X3672126Y-669793D01*
G01X3686524Y-653999D01*
G01X3697775Y-635828D01*
G01X3705495Y-615899D01*
G01X3709422Y-594891D01*
G01X3709422Y-573519D01*
G01X3709422Y-573519D01*
G01X5002783Y-573519D01*
G01X5002783Y-594891D01*
G01X5006710Y-615899D01*
G01X5014430Y-635828D01*
G01X5025681Y-653999D01*
G01X5040079Y-669793D01*
G01X5057134Y-682672D01*
G01X5076266Y-692198D01*
G01X5096822Y-698047D01*
G01X5118103Y-700019D01*
G01X5139383Y-698047D01*
G01X5159939Y-692198D01*
G01X5179071Y-682672D01*
G01X5196126Y-669793D01*
G01X5210524Y-653999D01*
G01X5221775Y-635828D01*
G01X5229495Y-615899D01*
G01X5233422Y-594891D01*
G01X5233422Y-573519D01*
G01X5229495Y-552511D01*
G01X5221775Y-532582D01*
G01X5210524Y-514412D01*
G01X5196126Y-498618D01*
G01X5179071Y-485738D01*
G01X5159939Y-476212D01*
G01X5139383Y-470363D01*
G01X5118103Y-468391D01*
G01X5118103Y-468391D01*
G01X5096822Y-470363D01*
G01X5076266Y-476212D01*
G01X5057134Y-485738D01*
G01X5040079Y-498618D01*
G01X5025681Y-514412D01*
G01X5014430Y-532582D01*
G01X5006710Y-552511D01*
G01X5002783Y-573519D01*
G01X3709422Y-573519D01*
G01X3705495Y-552511D01*
G01X3697775Y-532582D01*
G01X3686524Y-514412D01*
G01X3672126Y-498618D01*
G01X3655071Y-485738D01*
G01X3635939Y-476212D01*
G01X3615383Y-470363D01*
G01X3594103Y-468391D01*
G01X3594103Y-468391D01*
G01X3572822Y-470363D01*
G01X3552266Y-476212D01*
G01X3533134Y-485738D01*
G01X3516079Y-498618D01*
G01X3501681Y-514412D01*
G01X3490430Y-532582D01*
G01X3482710Y-552511D01*
G01X3478783Y-573519D01*
G01X-14986Y-573519D01*
G01X-14986Y-319519D01*
G01X3478783Y-319519D01*
G01X3478783Y-340891D01*
G01X3482710Y-361899D01*
G01X3490430Y-381828D01*
G01X3501681Y-399999D01*
G01X3516079Y-415793D01*
G01X3533134Y-428672D01*
G01X3552266Y-438198D01*
G01X3572822Y-444047D01*
G01X3594103Y-446019D01*
G01X3615383Y-444047D01*
G01X3635939Y-438198D01*
G01X3655071Y-428672D01*
G01X3672126Y-415793D01*
G01X3686524Y-399999D01*
G01X3697775Y-381828D01*
G01X3705495Y-361899D01*
G01X3709422Y-340891D01*
G01X3709422Y-319519D01*
G01X3709422Y-319519D01*
G01X5002783Y-319519D01*
G01X5002783Y-340891D01*
G01X5006710Y-361899D01*
G01X5014430Y-381828D01*
G01X5025681Y-399999D01*
G01X5040079Y-415793D01*
G01X5057134Y-428672D01*
G01X5076266Y-438198D01*
G01X5096822Y-444047D01*
G01X5118103Y-446019D01*
G01X5139383Y-444047D01*
G01X5159939Y-438198D01*
G01X5179071Y-428672D01*
G01X5196126Y-415793D01*
G01X5210524Y-399999D01*
G01X5221775Y-381828D01*
G01X5229495Y-361899D01*
G01X5233422Y-340891D01*
G01X5233422Y-319519D01*
G01X5229495Y-298511D01*
G01X5221775Y-278582D01*
G01X5210524Y-260412D01*
G01X5196126Y-244618D01*
G01X5179071Y-231738D01*
G01X5159939Y-222212D01*
G01X5139383Y-216363D01*
G01X5118103Y-214391D01*
G01X5118103Y-214391D01*
G01X5096822Y-216363D01*
G01X5076266Y-222212D01*
G01X5057134Y-231738D01*
G01X5040079Y-244618D01*
G01X5025681Y-260412D01*
G01X5014430Y-278582D01*
G01X5006710Y-298511D01*
G01X5002783Y-319519D01*
G01X3709422Y-319519D01*
G01X3705495Y-298511D01*
G01X3697775Y-278582D01*
G01X3686524Y-260412D01*
G01X3672126Y-244618D01*
G01X3655071Y-231738D01*
G01X3635939Y-222212D01*
G01X3615383Y-216363D01*
G01X3594103Y-214391D01*
G01X3594103Y-214391D01*
G01X3572822Y-216363D01*
G01X3552266Y-222212D01*
G01X3533134Y-231738D01*
G01X3516079Y-244618D01*
G01X3501681Y-260412D01*
G01X3490430Y-278582D01*
G01X3482710Y-298511D01*
G01X3478783Y-319519D01*
G01X-14986Y-319519D01*
G01X-14986Y-112014D01*
G01X7797607Y-112014D01*
G01X7797607Y-7584186D01*
G01X-14986Y-7584186D01*
G01X-14986Y-7023100D01*
G01X3953586Y-7023100D01*
G01X3955397Y-7045206D01*
G01X3960782Y-7066722D01*
G01X3969597Y-7087074D01*
G01X3981608Y-7105721D01*
G01X3996493Y-7122164D01*
G01X4013855Y-7135965D01*
G01X4033233Y-7146755D01*
G01X4054109Y-7154248D01*
G01X4075925Y-7158244D01*
G01X4098102Y-7158635D01*
G01X4120046Y-7155411D01*
G01X4141173Y-7148659D01*
G01X4160919Y-7138558D01*
G01X4178757Y-7125377D01*
G01X4194213Y-7109469D01*
G01X4206873Y-7091258D01*
G01X4216400Y-7071229D01*
G01X4226556Y-7092331D01*
G01X4240187Y-7111375D01*
G01X4256887Y-7127794D01*
G01X4276158Y-7141100D01*
G01X4297430Y-7150897D01*
G01X4320068Y-7156895D01*
G01X4343400Y-7158914D01*
G01X4366732Y-7156895D01*
G01X4389370Y-7150897D01*
G01X4410642Y-7141100D01*
G01X4429913Y-7127794D01*
G01X4446613Y-7111375D01*
G01X4460244Y-7092331D01*
G01X4470400Y-7071229D01*
G01X4480556Y-7092331D01*
G01X4494187Y-7111375D01*
G01X4510887Y-7127794D01*
G01X4530158Y-7141100D01*
G01X4551430Y-7150897D01*
G01X4574068Y-7156895D01*
G01X4597400Y-7158914D01*
G01X4620732Y-7156895D01*
G01X4643370Y-7150897D01*
G01X4664642Y-7141100D01*
G01X4683913Y-7127794D01*
G01X4700613Y-7111375D01*
G01X4714244Y-7092331D01*
G01X4724400Y-7071229D01*
G01X4734556Y-7092331D01*
G01X4748187Y-7111375D01*
G01X4764887Y-7127794D01*
G01X4784158Y-7141100D01*
G01X4805430Y-7150897D01*
G01X4828068Y-7156895D01*
G01X4851400Y-7158914D01*
G01X4874732Y-7156895D01*
G01X4897370Y-7150897D01*
G01X4918642Y-7141100D01*
G01X4937913Y-7127794D01*
G01X4954613Y-7111375D01*
G01X4968244Y-7092331D01*
G01X4978400Y-7071229D01*
G01X4988556Y-7092331D01*
G01X5002187Y-7111375D01*
G01X5018887Y-7127794D01*
G01X5038158Y-7141100D01*
G01X5059430Y-7150897D01*
G01X5082068Y-7156895D01*
G01X5105400Y-7158914D01*
G01X5128732Y-7156895D01*
G01X5151370Y-7150897D01*
G01X5172642Y-7141100D01*
G01X5191913Y-7127794D01*
G01X5208613Y-7111375D01*
G01X5222244Y-7092331D01*
G01X5232400Y-7071229D01*
G01X5242556Y-7092331D01*
G01X5256187Y-7111375D01*
G01X5272887Y-7127794D01*
G01X5292158Y-7141100D01*
G01X5313430Y-7150897D01*
G01X5336068Y-7156895D01*
G01X5359400Y-7158914D01*
G01X5382732Y-7156895D01*
G01X5405370Y-7150897D01*
G01X5426642Y-7141100D01*
G01X5445913Y-7127794D01*
G01X5462613Y-7111375D01*
G01X5476244Y-7092331D01*
G01X5486400Y-7071229D01*
G01X5495927Y-7091258D01*
G01X5508587Y-7109469D01*
G01X5524043Y-7125377D01*
G01X5541881Y-7138558D01*
G01X5561627Y-7148659D01*
G01X5582754Y-7155411D01*
G01X5604698Y-7158635D01*
G01X5626875Y-7158244D01*
G01X5648691Y-7154248D01*
G01X5669567Y-7146755D01*
G01X5688945Y-7135965D01*
G01X5706307Y-7122164D01*
G01X5721192Y-7105721D01*
G01X5733203Y-7087074D01*
G01X5742018Y-7066722D01*
G01X5747403Y-7045206D01*
G01X5749214Y-7023100D01*
G01X5747403Y-7000994D01*
G01X5742018Y-6979478D01*
G01X5733203Y-6959126D01*
G01X5721192Y-6940479D01*
G01X5706307Y-6924036D01*
G01X5688945Y-6910235D01*
G01X5669567Y-6899445D01*
G01X5648691Y-6891952D01*
G01X5626875Y-6887956D01*
G01X5604698Y-6887565D01*
G01X5582754Y-6890789D01*
G01X5561627Y-6897541D01*
G01X5541881Y-6907642D01*
G01X5524043Y-6920823D01*
G01X5508587Y-6936731D01*
G01X5495927Y-6954942D01*
G01X5486400Y-6974971D01*
G01X5476244Y-6953869D01*
G01X5462613Y-6934825D01*
G01X5445913Y-6918406D01*
G01X5426642Y-6905100D01*
G01X5405370Y-6895303D01*
G01X5382732Y-6889305D01*
G01X5359400Y-6887286D01*
G01X5336068Y-6889305D01*
G01X5313430Y-6895303D01*
G01X5292158Y-6905100D01*
G01X5272887Y-6918406D01*
G01X5256187Y-6934825D01*
G01X5242556Y-6953869D01*
G01X5232400Y-6974971D01*
G01X5232400Y-6974971D01*
G01X5222244Y-6953869D01*
G01X5208613Y-6934825D01*
G01X5191913Y-6918406D01*
G01X5172642Y-6905100D01*
G01X5151370Y-6895303D01*
G01X5128732Y-6889305D01*
G01X5105400Y-6887286D01*
G01X5082068Y-6889305D01*
G01X5059430Y-6895303D01*
G01X5038158Y-6905100D01*
G01X5018887Y-6918406D01*
G01X5002187Y-6934825D01*
G01X4988556Y-6953869D01*
G01X4978400Y-6974971D01*
G01X4968244Y-6953869D01*
G01X4954613Y-6934825D01*
G01X4937913Y-6918406D01*
G01X4918642Y-6905100D01*
G01X4897370Y-6895303D01*
G01X4874732Y-6889305D01*
G01X4851400Y-6887286D01*
G01X4828068Y-6889305D01*
G01X4805430Y-6895303D01*
G01X4784158Y-6905100D01*
G01X4764887Y-6918406D01*
G01X4748187Y-6934825D01*
G01X4734556Y-6953869D01*
G01X4724400Y-6974971D01*
G01X4714244Y-6953869D01*
G01X4700613Y-6934825D01*
G01X4683913Y-6918406D01*
G01X4664642Y-6905100D01*
G01X4643370Y-6895303D01*
G01X4620732Y-6889305D01*
G01X4597400Y-6887286D01*
G01X4574068Y-6889305D01*
G01X4551430Y-6895303D01*
G01X4530158Y-6905100D01*
G01X4510887Y-6918406D01*
G01X4494187Y-6934825D01*
G01X4480556Y-6953869D01*
G01X4470400Y-6974971D01*
G01X4460244Y-6953869D01*
G01X4446613Y-6934825D01*
G01X4429913Y-6918406D01*
G01X4410642Y-6905100D01*
G01X4389370Y-6895303D01*
G01X4366732Y-6889305D01*
G01X4343400Y-6887286D01*
G01X4320068Y-6889305D01*
G01X4297430Y-6895303D01*
G01X4276158Y-6905100D01*
G01X4256887Y-6918406D01*
G01X4240187Y-6934825D01*
G01X4226556Y-6953869D01*
G01X4216400Y-6974971D01*
G01X4206873Y-6954942D01*
G01X4194213Y-6936731D01*
G01X4178757Y-6920823D01*
G01X4160919Y-6907642D01*
G01X4141173Y-6897541D01*
G01X4120046Y-6890789D01*
G01X4098102Y-6887565D01*
G01X4075925Y-6887956D01*
G01X4054109Y-6891952D01*
G01X4033233Y-6899445D01*
G01X4013855Y-6910235D01*
G01X3996493Y-6924036D01*
G01X3981608Y-6940479D01*
G01X3969597Y-6959126D01*
G01X3960782Y-6979478D01*
G01X3955397Y-7000994D01*
G01X3953586Y-7023100D01*
G01X-14986Y-7023100D01*
G01X-14986Y-6832600D01*
G01X869786Y-6832600D01*
G01X871622Y-6853579D01*
G01X877072Y-6873921D01*
G01X885972Y-6893007D01*
G01X898051Y-6910258D01*
G01X912942Y-6925149D01*
G01X930193Y-6937228D01*
G01X949279Y-6946128D01*
G01X969621Y-6951578D01*
G01X990600Y-6953414D01*
G01X1011579Y-6951578D01*
G01X1031921Y-6946128D01*
G01X1051007Y-6937228D01*
G01X1068258Y-6925149D01*
G01X1083149Y-6910258D01*
G01X1095228Y-6893007D01*
G01X1104128Y-6873921D01*
G01X1109578Y-6853579D01*
G01X1111414Y-6832600D01*
G01X1111414Y-6832600D01*
G01X1123786Y-6832600D01*
G01X1125622Y-6853579D01*
G01X1131072Y-6873921D01*
G01X1139972Y-6893007D01*
G01X1152051Y-6910258D01*
G01X1166942Y-6925149D01*
G01X1184193Y-6937228D01*
G01X1203279Y-6946128D01*
G01X1223621Y-6951578D01*
G01X1244600Y-6953414D01*
G01X1265579Y-6951578D01*
G01X1285921Y-6946128D01*
G01X1305007Y-6937228D01*
G01X1322258Y-6925149D01*
G01X1337149Y-6910258D01*
G01X1349228Y-6893007D01*
G01X1358128Y-6873921D01*
G01X1363578Y-6853579D01*
G01X1365414Y-6832600D01*
G01X1365414Y-6832600D01*
G01X1377786Y-6832600D01*
G01X1379622Y-6853579D01*
G01X1385072Y-6873921D01*
G01X1393972Y-6893007D01*
G01X1406051Y-6910258D01*
G01X1420942Y-6925149D01*
G01X1438193Y-6937228D01*
G01X1457279Y-6946128D01*
G01X1477621Y-6951578D01*
G01X1498600Y-6953414D01*
G01X1519579Y-6951578D01*
G01X1539921Y-6946128D01*
G01X1559007Y-6937228D01*
G01X1576258Y-6925149D01*
G01X1591149Y-6910258D01*
G01X1603228Y-6893007D01*
G01X1612128Y-6873921D01*
G01X1617578Y-6853579D01*
G01X1619414Y-6832600D01*
G01X1619414Y-6832600D01*
G01X1617578Y-6811621D01*
G01X1612128Y-6791279D01*
G01X1603228Y-6772193D01*
G01X1591149Y-6754942D01*
G01X1583807Y-6747600D01*
G01X1631786Y-6747600D01*
G01X1631786Y-6917600D01*
G01X1633539Y-6928667D01*
G01X1638626Y-6938651D01*
G01X1646549Y-6946574D01*
G01X1656533Y-6951661D01*
G01X1667600Y-6953414D01*
G01X1837600Y-6953414D01*
G01X1848667Y-6951661D01*
G01X1858651Y-6946574D01*
G01X1866574Y-6938651D01*
G01X1871661Y-6928667D01*
G01X1873414Y-6917600D01*
G01X1873414Y-6747600D01*
G01X1871661Y-6736533D01*
G01X1866574Y-6726549D01*
G01X1858651Y-6718626D01*
G01X1848667Y-6713539D01*
G01X1837600Y-6711786D01*
G01X1667600Y-6711786D01*
G01X1667600Y-6711786D01*
G01X1656533Y-6713539D01*
G01X1646549Y-6718626D01*
G01X1638626Y-6726549D01*
G01X1633539Y-6736533D01*
G01X1631786Y-6747600D01*
G01X1583807Y-6747600D01*
G01X1576258Y-6740051D01*
G01X1559007Y-6727972D01*
G01X1539921Y-6719072D01*
G01X1519579Y-6713622D01*
G01X1498600Y-6711786D01*
G01X1477621Y-6713622D01*
G01X1457279Y-6719072D01*
G01X1438193Y-6727972D01*
G01X1420942Y-6740051D01*
G01X1406051Y-6754942D01*
G01X1393972Y-6772193D01*
G01X1385072Y-6791279D01*
G01X1379622Y-6811621D01*
G01X1377786Y-6832600D01*
G01X1365414Y-6832600D01*
G01X1363578Y-6811621D01*
G01X1358128Y-6791279D01*
G01X1349228Y-6772193D01*
G01X1337149Y-6754942D01*
G01X1322258Y-6740051D01*
G01X1305007Y-6727972D01*
G01X1285921Y-6719072D01*
G01X1265579Y-6713622D01*
G01X1244600Y-6711786D01*
G01X1223621Y-6713622D01*
G01X1203279Y-6719072D01*
G01X1184193Y-6727972D01*
G01X1166942Y-6740051D01*
G01X1152051Y-6754942D01*
G01X1139972Y-6772193D01*
G01X1131072Y-6791279D01*
G01X1125622Y-6811621D01*
G01X1123786Y-6832600D01*
G01X1111414Y-6832600D01*
G01X1109578Y-6811621D01*
G01X1104128Y-6791279D01*
G01X1095228Y-6772193D01*
G01X1083149Y-6754942D01*
G01X1068258Y-6740051D01*
G01X1051007Y-6727972D01*
G01X1031921Y-6719072D01*
G01X1011579Y-6713622D01*
G01X990600Y-6711786D01*
G01X969621Y-6713622D01*
G01X949279Y-6719072D01*
G01X930193Y-6727972D01*
G01X912942Y-6740051D01*
G01X898051Y-6754942D01*
G01X885972Y-6772193D01*
G01X877072Y-6791279D01*
G01X871622Y-6811621D01*
G01X869786Y-6832600D01*
G01X-14986Y-6832600D01*
G01X-14986Y-6515100D01*
G01X3826586Y-6515100D01*
G01X3828397Y-6537206D01*
G01X3833782Y-6558722D01*
G01X3842597Y-6579074D01*
G01X3854608Y-6597721D01*
G01X3869493Y-6614164D01*
G01X3886855Y-6627965D01*
G01X3906233Y-6638755D01*
G01X3927109Y-6646248D01*
G01X3948925Y-6650244D01*
G01X3971102Y-6650635D01*
G01X3993046Y-6647411D01*
G01X4014173Y-6640659D01*
G01X4033919Y-6630558D01*
G01X4051757Y-6617377D01*
G01X4067213Y-6601469D01*
G01X4079873Y-6583258D01*
G01X4089400Y-6563229D01*
G01X4099556Y-6584331D01*
G01X4113187Y-6603375D01*
G01X4129887Y-6619794D01*
G01X4149158Y-6633100D01*
G01X4170430Y-6642897D01*
G01X4193068Y-6648895D01*
G01X4216400Y-6650914D01*
G01X4239732Y-6648895D01*
G01X4262370Y-6642897D01*
G01X4283642Y-6633100D01*
G01X4302913Y-6619794D01*
G01X4319613Y-6603375D01*
G01X4333244Y-6584331D01*
G01X4343400Y-6563229D01*
G01X4353556Y-6584331D01*
G01X4367187Y-6603375D01*
G01X4383887Y-6619794D01*
G01X4403158Y-6633100D01*
G01X4424430Y-6642897D01*
G01X4447068Y-6648895D01*
G01X4470400Y-6650914D01*
G01X4493732Y-6648895D01*
G01X4516370Y-6642897D01*
G01X4537642Y-6633100D01*
G01X4556913Y-6619794D01*
G01X4573613Y-6603375D01*
G01X4587244Y-6584331D01*
G01X4597400Y-6563229D01*
G01X4607556Y-6584331D01*
G01X4621187Y-6603375D01*
G01X4637887Y-6619794D01*
G01X4657158Y-6633100D01*
G01X4678430Y-6642897D01*
G01X4701068Y-6648895D01*
G01X4724400Y-6650914D01*
G01X4747732Y-6648895D01*
G01X4770370Y-6642897D01*
G01X4791642Y-6633100D01*
G01X4810913Y-6619794D01*
G01X4827613Y-6603375D01*
G01X4841244Y-6584331D01*
G01X4851400Y-6563229D01*
G01X4861556Y-6584331D01*
G01X4875187Y-6603375D01*
G01X4891887Y-6619794D01*
G01X4911158Y-6633100D01*
G01X4932430Y-6642897D01*
G01X4955068Y-6648895D01*
G01X4978400Y-6650914D01*
G01X5001732Y-6648895D01*
G01X5024370Y-6642897D01*
G01X5045642Y-6633100D01*
G01X5064913Y-6619794D01*
G01X5081613Y-6603375D01*
G01X5095244Y-6584331D01*
G01X5105400Y-6563229D01*
G01X5115556Y-6584331D01*
G01X5129187Y-6603375D01*
G01X5145887Y-6619794D01*
G01X5165158Y-6633100D01*
G01X5186430Y-6642897D01*
G01X5209068Y-6648895D01*
G01X5232400Y-6650914D01*
G01X5255732Y-6648895D01*
G01X5278370Y-6642897D01*
G01X5299642Y-6633100D01*
G01X5318913Y-6619794D01*
G01X5335613Y-6603375D01*
G01X5349244Y-6584331D01*
G01X5359400Y-6563229D01*
G01X5368807Y-6583051D01*
G01X5381283Y-6601099D01*
G01X5396503Y-6616903D01*
G01X5414068Y-6630050D01*
G01X5433522Y-6640197D01*
G01X5454355Y-6647079D01*
G01X5476025Y-6650517D01*
G01X5497966Y-6650420D01*
G01X5519605Y-6646792D01*
G01X5540377Y-6639727D01*
G01X5559740Y-6629409D01*
G01X5577189Y-6616108D01*
G01X5592269Y-6600171D01*
G01X5604586Y-6582013D01*
G01X5604586Y-6595100D01*
G01X5606339Y-6606167D01*
G01X5611426Y-6616151D01*
G01X5619349Y-6624074D01*
G01X5629333Y-6629161D01*
G01X5640400Y-6630914D01*
G01X5840400Y-6630914D01*
G01X5851467Y-6629161D01*
G01X5861451Y-6624074D01*
G01X5869374Y-6616151D01*
G01X5874461Y-6606167D01*
G01X5876214Y-6595100D01*
G01X5876214Y-6435100D01*
G01X5874461Y-6424033D01*
G01X5869374Y-6414049D01*
G01X5861451Y-6406126D01*
G01X5851467Y-6401039D01*
G01X5840400Y-6399286D01*
G01X5640400Y-6399286D01*
G01X5629333Y-6401039D01*
G01X5619349Y-6406126D01*
G01X5611426Y-6414049D01*
G01X5606339Y-6424033D01*
G01X5604586Y-6435100D01*
G01X5604586Y-6448187D01*
G01X5592269Y-6430029D01*
G01X5577189Y-6414092D01*
G01X5559740Y-6400791D01*
G01X5540377Y-6390473D01*
G01X5519605Y-6383408D01*
G01X5497966Y-6379780D01*
G01X5476025Y-6379683D01*
G01X5454355Y-6383121D01*
G01X5433522Y-6390003D01*
G01X5414068Y-6400150D01*
G01X5396503Y-6413297D01*
G01X5381283Y-6429101D01*
G01X5368807Y-6447149D01*
G01X5359400Y-6466971D01*
G01X5359400Y-6466971D01*
G01X5349244Y-6445869D01*
G01X5335613Y-6426825D01*
G01X5318913Y-6410406D01*
G01X5299642Y-6397100D01*
G01X5278370Y-6387303D01*
G01X5255732Y-6381305D01*
G01X5232400Y-6379286D01*
G01X5209068Y-6381305D01*
G01X5186430Y-6387303D01*
G01X5165158Y-6397100D01*
G01X5145887Y-6410406D01*
G01X5129187Y-6426825D01*
G01X5115556Y-6445869D01*
G01X5105400Y-6466971D01*
G01X5095244Y-6445869D01*
G01X5081613Y-6426825D01*
G01X5064913Y-6410406D01*
G01X5045642Y-6397100D01*
G01X5024370Y-6387303D01*
G01X5001732Y-6381305D01*
G01X4978400Y-6379286D01*
G01X4955068Y-6381305D01*
G01X4932430Y-6387303D01*
G01X4911158Y-6397100D01*
G01X4891887Y-6410406D01*
G01X4875187Y-6426825D01*
G01X4861556Y-6445869D01*
G01X4851400Y-6466971D01*
G01X4841244Y-6445869D01*
G01X4827613Y-6426825D01*
G01X4810913Y-6410406D01*
G01X4791642Y-6397100D01*
G01X4770370Y-6387303D01*
G01X4747732Y-6381305D01*
G01X4724400Y-6379286D01*
G01X4701068Y-6381305D01*
G01X4678430Y-6387303D01*
G01X4657158Y-6397100D01*
G01X4637887Y-6410406D01*
G01X4621187Y-6426825D01*
G01X4607556Y-6445869D01*
G01X4597400Y-6466971D01*
G01X4587244Y-6445869D01*
G01X4573613Y-6426825D01*
G01X4556913Y-6410406D01*
G01X4537642Y-6397100D01*
G01X4516370Y-6387303D01*
G01X4493732Y-6381305D01*
G01X4470400Y-6379286D01*
G01X4447068Y-6381305D01*
G01X4424430Y-6387303D01*
G01X4403158Y-6397100D01*
G01X4383887Y-6410406D01*
G01X4367187Y-6426825D01*
G01X4353556Y-6445869D01*
G01X4343400Y-6466971D01*
G01X4333244Y-6445869D01*
G01X4319613Y-6426825D01*
G01X4302913Y-6410406D01*
G01X4283642Y-6397100D01*
G01X4262370Y-6387303D01*
G01X4239732Y-6381305D01*
G01X4216400Y-6379286D01*
G01X4193068Y-6381305D01*
G01X4170430Y-6387303D01*
G01X4149158Y-6397100D01*
G01X4129887Y-6410406D01*
G01X4113187Y-6426825D01*
G01X4099556Y-6445869D01*
G01X4089400Y-6466971D01*
G01X4079873Y-6446942D01*
G01X4067213Y-6428731D01*
G01X4051757Y-6412823D01*
G01X4033919Y-6399642D01*
G01X4014173Y-6389541D01*
G01X3993046Y-6382789D01*
G01X3971102Y-6379565D01*
G01X3948925Y-6379956D01*
G01X3927109Y-6383952D01*
G01X3906233Y-6391445D01*
G01X3886855Y-6402235D01*
G01X3869493Y-6416036D01*
G01X3854608Y-6432479D01*
G01X3842597Y-6451126D01*
G01X3833782Y-6471478D01*
G01X3828397Y-6492994D01*
G01X3826586Y-6515100D01*
G01X-14986Y-6515100D01*
G01X-14986Y-5145519D01*
G01X3478783Y-5145519D01*
G01X3478783Y-5166891D01*
G01X3482710Y-5187899D01*
G01X3490430Y-5207828D01*
G01X3501681Y-5225999D01*
G01X3516079Y-5241793D01*
G01X3533134Y-5254672D01*
G01X3552266Y-5264198D01*
G01X3572822Y-5270047D01*
G01X3594103Y-5272019D01*
G01X3615383Y-5270047D01*
G01X3635939Y-5264198D01*
G01X3655071Y-5254672D01*
G01X3672126Y-5241793D01*
G01X3686524Y-5225999D01*
G01X3697775Y-5207828D01*
G01X3705495Y-5187899D01*
G01X3709422Y-5166891D01*
G01X3709422Y-5145519D01*
G01X5002783Y-5145519D01*
G01X5002783Y-5166891D01*
G01X5006710Y-5187899D01*
G01X5014430Y-5207828D01*
G01X5025681Y-5225999D01*
G01X5040079Y-5241793D01*
G01X5057134Y-5254672D01*
G01X5076266Y-5264198D01*
G01X5096822Y-5270047D01*
G01X5118103Y-5272019D01*
G01X5139383Y-5270047D01*
G01X5159939Y-5264198D01*
G01X5179071Y-5254672D01*
G01X5196126Y-5241793D01*
G01X5210524Y-5225999D01*
G01X5221775Y-5207828D01*
G01X5229495Y-5187899D01*
G01X5233422Y-5166891D01*
G01X5233422Y-5145519D01*
G01X5229495Y-5124511D01*
G01X5221775Y-5104582D01*
G01X5210524Y-5086412D01*
G01X5196126Y-5070618D01*
G01X5179402Y-5057988D01*
G01X5942305Y-5057988D01*
G01X5942305Y-5317988D01*
G01X5944157Y-5340342D01*
G01X5949663Y-5362087D01*
G01X5958674Y-5382628D01*
G01X5970942Y-5401406D01*
G01X5986134Y-5417909D01*
G01X6003835Y-5431687D01*
G01X6023563Y-5442362D01*
G01X6044778Y-5449646D01*
G01X6066903Y-5453338D01*
G01X6089334Y-5453338D01*
G01X6111459Y-5449646D01*
G01X6132674Y-5442362D01*
G01X6152402Y-5431687D01*
G01X6170103Y-5417909D01*
G01X6185295Y-5401406D01*
G01X6197563Y-5382628D01*
G01X6206573Y-5362087D01*
G01X6212080Y-5340342D01*
G01X6213932Y-5317988D01*
G01X6213932Y-5317988D01*
G01X6213932Y-5058014D01*
G01X6562268Y-5058014D01*
G01X6562268Y-5318013D01*
G01X6564120Y-5340367D01*
G01X6569627Y-5362112D01*
G01X6578637Y-5382653D01*
G01X6590905Y-5401432D01*
G01X6606097Y-5417935D01*
G01X6623798Y-5431712D01*
G01X6643526Y-5442388D01*
G01X6664741Y-5449671D01*
G01X6686866Y-5453363D01*
G01X6709297Y-5453363D01*
G01X6731422Y-5449671D01*
G01X6752637Y-5442388D01*
G01X6772365Y-5431712D01*
G01X6790066Y-5417935D01*
G01X6805258Y-5401432D01*
G01X6817526Y-5382653D01*
G01X6826537Y-5362112D01*
G01X6832043Y-5340367D01*
G01X6833895Y-5318013D01*
G01X6833895Y-5058014D01*
G01X6832043Y-5035660D01*
G01X6826537Y-5013915D01*
G01X6817526Y-4993374D01*
G01X6805258Y-4974595D01*
G01X6790066Y-4958092D01*
G01X6772365Y-4944315D01*
G01X6752637Y-4933639D01*
G01X6731422Y-4926356D01*
G01X6709297Y-4922664D01*
G01X6686866Y-4922664D01*
G01X6664741Y-4926356D01*
G01X6643526Y-4933639D01*
G01X6623798Y-4944315D01*
G01X6606097Y-4958092D01*
G01X6590905Y-4974595D01*
G01X6578637Y-4993374D01*
G01X6569627Y-5013915D01*
G01X6564120Y-5035660D01*
G01X6562268Y-5058014D01*
G01X6562268Y-5058014D01*
G01X6213932Y-5058014D01*
G01X6213932Y-5057988D01*
G01X6212080Y-5035634D01*
G01X6206573Y-5013890D01*
G01X6197563Y-4993348D01*
G01X6185295Y-4974570D01*
G01X6170103Y-4958067D01*
G01X6152402Y-4944290D01*
G01X6132674Y-4933614D01*
G01X6111459Y-4926330D01*
G01X6089334Y-4922638D01*
G01X6066903Y-4922638D01*
G01X6044778Y-4926330D01*
G01X6023563Y-4933614D01*
G01X6003835Y-4944290D01*
G01X5986134Y-4958067D01*
G01X5970942Y-4974570D01*
G01X5958674Y-4993348D01*
G01X5949663Y-5013890D01*
G01X5944157Y-5035634D01*
G01X5942305Y-5057988D01*
G01X5179402Y-5057988D01*
G01X5179071Y-5057738D01*
G01X5159939Y-5048212D01*
G01X5139383Y-5042363D01*
G01X5118103Y-5040391D01*
G01X5118103Y-5040391D01*
G01X5096822Y-5042363D01*
G01X5076266Y-5048212D01*
G01X5057134Y-5057738D01*
G01X5040079Y-5070618D01*
G01X5025681Y-5086412D01*
G01X5014430Y-5104582D01*
G01X5006710Y-5124511D01*
G01X5002783Y-5145519D01*
G01X3709422Y-5145519D01*
G01X3705495Y-5124511D01*
G01X3697775Y-5104582D01*
G01X3686524Y-5086412D01*
G01X3672126Y-5070618D01*
G01X3655071Y-5057738D01*
G01X3635939Y-5048212D01*
G01X3615383Y-5042363D01*
G01X3594103Y-5040391D01*
G01X3594103Y-5040391D01*
G01X3572822Y-5042363D01*
G01X3552266Y-5048212D01*
G01X3533134Y-5057738D01*
G01X3516079Y-5070618D01*
G01X3501681Y-5086412D01*
G01X3490430Y-5104582D01*
G01X3482710Y-5124511D01*
G01X3478783Y-5145519D01*
G01X-14986Y-5145519D01*
G01X-14986Y-4891519D01*
G01X3478783Y-4891519D01*
G01X3478783Y-4912891D01*
G01X3482710Y-4933899D01*
G01X3490430Y-4953828D01*
G01X3501681Y-4971999D01*
G01X3516079Y-4987793D01*
G01X3533134Y-5000672D01*
G01X3552266Y-5010198D01*
G01X3572822Y-5016047D01*
G01X3594103Y-5018019D01*
G01X3615383Y-5016047D01*
G01X3635939Y-5010198D01*
G01X3655071Y-5000672D01*
G01X3672126Y-4987793D01*
G01X3686524Y-4971999D01*
G01X3697775Y-4953828D01*
G01X3705495Y-4933899D01*
G01X3709422Y-4912891D01*
G01X3709422Y-4891519D01*
G01X5002783Y-4891519D01*
G01X5002783Y-4912891D01*
G01X5006710Y-4933899D01*
G01X5014430Y-4953828D01*
G01X5025681Y-4971999D01*
G01X5040079Y-4987793D01*
G01X5057134Y-5000672D01*
G01X5076266Y-5010198D01*
G01X5096822Y-5016047D01*
G01X5118103Y-5018019D01*
G01X5139383Y-5016047D01*
G01X5159939Y-5010198D01*
G01X5179071Y-5000672D01*
G01X5196126Y-4987793D01*
G01X5210524Y-4971999D01*
G01X5221775Y-4953828D01*
G01X5229495Y-4933899D01*
G01X5233422Y-4912891D01*
G01X5233422Y-4891519D01*
G01X5229495Y-4870511D01*
G01X5221775Y-4850582D01*
G01X5210524Y-4832412D01*
G01X5196126Y-4816618D01*
G01X5179071Y-4803738D01*
G01X5159939Y-4794212D01*
G01X5139383Y-4788363D01*
G01X5118103Y-4786391D01*
G01X5118103Y-4786391D01*
G01X5096822Y-4788363D01*
G01X5076266Y-4794212D01*
G01X5057134Y-4803738D01*
G01X5040079Y-4816618D01*
G01X5025681Y-4832412D01*
G01X5014430Y-4850582D01*
G01X5006710Y-4870511D01*
G01X5002783Y-4891519D01*
G01X3709422Y-4891519D01*
G01X3705495Y-4870511D01*
G01X3697775Y-4850582D01*
G01X3686524Y-4832412D01*
G01X3672126Y-4816618D01*
G01X3655071Y-4803738D01*
G01X3635939Y-4794212D01*
G01X3615383Y-4788363D01*
G01X3594103Y-4786391D01*
G01X3594103Y-4786391D01*
G01X3572822Y-4788363D01*
G01X3552266Y-4794212D01*
G01X3533134Y-4803738D01*
G01X3516079Y-4816618D01*
G01X3501681Y-4832412D01*
G01X3490430Y-4850582D01*
G01X3482710Y-4870511D01*
G01X3478783Y-4891519D01*
G01X-14986Y-4891519D01*
G01X-14986Y-4637519D01*
G01X3478783Y-4637519D01*
G01X3478783Y-4658891D01*
G01X3482710Y-4679899D01*
G01X3490430Y-4699828D01*
G01X3501681Y-4717999D01*
G01X3516079Y-4733793D01*
G01X3533134Y-4746672D01*
G01X3552266Y-4756198D01*
G01X3572822Y-4762047D01*
G01X3594103Y-4764019D01*
G01X3615383Y-4762047D01*
G01X3635939Y-4756198D01*
G01X3655071Y-4746672D01*
G01X3672126Y-4733793D01*
G01X3686524Y-4717999D01*
G01X3697775Y-4699828D01*
G01X3705495Y-4679899D01*
G01X3709422Y-4658891D01*
G01X3709422Y-4637519D01*
G01X5002783Y-4637519D01*
G01X5002783Y-4658891D01*
G01X5006710Y-4679899D01*
G01X5014430Y-4699828D01*
G01X5025681Y-4717999D01*
G01X5040079Y-4733793D01*
G01X5057134Y-4746672D01*
G01X5076266Y-4756198D01*
G01X5096822Y-4762047D01*
G01X5118103Y-4764019D01*
G01X5139383Y-4762047D01*
G01X5159939Y-4756198D01*
G01X5179071Y-4746672D01*
G01X5196126Y-4733793D01*
G01X5210524Y-4717999D01*
G01X5217476Y-4706771D01*
G01X6112743Y-4706771D01*
G01X6112743Y-4729202D01*
G01X6116435Y-4751327D01*
G01X6123718Y-4772542D01*
G01X6134394Y-4792270D01*
G01X6148171Y-4809971D01*
G01X6164674Y-4825163D01*
G01X6183452Y-4837431D01*
G01X6203994Y-4846442D01*
G01X6225738Y-4851948D01*
G01X6248093Y-4853800D01*
G01X6248093Y-4853800D01*
G01X6508092Y-4853800D01*
G01X6530446Y-4851948D01*
G01X6552191Y-4846442D01*
G01X6572732Y-4837431D01*
G01X6591511Y-4825163D01*
G01X6608014Y-4809971D01*
G01X6621791Y-4792270D01*
G01X6632467Y-4772542D01*
G01X6639750Y-4751327D01*
G01X6643442Y-4729202D01*
G01X6643442Y-4706771D01*
G01X6639750Y-4684646D01*
G01X6632467Y-4663431D01*
G01X6621791Y-4643703D01*
G01X6608014Y-4626002D01*
G01X6591511Y-4610810D01*
G01X6572732Y-4598542D01*
G01X6552191Y-4589531D01*
G01X6530446Y-4584025D01*
G01X6508092Y-4582173D01*
G01X6248093Y-4582173D01*
G01X6225738Y-4584025D01*
G01X6203994Y-4589531D01*
G01X6183452Y-4598542D01*
G01X6164674Y-4610810D01*
G01X6148171Y-4626002D01*
G01X6134394Y-4643703D01*
G01X6123718Y-4663431D01*
G01X6116435Y-4684646D01*
G01X6112743Y-4706771D01*
G01X5217476Y-4706771D01*
G01X5221775Y-4699828D01*
G01X5229495Y-4679899D01*
G01X5233422Y-4658891D01*
G01X5233422Y-4637519D01*
G01X5229495Y-4616511D01*
G01X5221775Y-4596582D01*
G01X5210524Y-4578412D01*
G01X5196126Y-4562618D01*
G01X5179071Y-4549738D01*
G01X5159939Y-4540212D01*
G01X5139383Y-4534363D01*
G01X5118103Y-4532391D01*
G01X5118103Y-4532391D01*
G01X5096822Y-4534363D01*
G01X5076266Y-4540212D01*
G01X5057134Y-4549738D01*
G01X5040079Y-4562618D01*
G01X5025681Y-4578412D01*
G01X5014430Y-4596582D01*
G01X5006710Y-4616511D01*
G01X5002783Y-4637519D01*
G01X3709422Y-4637519D01*
G01X3705495Y-4616511D01*
G01X3697775Y-4596582D01*
G01X3686524Y-4578412D01*
G01X3672126Y-4562618D01*
G01X3655071Y-4549738D01*
G01X3635939Y-4540212D01*
G01X3615383Y-4534363D01*
G01X3594103Y-4532391D01*
G01X3594103Y-4532391D01*
G01X3572822Y-4534363D01*
G01X3552266Y-4540212D01*
G01X3533134Y-4549738D01*
G01X3516079Y-4562618D01*
G01X3501681Y-4578412D01*
G01X3490430Y-4596582D01*
G01X3482710Y-4616511D01*
G01X3478783Y-4637519D01*
G01X-14986Y-4637519D01*
G01X-14986Y-4383519D01*
G01X3478783Y-4383519D01*
G01X3478783Y-4404891D01*
G01X3482710Y-4425899D01*
G01X3490430Y-4445828D01*
G01X3501681Y-4463999D01*
G01X3516079Y-4479793D01*
G01X3533134Y-4492672D01*
G01X3552266Y-4502198D01*
G01X3572822Y-4508047D01*
G01X3594103Y-4510019D01*
G01X3615383Y-4508047D01*
G01X3635939Y-4502198D01*
G01X3655071Y-4492672D01*
G01X3672126Y-4479793D01*
G01X3686524Y-4463999D01*
G01X3697775Y-4445828D01*
G01X3705495Y-4425899D01*
G01X3709422Y-4404891D01*
G01X3709422Y-4383519D01*
G01X5002783Y-4383519D01*
G01X5002783Y-4404891D01*
G01X5006710Y-4425899D01*
G01X5014430Y-4445828D01*
G01X5025681Y-4463999D01*
G01X5040079Y-4479793D01*
G01X5057134Y-4492672D01*
G01X5076266Y-4502198D01*
G01X5096822Y-4508047D01*
G01X5118103Y-4510019D01*
G01X5139383Y-4508047D01*
G01X5159939Y-4502198D01*
G01X5179071Y-4492672D01*
G01X5196126Y-4479793D01*
G01X5210524Y-4463999D01*
G01X5221775Y-4445828D01*
G01X5229495Y-4425899D01*
G01X5233422Y-4404891D01*
G01X5233422Y-4383519D01*
G01X5229495Y-4362511D01*
G01X5221775Y-4342582D01*
G01X5210524Y-4324412D01*
G01X5196126Y-4308618D01*
G01X5179071Y-4295738D01*
G01X5159939Y-4286212D01*
G01X5139383Y-4280363D01*
G01X5118103Y-4278391D01*
G01X5118103Y-4278391D01*
G01X5096822Y-4280363D01*
G01X5076266Y-4286212D01*
G01X5057134Y-4295738D01*
G01X5040079Y-4308618D01*
G01X5025681Y-4324412D01*
G01X5014430Y-4342582D01*
G01X5006710Y-4362511D01*
G01X5002783Y-4383519D01*
G01X3709422Y-4383519D01*
G01X3705495Y-4362511D01*
G01X3697775Y-4342582D01*
G01X3686524Y-4324412D01*
G01X3672126Y-4308618D01*
G01X3655071Y-4295738D01*
G01X3635939Y-4286212D01*
G01X3615383Y-4280363D01*
G01X3594103Y-4278391D01*
G01X3594103Y-4278391D01*
G01X3572822Y-4280363D01*
G01X3552266Y-4286212D01*
G01X3533134Y-4295738D01*
G01X3516079Y-4308618D01*
G01X3501681Y-4324412D01*
G01X3490430Y-4342582D01*
G01X3482710Y-4362511D01*
G01X3478783Y-4383519D01*
G01X-14986Y-4383519D01*
G01X-14986Y-4129519D01*
G01X3478783Y-4129519D01*
G01X3478783Y-4150891D01*
G01X3482710Y-4171899D01*
G01X3490430Y-4191828D01*
G01X3501681Y-4209999D01*
G01X3516079Y-4225793D01*
G01X3533134Y-4238672D01*
G01X3552266Y-4248198D01*
G01X3572822Y-4254047D01*
G01X3594103Y-4256019D01*
G01X3615383Y-4254047D01*
G01X3635939Y-4248198D01*
G01X3655071Y-4238672D01*
G01X3672126Y-4225793D01*
G01X3686524Y-4209999D01*
G01X3697775Y-4191828D01*
G01X3705495Y-4171899D01*
G01X3709422Y-4150891D01*
G01X3709422Y-4129519D01*
G01X5002783Y-4129519D01*
G01X5002783Y-4150891D01*
G01X5006710Y-4171899D01*
G01X5014430Y-4191828D01*
G01X5025681Y-4209999D01*
G01X5040079Y-4225793D01*
G01X5057134Y-4238672D01*
G01X5076266Y-4248198D01*
G01X5096822Y-4254047D01*
G01X5118103Y-4256019D01*
G01X5139383Y-4254047D01*
G01X5159939Y-4248198D01*
G01X5179071Y-4238672D01*
G01X5196126Y-4225793D01*
G01X5210524Y-4209999D01*
G01X5221775Y-4191828D01*
G01X5229495Y-4171899D01*
G01X5233422Y-4150891D01*
G01X5233422Y-4129519D01*
G01X5229495Y-4108511D01*
G01X5221775Y-4088582D01*
G01X5210524Y-4070412D01*
G01X5196126Y-4054618D01*
G01X5179071Y-4041738D01*
G01X5159939Y-4032212D01*
G01X5139383Y-4026363D01*
G01X5118103Y-4024391D01*
G01X5118103Y-4024391D01*
G01X5096822Y-4026363D01*
G01X5076266Y-4032212D01*
G01X5057134Y-4041738D01*
G01X5040079Y-4054618D01*
G01X5025681Y-4070412D01*
G01X5014430Y-4088582D01*
G01X5006710Y-4108511D01*
G01X5002783Y-4129519D01*
G01X3709422Y-4129519D01*
G01X3705495Y-4108511D01*
G01X3697775Y-4088582D01*
G01X3686524Y-4070412D01*
G01X3672126Y-4054618D01*
G01X3655071Y-4041738D01*
G01X3635939Y-4032212D01*
G01X3615383Y-4026363D01*
G01X3594103Y-4024391D01*
G01X3594103Y-4024391D01*
G01X3572822Y-4026363D01*
G01X3552266Y-4032212D01*
G01X3533134Y-4041738D01*
G01X3516079Y-4054618D01*
G01X3501681Y-4070412D01*
G01X3490430Y-4088582D01*
G01X3482710Y-4108511D01*
G01X3478783Y-4129519D01*
G01X-14986Y-4129519D01*
G01X-14986Y-3947414D01*
G01X2743200Y-3947414D01*
G01X2748407Y-3946019D01*
G01X2752219Y-3942207D01*
G01X2753614Y-3937000D01*
G01X2753614Y-3875519D01*
G01X3478783Y-3875519D01*
G01X3478783Y-3896891D01*
G01X3482710Y-3917899D01*
G01X3490430Y-3937828D01*
G01X3501681Y-3955999D01*
G01X3516079Y-3971793D01*
G01X3533134Y-3984672D01*
G01X3552266Y-3994198D01*
G01X3572822Y-4000047D01*
G01X3594103Y-4002019D01*
G01X3615383Y-4000047D01*
G01X3635939Y-3994198D01*
G01X3655071Y-3984672D01*
G01X3672126Y-3971793D01*
G01X3686524Y-3955999D01*
G01X3697775Y-3937828D01*
G01X3705495Y-3917899D01*
G01X3709422Y-3896891D01*
G01X3709422Y-3875519D01*
G01X5002783Y-3875519D01*
G01X5002783Y-3896891D01*
G01X5006710Y-3917899D01*
G01X5014430Y-3937828D01*
G01X5025681Y-3955999D01*
G01X5040079Y-3971793D01*
G01X5057134Y-3984672D01*
G01X5076266Y-3994198D01*
G01X5096822Y-4000047D01*
G01X5118103Y-4002019D01*
G01X5139383Y-4000047D01*
G01X5159939Y-3994198D01*
G01X5179071Y-3984672D01*
G01X5196126Y-3971793D01*
G01X5210524Y-3955999D01*
G01X5221775Y-3937828D01*
G01X5229495Y-3917899D01*
G01X5233422Y-3896891D01*
G01X5233422Y-3875519D01*
G01X5229495Y-3854511D01*
G01X5221775Y-3834582D01*
G01X5210524Y-3816412D01*
G01X5196126Y-3800618D01*
G01X5179071Y-3787738D01*
G01X5159939Y-3778212D01*
G01X5139383Y-3772363D01*
G01X5118103Y-3770391D01*
G01X5118103Y-3770391D01*
G01X5096822Y-3772363D01*
G01X5076266Y-3778212D01*
G01X5057134Y-3787738D01*
G01X5040079Y-3800618D01*
G01X5025681Y-3816412D01*
G01X5014430Y-3834582D01*
G01X5006710Y-3854511D01*
G01X5002783Y-3875519D01*
G01X3709422Y-3875519D01*
G01X3705495Y-3854511D01*
G01X3697775Y-3834582D01*
G01X3686524Y-3816412D01*
G01X3672126Y-3800618D01*
G01X3655071Y-3787738D01*
G01X3635939Y-3778212D01*
G01X3615383Y-3772363D01*
G01X3594103Y-3770391D01*
G01X3594103Y-3770391D01*
G01X3572822Y-3772363D01*
G01X3552266Y-3778212D01*
G01X3533134Y-3787738D01*
G01X3516079Y-3800618D01*
G01X3501681Y-3816412D01*
G01X3490430Y-3834582D01*
G01X3482710Y-3854511D01*
G01X3478783Y-3875519D01*
G01X2753614Y-3875519D01*
G01X2753614Y-3621519D01*
G01X3478783Y-3621519D01*
G01X3478783Y-3642891D01*
G01X3482710Y-3663899D01*
G01X3490430Y-3683828D01*
G01X3501681Y-3701999D01*
G01X3516079Y-3717793D01*
G01X3533134Y-3730672D01*
G01X3552266Y-3740198D01*
G01X3572822Y-3746047D01*
G01X3594103Y-3748019D01*
G01X3615383Y-3746047D01*
G01X3635939Y-3740198D01*
G01X3655071Y-3730672D01*
G01X3672126Y-3717793D01*
G01X3686524Y-3701999D01*
G01X3697775Y-3683828D01*
G01X3705495Y-3663899D01*
G01X3709422Y-3642891D01*
G01X3709422Y-3621519D01*
G01X5002783Y-3621519D01*
G01X5002783Y-3642891D01*
G01X5006710Y-3663899D01*
G01X5014430Y-3683828D01*
G01X5025681Y-3701999D01*
G01X5040079Y-3717793D01*
G01X5057134Y-3730672D01*
G01X5076266Y-3740198D01*
G01X5096822Y-3746047D01*
G01X5118103Y-3748019D01*
G01X5139383Y-3746047D01*
G01X5159939Y-3740198D01*
G01X5179071Y-3730672D01*
G01X5196126Y-3717793D01*
G01X5210524Y-3701999D01*
G01X5221775Y-3683828D01*
G01X5229495Y-3663899D01*
G01X5233422Y-3642891D01*
G01X5233422Y-3621519D01*
G01X5229495Y-3600511D01*
G01X5221775Y-3580582D01*
G01X5210524Y-3562412D01*
G01X5196126Y-3546618D01*
G01X5179071Y-3533738D01*
G01X5159939Y-3524212D01*
G01X5139383Y-3518363D01*
G01X5118103Y-3516391D01*
G01X5118103Y-3516391D01*
G01X5096822Y-3518363D01*
G01X5076266Y-3524212D01*
G01X5057134Y-3533738D01*
G01X5040079Y-3546618D01*
G01X5025681Y-3562412D01*
G01X5014430Y-3580582D01*
G01X5006710Y-3600511D01*
G01X5002783Y-3621519D01*
G01X3709422Y-3621519D01*
G01X3705495Y-3600511D01*
G01X3697775Y-3580582D01*
G01X3686524Y-3562412D01*
G01X3672126Y-3546618D01*
G01X3655071Y-3533738D01*
G01X3635939Y-3524212D01*
G01X3615383Y-3518363D01*
G01X3594103Y-3516391D01*
G01X3594103Y-3516391D01*
G01X3572822Y-3518363D01*
G01X3552266Y-3524212D01*
G01X3533134Y-3533738D01*
G01X3516079Y-3546618D01*
G01X3501681Y-3562412D01*
G01X3490430Y-3580582D01*
G01X3482710Y-3600511D01*
G01X3478783Y-3621519D01*
G01X2753614Y-3621519D01*
G01X2753614Y-3367519D01*
G01X3478783Y-3367519D01*
G01X3478783Y-3388891D01*
G01X3482710Y-3409899D01*
G01X3490430Y-3429828D01*
G01X3501681Y-3447999D01*
G01X3516079Y-3463793D01*
G01X3533134Y-3476672D01*
G01X3552266Y-3486198D01*
G01X3572822Y-3492047D01*
G01X3594103Y-3494019D01*
G01X3615383Y-3492047D01*
G01X3635939Y-3486198D01*
G01X3655071Y-3476672D01*
G01X3672126Y-3463793D01*
G01X3686524Y-3447999D01*
G01X3697775Y-3429828D01*
G01X3705495Y-3409899D01*
G01X3709422Y-3388891D01*
G01X3709422Y-3367519D01*
G01X5002783Y-3367519D01*
G01X5002783Y-3388891D01*
G01X5006710Y-3409899D01*
G01X5014430Y-3429828D01*
G01X5025681Y-3447999D01*
G01X5040079Y-3463793D01*
G01X5057134Y-3476672D01*
G01X5076266Y-3486198D01*
G01X5096822Y-3492047D01*
G01X5118103Y-3494019D01*
G01X5139383Y-3492047D01*
G01X5159939Y-3486198D01*
G01X5179071Y-3476672D01*
G01X5196126Y-3463793D01*
G01X5210524Y-3447999D01*
G01X5221775Y-3429828D01*
G01X5229495Y-3409899D01*
G01X5233422Y-3388891D01*
G01X5233422Y-3367519D01*
G01X5229495Y-3346511D01*
G01X5221775Y-3326582D01*
G01X5210524Y-3308412D01*
G01X5196126Y-3292618D01*
G01X5179071Y-3279738D01*
G01X5159939Y-3270212D01*
G01X5139383Y-3264363D01*
G01X5118103Y-3262391D01*
G01X5118103Y-3262391D01*
G01X5096822Y-3264363D01*
G01X5076266Y-3270212D01*
G01X5057134Y-3279738D01*
G01X5040079Y-3292618D01*
G01X5025681Y-3308412D01*
G01X5014430Y-3326582D01*
G01X5006710Y-3346511D01*
G01X5002783Y-3367519D01*
G01X3709422Y-3367519D01*
G01X3705495Y-3346511D01*
G01X3697775Y-3326582D01*
G01X3686524Y-3308412D01*
G01X3672126Y-3292618D01*
G01X3655071Y-3279738D01*
G01X3635939Y-3270212D01*
G01X3615383Y-3264363D01*
G01X3594103Y-3262391D01*
G01X3594103Y-3262391D01*
G01X3572822Y-3264363D01*
G01X3552266Y-3270212D01*
G01X3533134Y-3279738D01*
G01X3516079Y-3292618D01*
G01X3501681Y-3308412D01*
G01X3490430Y-3326582D01*
G01X3482710Y-3346511D01*
G01X3478783Y-3367519D01*
G01X2753614Y-3367519D01*
G01X2753614Y-3113519D01*
G01X3478783Y-3113519D01*
G01X3478783Y-3134891D01*
G01X3482710Y-3155899D01*
G01X3490430Y-3175828D01*
G01X3501681Y-3193999D01*
G01X3516079Y-3209793D01*
G01X3533134Y-3222672D01*
G01X3552266Y-3232198D01*
G01X3572822Y-3238047D01*
G01X3594103Y-3240019D01*
G01X3615383Y-3238047D01*
G01X3635939Y-3232198D01*
G01X3655071Y-3222672D01*
G01X3672126Y-3209793D01*
G01X3686524Y-3193999D01*
G01X3697775Y-3175828D01*
G01X3705495Y-3155899D01*
G01X3709422Y-3134891D01*
G01X3709422Y-3113519D01*
G01X3709422Y-3113519D01*
G01X5002783Y-3113519D01*
G01X5002783Y-3134891D01*
G01X5006710Y-3155899D01*
G01X5014430Y-3175828D01*
G01X5025681Y-3193999D01*
G01X5040079Y-3209793D01*
G01X5057134Y-3222672D01*
G01X5076266Y-3232198D01*
G01X5096822Y-3238047D01*
G01X5118103Y-3240019D01*
G01X5139383Y-3238047D01*
G01X5159939Y-3232198D01*
G01X5179071Y-3222672D01*
G01X5196126Y-3209793D01*
G01X5210524Y-3193999D01*
G01X5221775Y-3175828D01*
G01X5229495Y-3155899D01*
G01X5233422Y-3134891D01*
G01X5233422Y-3113519D01*
G01X5229495Y-3092511D01*
G01X5221775Y-3072582D01*
G01X5210524Y-3054412D01*
G01X5196126Y-3038618D01*
G01X5179071Y-3025738D01*
G01X5159939Y-3016212D01*
G01X5139383Y-3010363D01*
G01X5118103Y-3008391D01*
G01X5118103Y-3008391D01*
G01X5096822Y-3010363D01*
G01X5076266Y-3016212D01*
G01X5057134Y-3025738D01*
G01X5040079Y-3038618D01*
G01X5025681Y-3054412D01*
G01X5014430Y-3072582D01*
G01X5006710Y-3092511D01*
G01X5002783Y-3113519D01*
G01X3709422Y-3113519D01*
G01X3705495Y-3092511D01*
G01X3697775Y-3072582D01*
G01X3686524Y-3054412D01*
G01X3672126Y-3038618D01*
G01X3655071Y-3025738D01*
G01X3635939Y-3016212D01*
G01X3615383Y-3010363D01*
G01X3594103Y-3008391D01*
G01X3594103Y-3008391D01*
G01X3572822Y-3010363D01*
G01X3552266Y-3016212D01*
G01X3533134Y-3025738D01*
G01X3516079Y-3038618D01*
G01X3501681Y-3054412D01*
G01X3490430Y-3072582D01*
G01X3482710Y-3092511D01*
G01X3478783Y-3113519D01*
G01X2753614Y-3113519D01*
G01X2753614Y-2859519D01*
G01X3478783Y-2859519D01*
G01X3478783Y-2880891D01*
G01X3482710Y-2901899D01*
G01X3490430Y-2921828D01*
G01X3501681Y-2939999D01*
G01X3516079Y-2955793D01*
G01X3533134Y-2968672D01*
G01X3552266Y-2978198D01*
G01X3572822Y-2984047D01*
G01X3594103Y-2986019D01*
G01X3615383Y-2984047D01*
G01X3635939Y-2978198D01*
G01X3655071Y-2968672D01*
G01X3672126Y-2955793D01*
G01X3686524Y-2939999D01*
G01X3697775Y-2921828D01*
G01X3705495Y-2901899D01*
G01X3709422Y-2880891D01*
G01X3709422Y-2859519D01*
G01X3709422Y-2859519D01*
G01X5002783Y-2859519D01*
G01X5002783Y-2880891D01*
G01X5006710Y-2901899D01*
G01X5014430Y-2921828D01*
G01X5025681Y-2939999D01*
G01X5040079Y-2955793D01*
G01X5057134Y-2968672D01*
G01X5076266Y-2978198D01*
G01X5096822Y-2984047D01*
G01X5118103Y-2986019D01*
G01X5139383Y-2984047D01*
G01X5159939Y-2978198D01*
G01X5179071Y-2968672D01*
G01X5196126Y-2955793D01*
G01X5210524Y-2939999D01*
G01X5221775Y-2921828D01*
G01X5229495Y-2901899D01*
G01X5233422Y-2880891D01*
G01X5233422Y-2859519D01*
G01X5229495Y-2838511D01*
G01X5221775Y-2818582D01*
G01X5210524Y-2800412D01*
G01X5196126Y-2784618D01*
G01X5179071Y-2771738D01*
G01X5159939Y-2762212D01*
G01X5139383Y-2756363D01*
G01X5118103Y-2754391D01*
G01X5118103Y-2754391D01*
G01X5096822Y-2756363D01*
G01X5076266Y-2762212D01*
G01X5057134Y-2771738D01*
G01X5040079Y-2784618D01*
G01X5025681Y-2800412D01*
G01X5014430Y-2818582D01*
G01X5006710Y-2838511D01*
G01X5002783Y-2859519D01*
G01X3709422Y-2859519D01*
G01X3705495Y-2838511D01*
G01X3697775Y-2818582D01*
G01X3686524Y-2800412D01*
G01X3672126Y-2784618D01*
G01X3655071Y-2771738D01*
G01X3635939Y-2762212D01*
G01X3615383Y-2756363D01*
G01X3594103Y-2754391D01*
G01X3594103Y-2754391D01*
G01X3572822Y-2756363D01*
G01X3552266Y-2762212D01*
G01X3533134Y-2771738D01*
G01X3516079Y-2784618D01*
G01X3501681Y-2800412D01*
G01X3490430Y-2818582D01*
G01X3482710Y-2838511D01*
G01X3478783Y-2859519D01*
G01X2753614Y-2859519D01*
G01X2753614Y-2605519D01*
G01X3478783Y-2605519D01*
G01X3478783Y-2626891D01*
G01X3482710Y-2647899D01*
G01X3490430Y-2667828D01*
G01X3501681Y-2685999D01*
G01X3516079Y-2701793D01*
G01X3533134Y-2714672D01*
G01X3552266Y-2724198D01*
G01X3572822Y-2730047D01*
G01X3594103Y-2732019D01*
G01X3615383Y-2730047D01*
G01X3635939Y-2724198D01*
G01X3655071Y-2714672D01*
G01X3672126Y-2701793D01*
G01X3686524Y-2685999D01*
G01X3697775Y-2667828D01*
G01X3705495Y-2647899D01*
G01X3709422Y-2626891D01*
G01X3709422Y-2605519D01*
G01X3709422Y-2605519D01*
G01X5002783Y-2605519D01*
G01X5002783Y-2626891D01*
G01X5006710Y-2647899D01*
G01X5014430Y-2667828D01*
G01X5025681Y-2685999D01*
G01X5040079Y-2701793D01*
G01X5057134Y-2714672D01*
G01X5076266Y-2724198D01*
G01X5096822Y-2730047D01*
G01X5118103Y-2732019D01*
G01X5139383Y-2730047D01*
G01X5159939Y-2724198D01*
G01X5179071Y-2714672D01*
G01X5196126Y-2701793D01*
G01X5204688Y-2692400D01*
G01X6326789Y-2692400D01*
G01X6328701Y-2714247D01*
G01X6334377Y-2735431D01*
G01X6343645Y-2755307D01*
G01X6356224Y-2773272D01*
G01X6371732Y-2788779D01*
G01X6389696Y-2801358D01*
G01X6409572Y-2810626D01*
G01X6430756Y-2816302D01*
G01X6452603Y-2818214D01*
G01X6474451Y-2816302D01*
G01X6495634Y-2810626D01*
G01X6515510Y-2801358D01*
G01X6533475Y-2788779D01*
G01X6548982Y-2773272D01*
G01X6561561Y-2755307D01*
G01X6570830Y-2735431D01*
G01X6576506Y-2714247D01*
G01X6578417Y-2692400D01*
G01X7086783Y-2692400D01*
G01X7088694Y-2714247D01*
G01X7094370Y-2735431D01*
G01X7103639Y-2755307D01*
G01X7116218Y-2773272D01*
G01X7131725Y-2788779D01*
G01X7149690Y-2801358D01*
G01X7169566Y-2810626D01*
G01X7190749Y-2816302D01*
G01X7212597Y-2818214D01*
G01X7234444Y-2816302D01*
G01X7255628Y-2810626D01*
G01X7275504Y-2801358D01*
G01X7293468Y-2788779D01*
G01X7308976Y-2773272D01*
G01X7321555Y-2755307D01*
G01X7330823Y-2735431D01*
G01X7336499Y-2714247D01*
G01X7338411Y-2692400D01*
G01X7336499Y-2670553D01*
G01X7330823Y-2649369D01*
G01X7321555Y-2629493D01*
G01X7308976Y-2611528D01*
G01X7293468Y-2596021D01*
G01X7275504Y-2583442D01*
G01X7255628Y-2574174D01*
G01X7234444Y-2568498D01*
G01X7212597Y-2566586D01*
G01X7190749Y-2568498D01*
G01X7169566Y-2574174D01*
G01X7149690Y-2583442D01*
G01X7131725Y-2596021D01*
G01X7116218Y-2611528D01*
G01X7103639Y-2629493D01*
G01X7094370Y-2649369D01*
G01X7088694Y-2670553D01*
G01X7086783Y-2692400D01*
G01X7086783Y-2692400D01*
G01X6578417Y-2692400D01*
G01X6576506Y-2670553D01*
G01X6570830Y-2649369D01*
G01X6561561Y-2629493D01*
G01X6548982Y-2611528D01*
G01X6533475Y-2596021D01*
G01X6515510Y-2583442D01*
G01X6495634Y-2574174D01*
G01X6474451Y-2568498D01*
G01X6452603Y-2566586D01*
G01X6430756Y-2568498D01*
G01X6409572Y-2574174D01*
G01X6389696Y-2583442D01*
G01X6371732Y-2596021D01*
G01X6356224Y-2611528D01*
G01X6343645Y-2629493D01*
G01X6334377Y-2649369D01*
G01X6328701Y-2670553D01*
G01X6326789Y-2692400D01*
G01X6326789Y-2692400D01*
G01X5204688Y-2692400D01*
G01X5210524Y-2685999D01*
G01X5221775Y-2667828D01*
G01X5229495Y-2647899D01*
G01X5233422Y-2626891D01*
G01X5233422Y-2605519D01*
G01X5229495Y-2584511D01*
G01X5221775Y-2564582D01*
G01X5210524Y-2546412D01*
G01X5196126Y-2530618D01*
G01X5179071Y-2517738D01*
G01X5159939Y-2508212D01*
G01X5139383Y-2502363D01*
G01X5118103Y-2500391D01*
G01X5118103Y-2500391D01*
G01X5096822Y-2502363D01*
G01X5076266Y-2508212D01*
G01X5057134Y-2517738D01*
G01X5040079Y-2530618D01*
G01X5025681Y-2546412D01*
G01X5014430Y-2564582D01*
G01X5006710Y-2584511D01*
G01X5002783Y-2605519D01*
G01X3709422Y-2605519D01*
G01X3705495Y-2584511D01*
G01X3697775Y-2564582D01*
G01X3686524Y-2546412D01*
G01X3672126Y-2530618D01*
G01X3655071Y-2517738D01*
G01X3635939Y-2508212D01*
G01X3615383Y-2502363D01*
G01X3594103Y-2500391D01*
G01X3594103Y-2500391D01*
G01X3572822Y-2502363D01*
G01X3552266Y-2508212D01*
G01X3533134Y-2517738D01*
G01X3516079Y-2530618D01*
G01X3501681Y-2546412D01*
G01X3490430Y-2564582D01*
G01X3482710Y-2584511D01*
G01X3478783Y-2605519D01*
G01X2753614Y-2605519D01*
G01X2753614Y-2351519D01*
G01X3478783Y-2351519D01*
G01X3478783Y-2372891D01*
G01X3482710Y-2393899D01*
G01X3490430Y-2413828D01*
G01X3501681Y-2431999D01*
G01X3516079Y-2447793D01*
G01X3533134Y-2460672D01*
G01X3552266Y-2470198D01*
G01X3572822Y-2476047D01*
G01X3594103Y-2478019D01*
G01X3615383Y-2476047D01*
G01X3635939Y-2470198D01*
G01X3655071Y-2460672D01*
G01X3672126Y-2447793D01*
G01X3686524Y-2431999D01*
G01X3697775Y-2413828D01*
G01X3705495Y-2393899D01*
G01X3709422Y-2372891D01*
G01X3709422Y-2351519D01*
G01X3709422Y-2351519D01*
G01X5002783Y-2351519D01*
G01X5002783Y-2372891D01*
G01X5006710Y-2393899D01*
G01X5014430Y-2413828D01*
G01X5025681Y-2431999D01*
G01X5040079Y-2447793D01*
G01X5057134Y-2460672D01*
G01X5076266Y-2470198D01*
G01X5096822Y-2476047D01*
G01X5118103Y-2478019D01*
G01X5139383Y-2476047D01*
G01X5159939Y-2470198D01*
G01X5179071Y-2460672D01*
G01X5196126Y-2447793D01*
G01X5210524Y-2431999D01*
G01X5221775Y-2413828D01*
G01X5229495Y-2393899D01*
G01X5233422Y-2372891D01*
G01X5233422Y-2351519D01*
G01X5229495Y-2330511D01*
G01X5221775Y-2310582D01*
G01X5210524Y-2292412D01*
G01X5196126Y-2276618D01*
G01X5179071Y-2263738D01*
G01X5159939Y-2254212D01*
G01X5139383Y-2248363D01*
G01X5118103Y-2246391D01*
G01X5118103Y-2246391D01*
G01X5096822Y-2248363D01*
G01X5076266Y-2254212D01*
G01X5057134Y-2263738D01*
G01X5040079Y-2276618D01*
G01X5025681Y-2292412D01*
G01X5014430Y-2310582D01*
G01X5006710Y-2330511D01*
G01X5002783Y-2351519D01*
G01X3709422Y-2351519D01*
G01X3705495Y-2330511D01*
G01X3697775Y-2310582D01*
G01X3686524Y-2292412D01*
G01X3672126Y-2276618D01*
G01X3655071Y-2263738D01*
G01X3635939Y-2254212D01*
G01X3615383Y-2248363D01*
G01X3594103Y-2246391D01*
G01X3594103Y-2246391D01*
G01X3572822Y-2248363D01*
G01X3552266Y-2254212D01*
G01X3533134Y-2263738D01*
G01X3516079Y-2276618D01*
G01X3501681Y-2292412D01*
G01X3490430Y-2310582D01*
G01X3482710Y-2330511D01*
G01X3478783Y-2351519D01*
G01X2753614Y-2351519D01*
G01X2753614Y-2097519D01*
G01X3478783Y-2097519D01*
G01X3478783Y-2118891D01*
G01X3482710Y-2139899D01*
G01X3490430Y-2159828D01*
G01X3501681Y-2177999D01*
G01X3516079Y-2193793D01*
G01X3533134Y-2206672D01*
G01X3552266Y-2216198D01*
G01X3572822Y-2222047D01*
G01X3594103Y-2224019D01*
G01X3615383Y-2222047D01*
G01X3635939Y-2216198D01*
G01X3655071Y-2206672D01*
G01X3672126Y-2193793D01*
G01X3686524Y-2177999D01*
G01X3697775Y-2159828D01*
G01X3705495Y-2139899D01*
G01X3709422Y-2118891D01*
G01X3709422Y-2097519D01*
G01X3709422Y-2097519D01*
G01X5002783Y-2097519D01*
G01X5002783Y-2118891D01*
G01X5006710Y-2139899D01*
G01X5014430Y-2159828D01*
G01X5025681Y-2177999D01*
G01X5040079Y-2193793D01*
G01X5057134Y-2206672D01*
G01X5076266Y-2216198D01*
G01X5096822Y-2222047D01*
G01X5118103Y-2224019D01*
G01X5139383Y-2222047D01*
G01X5159939Y-2216198D01*
G01X5179071Y-2206672D01*
G01X5196126Y-2193793D01*
G01X5210524Y-2177999D01*
G01X5221775Y-2159828D01*
G01X5229495Y-2139899D01*
G01X5233422Y-2118891D01*
G01X5233422Y-2097519D01*
G01X5229495Y-2076511D01*
G01X5221775Y-2056582D01*
G01X5210524Y-2038412D01*
G01X5196126Y-2022618D01*
G01X5179071Y-2009738D01*
G01X5159939Y-2000212D01*
G01X5139383Y-1994363D01*
G01X5118103Y-1992391D01*
G01X5118103Y-1992391D01*
G01X5096822Y-1994363D01*
G01X5076266Y-2000212D01*
G01X5057134Y-2009738D01*
G01X5040079Y-2022618D01*
G01X5025681Y-2038412D01*
G01X5014430Y-2056582D01*
G01X5006710Y-2076511D01*
G01X5002783Y-2097519D01*
G01X3709422Y-2097519D01*
G01X3705495Y-2076511D01*
G01X3697775Y-2056582D01*
G01X3686524Y-2038412D01*
G01X3672126Y-2022618D01*
G01X3655071Y-2009738D01*
G01X3635939Y-2000212D01*
G01X3615383Y-1994363D01*
G01X3594103Y-1992391D01*
G01X3594103Y-1992391D01*
G01X3572822Y-1994363D01*
G01X3552266Y-2000212D01*
G01X3533134Y-2009738D01*
G01X3516079Y-2022618D01*
G01X3501681Y-2038412D01*
G01X3490430Y-2056582D01*
G01X3482710Y-2076511D01*
G01X3478783Y-2097519D01*
G01X2753614Y-2097519D01*
G01X2753614Y-1843519D01*
G01X3478783Y-1843519D01*
G01X3478783Y-1864891D01*
G01X3482710Y-1885899D01*
G01X3490430Y-1905828D01*
G01X3501681Y-1923999D01*
G01X3516079Y-1939793D01*
G01X3533134Y-1952672D01*
G01X3552266Y-1962198D01*
G01X3572822Y-1968047D01*
G01X3594103Y-1970019D01*
G01X3615383Y-1968047D01*
G01X3635939Y-1962198D01*
G01X3655071Y-1952672D01*
G01X3672126Y-1939793D01*
G01X3686524Y-1923999D01*
G01X3697775Y-1905828D01*
G01X3705495Y-1885899D01*
G01X3709422Y-1864891D01*
G01X3709422Y-1843519D01*
G01X3709422Y-1843519D01*
G01X5002783Y-1843519D01*
G01X5002783Y-1864891D01*
G01X5006710Y-1885899D01*
G01X5014430Y-1905828D01*
G01X5025681Y-1923999D01*
G01X5040079Y-1939793D01*
G01X5057134Y-1952672D01*
G01X5076266Y-1962198D01*
G01X5096822Y-1968047D01*
G01X5118103Y-1970019D01*
G01X5139383Y-1968047D01*
G01X5159939Y-1962198D01*
G01X5179071Y-1952672D01*
G01X5196126Y-1939793D01*
G01X5210524Y-1923999D01*
G01X5221775Y-1905828D01*
G01X5229495Y-1885899D01*
G01X5233422Y-1864891D01*
G01X5233422Y-1843519D01*
G01X5229495Y-1822511D01*
G01X5221775Y-1802582D01*
G01X5210524Y-1784412D01*
G01X5196126Y-1768618D01*
G01X5179071Y-1755738D01*
G01X5159939Y-1746212D01*
G01X5139383Y-1740363D01*
G01X5118103Y-1738391D01*
G01X5118103Y-1738391D01*
G01X5096822Y-1740363D01*
G01X5076266Y-1746212D01*
G01X5057134Y-1755738D01*
G01X5040079Y-1768618D01*
G01X5025681Y-1784412D01*
G01X5014430Y-1802582D01*
G01X5006710Y-1822511D01*
G01X5002783Y-1843519D01*
G01X3709422Y-1843519D01*
G01X3705495Y-1822511D01*
G01X3697775Y-1802582D01*
G01X3686524Y-1784412D01*
G01X3672126Y-1768618D01*
G01X3655071Y-1755738D01*
G01X3635939Y-1746212D01*
G01X3615383Y-1740363D01*
G01X3594103Y-1738391D01*
G01X3594103Y-1738391D01*
G01X3572822Y-1740363D01*
G01X3552266Y-1746212D01*
G01X3533134Y-1755738D01*
G01X3516079Y-1768618D01*
G01X3501681Y-1784412D01*
G01X3490430Y-1802582D01*
G01X3482710Y-1822511D01*
G01X3478783Y-1843519D01*
G01X2753614Y-1843519D01*
G01X2753614Y-1589519D01*
G01X3478783Y-1589519D01*
G01X3478783Y-1610891D01*
G01X3482710Y-1631899D01*
G01X3490430Y-1651828D01*
G01X3501681Y-1669999D01*
G01X3516079Y-1685793D01*
G01X3533134Y-1698672D01*
G01X3552266Y-1708198D01*
G01X3572822Y-1714047D01*
G01X3594103Y-1716019D01*
G01X3615383Y-1714047D01*
G01X3635939Y-1708198D01*
G01X3655071Y-1698672D01*
G01X3672126Y-1685793D01*
G01X3686524Y-1669999D01*
G01X3697775Y-1651828D01*
G01X3705495Y-1631899D01*
G01X3709422Y-1610891D01*
G01X3709422Y-1589519D01*
G01X3709422Y-1589519D01*
G01X5002783Y-1589519D01*
G01X5002783Y-1610891D01*
G01X5006710Y-1631899D01*
G01X5014430Y-1651828D01*
G01X5025681Y-1669999D01*
G01X5040079Y-1685793D01*
G01X5057134Y-1698672D01*
G01X5076266Y-1708198D01*
G01X5096822Y-1714047D01*
G01X5118103Y-1716019D01*
G01X5139383Y-1714047D01*
G01X5159939Y-1708198D01*
G01X5179071Y-1698672D01*
G01X5196126Y-1685793D01*
G01X5210524Y-1669999D01*
G01X5221775Y-1651828D01*
G01X5229495Y-1631899D01*
G01X5233422Y-1610891D01*
G01X5233422Y-1589519D01*
G01X5229495Y-1568511D01*
G01X5221775Y-1548582D01*
G01X5210524Y-1530412D01*
G01X5196126Y-1514618D01*
G01X5179071Y-1501738D01*
G01X5159939Y-1492212D01*
G01X5139383Y-1486363D01*
G01X5118103Y-1484391D01*
G01X5118103Y-1484391D01*
G01X5096822Y-1486363D01*
G01X5076266Y-1492212D01*
G01X5057134Y-1501738D01*
G01X5040079Y-1514618D01*
G01X5025681Y-1530412D01*
G01X5014430Y-1548582D01*
G01X5006710Y-1568511D01*
G01X5002783Y-1589519D01*
G01X3709422Y-1589519D01*
G01X3705495Y-1568511D01*
G01X3697775Y-1548582D01*
G01X3686524Y-1530412D01*
G01X3672126Y-1514618D01*
G01X3655071Y-1501738D01*
G01X3635939Y-1492212D01*
G01X3615383Y-1486363D01*
G01X3594103Y-1484391D01*
G01X3594103Y-1484391D01*
G01X3572822Y-1486363D01*
G01X3552266Y-1492212D01*
G01X3533134Y-1501738D01*
G01X3516079Y-1514618D01*
G01X3501681Y-1530412D01*
G01X3490430Y-1548582D01*
G01X3482710Y-1568511D01*
G01X3478783Y-1589519D01*
G01X2753614Y-1589519D01*
G01X2753614Y-1335519D01*
G01X3478783Y-1335519D01*
G01X3478783Y-1356891D01*
G01X3482710Y-1377899D01*
G01X3490430Y-1397828D01*
G01X3501681Y-1415999D01*
G01X3516079Y-1431793D01*
G01X3533134Y-1444672D01*
G01X3552266Y-1454198D01*
G01X3572822Y-1460047D01*
G01X3594103Y-1462019D01*
G01X3615383Y-1460047D01*
G01X3635939Y-1454198D01*
G01X3655071Y-1444672D01*
G01X3672126Y-1431793D01*
G01X3686524Y-1415999D01*
G01X3697775Y-1397828D01*
G01X3705495Y-1377899D01*
G01X3709422Y-1356891D01*
G01X3709422Y-1335519D01*
G01X3709422Y-1335519D01*
G01X5002783Y-1335519D01*
G01X5002783Y-1356891D01*
G01X5006710Y-1377899D01*
G01X5014430Y-1397828D01*
G01X5025681Y-1415999D01*
G01X5040079Y-1431793D01*
G01X5057134Y-1444672D01*
G01X5076266Y-1454198D01*
G01X5096822Y-1460047D01*
G01X5118103Y-1462019D01*
G01X5139383Y-1460047D01*
G01X5159939Y-1454198D01*
G01X5179071Y-1444672D01*
G01X5196126Y-1431793D01*
G01X5210524Y-1415999D01*
G01X5221775Y-1397828D01*
G01X5229495Y-1377899D01*
G01X5233422Y-1356891D01*
G01X5233422Y-1335519D01*
G01X5229495Y-1314511D01*
G01X5221775Y-1294582D01*
G01X5210524Y-1276412D01*
G01X5196126Y-1260618D01*
G01X5179071Y-1247738D01*
G01X5159939Y-1238212D01*
G01X5139383Y-1232363D01*
G01X5118103Y-1230391D01*
G01X5118103Y-1230391D01*
G01X5096822Y-1232363D01*
G01X5076266Y-1238212D01*
G01X5057134Y-1247738D01*
G01X5040079Y-1260618D01*
G01X5025681Y-1276412D01*
G01X5014430Y-1294582D01*
G01X5006710Y-1314511D01*
G01X5002783Y-1335519D01*
G01X3709422Y-1335519D01*
G01X3705495Y-1314511D01*
G01X3697775Y-1294582D01*
G01X3686524Y-1276412D01*
G01X3672126Y-1260618D01*
G01X3655071Y-1247738D01*
G01X3635939Y-1238212D01*
G01X3615383Y-1232363D01*
G01X3594103Y-1230391D01*
G01X3594103Y-1230391D01*
G01X3572822Y-1232363D01*
G01X3552266Y-1238212D01*
G01X3533134Y-1247738D01*
G01X3516079Y-1260618D01*
G01X3501681Y-1276412D01*
G01X3490430Y-1294582D01*
G01X3482710Y-1314511D01*
G01X3478783Y-1335519D01*
G01X2753614Y-1335519D01*
G01X2753614Y-1233038D01*
G01X2752219Y-1227831D01*
G01X2748407Y-1224019D01*
G01X2743200Y-1222624D01*
G37*
G54D10*
G01X2743200Y-1222624D02*
G01X-14986Y-1222624D01*
G01X-14986Y-112014D01*
G01X7797607Y-112014D01*
G01X7797607Y-7584186D01*
G01X-14986Y-7584186D01*
G01X-14986Y-3947414D01*
G01X2743200Y-3947414D01*
G03X2753614Y-3937000I0J10414D01*
G01X2753614Y-1233038D01*
G03X2743200Y-1222624I-10414J0D01*
G01X1111414Y-6832600D02*
G03X869786Y-6832600I-120814J0D01*
G03X1111414Y-6832600I120814J0D01*
G01X1365414Y-6832600D02*
G03X1123786Y-6832600I-120814J0D01*
G03X1365414Y-6832600I120814J0D01*
G01X1619414Y-6832600D02*
G03X1377786Y-6832600I-120814J0D01*
G03X1619414Y-6832600I120814J0D01*
G01X1667600Y-6711786D02*
G03X1631786Y-6747600I0J-35814D01*
G01X1631786Y-6917600D01*
G03X1667600Y-6953414I35814J0D01*
G01X1837600Y-6953414D01*
G03X1873414Y-6917600I0J35814D01*
G01X1873414Y-6747600D01*
G03X1837600Y-6711786I-35814J0D01*
G01X1667600Y-6711786D01*
G01X3594103Y-214391D02*
G03X3594103Y-446019I0J-115814D01*
G03X3594103Y-214391I0J115814D01*
G01X3594103Y-468391D02*
G03X3594103Y-700019I0J-115814D01*
G03X3594103Y-468391I0J115814D01*
G01X3594103Y-722391D02*
G03X3594103Y-954019I0J-115814D01*
G03X3594103Y-722391I0J115814D01*
G01X3594103Y-976391D02*
G03X3594103Y-1208019I0J-115814D01*
G03X3594103Y-976391I0J115814D01*
G01X3594103Y-1230391D02*
G03X3594103Y-1462019I0J-115814D01*
G03X3594103Y-1230391I0J115814D01*
G01X3594103Y-1738391D02*
G03X3594103Y-1970019I0J-115814D01*
G03X3594103Y-1738391I0J115814D01*
G01X3594103Y-1484391D02*
G03X3594103Y-1716019I0J-115814D01*
G03X3594103Y-1484391I0J115814D01*
G01X3594103Y-4024391D02*
G03X3594103Y-4256019I0J-115814D01*
G03X3594103Y-4024391I0J115814D01*
G01X3594103Y-4278391D02*
G03X3594103Y-4510019I0J-115814D01*
G03X3594103Y-4278391I0J115814D01*
G01X3594103Y-4532391D02*
G03X3594103Y-4764019I0J-115814D01*
G03X3594103Y-4532391I0J115814D01*
G01X3594103Y-4786391D02*
G03X3594103Y-5018019I0J-115814D01*
G03X3594103Y-4786391I0J115814D01*
G01X3594103Y-5040391D02*
G03X3594103Y-5272019I0J-115814D01*
G03X3594103Y-5040391I0J115814D01*
G01X3594103Y-1992391D02*
G03X3594103Y-2224019I0J-115814D01*
G03X3594103Y-1992391I0J115814D01*
G01X3594103Y-2500391D02*
G03X3594103Y-2732019I0J-115814D01*
G03X3594103Y-2500391I0J115814D01*
G01X3594103Y-3008391D02*
G03X3594103Y-3240019I0J-115814D01*
G03X3594103Y-3008391I0J115814D01*
G01X3594103Y-3262391D02*
G03X3594103Y-3494019I0J-115814D01*
G03X3594103Y-3262391I0J115814D01*
G01X3594103Y-3516391D02*
G03X3594103Y-3748019I0J-115814D01*
G03X3594103Y-3516391I0J115814D01*
G01X3594103Y-2754391D02*
G03X3594103Y-2986019I0J-115814D01*
G03X3594103Y-2754391I0J115814D01*
G01X3594103Y-2246391D02*
G03X3594103Y-2478019I0J-115814D01*
G03X3594103Y-2246391I0J115814D01*
G01X3594103Y-3770391D02*
G03X3594103Y-4002019I0J-115814D01*
G03X3594103Y-3770391I0J115814D01*
G01X5359400Y-6466971D02*
G03X5105400Y-6466971I-127000J-48129D01*
G03X4851400Y-6466971I-127000J-48129D01*
G03X4597400Y-6466971I-127000J-48129D01*
G03X4343400Y-6466971I-127000J-48129D01*
G03X4089400Y-6466971I-127000J-48129D01*
G03X3826586Y-6515100I-127000J-48129D01*
G03X4089400Y-6563229I135814J0D01*
G03X4343400Y-6563229I127000J48129D01*
G03X4597400Y-6563229I127000J48129D01*
G03X4851400Y-6563229I127000J48129D01*
G03X5105400Y-6563229I127000J48129D01*
G03X5359400Y-6563229I127000J48129D01*
G03X5604586Y-6582013I127000J48129D01*
G01X5604586Y-6595100D01*
G03X5640400Y-6630914I35814J0D01*
G01X5840400Y-6630914D01*
G03X5876214Y-6595100I0J35814D01*
G01X5876214Y-6435100D01*
G03X5840400Y-6399286I-35814J0D01*
G01X5640400Y-6399286D01*
G03X5604586Y-6435100I0J-35814D01*
G01X5604586Y-6448187D01*
G03X5359400Y-6466971I-118186J-66913D01*
G01X5232400Y-6974971D02*
G03X4978400Y-6974971I-127000J-48129D01*
G03X4724400Y-6974971I-127000J-48129D01*
G03X4470400Y-6974971I-127000J-48129D01*
G03X4216400Y-6974971I-127000J-48129D01*
G03X3953586Y-7023100I-127000J-48129D01*
G03X4216400Y-7071229I135814J0D01*
G03X4470400Y-7071229I127000J48129D01*
G03X4724400Y-7071229I127000J48129D01*
G03X4978400Y-7071229I127000J48129D01*
G03X5232400Y-7071229I127000J48129D01*
G03X5486400Y-7071229I127000J48129D01*
G03X5749214Y-7023100I127000J48129D01*
G03X5486400Y-6974971I-135814J0D01*
G03X5232400Y-6974971I-127000J-48129D01*
G01X5118103Y-214391D02*
G03X5118103Y-446019I0J-115814D01*
G03X5118103Y-214391I0J115814D01*
G01X5118103Y-468391D02*
G03X5118103Y-700019I0J-115814D01*
G03X5118103Y-468391I0J115814D01*
G01X5118103Y-722391D02*
G03X5118103Y-954019I0J-115814D01*
G03X5118103Y-722391I0J115814D01*
G01X5118103Y-976391D02*
G03X5118103Y-1208019I0J-115814D01*
G03X5118103Y-976391I0J115814D01*
G01X5118103Y-1230391D02*
G03X5118103Y-1462019I0J-115814D01*
G03X5118103Y-1230391I0J115814D01*
G01X5118103Y-1738391D02*
G03X5118103Y-1970019I0J-115814D01*
G03X5118103Y-1738391I0J115814D01*
G01X5118103Y-1484391D02*
G03X5118103Y-1716019I0J-115814D01*
G03X5118103Y-1484391I0J115814D01*
G01X5118103Y-4024391D02*
G03X5118103Y-4256019I0J-115814D01*
G03X5118103Y-4024391I0J115814D01*
G01X5118103Y-4278391D02*
G03X5118103Y-4510019I0J-115814D01*
G03X5118103Y-4278391I0J115814D01*
G01X5118103Y-4532391D02*
G03X5118103Y-4764019I0J-115814D01*
G03X5118103Y-4532391I0J115814D01*
G01X5118103Y-4786391D02*
G03X5118103Y-5018019I0J-115814D01*
G03X5118103Y-4786391I0J115814D01*
G01X5118103Y-5040391D02*
G03X5118103Y-5272019I0J-115814D01*
G03X5118103Y-5040391I0J115814D01*
G01X5118103Y-2246391D02*
G03X5118103Y-2478019I0J-115814D01*
G03X5118103Y-2246391I0J115814D01*
G01X5118103Y-1992391D02*
G03X5118103Y-2224019I0J-115814D01*
G03X5118103Y-1992391I0J115814D01*
G01X5118103Y-2500391D02*
G03X5118103Y-2732019I0J-115814D01*
G03X5118103Y-2500391I0J115814D01*
G01X5118103Y-3008391D02*
G03X5118103Y-3240019I0J-115814D01*
G03X5118103Y-3008391I0J115814D01*
G01X5118103Y-2754391D02*
G03X5118103Y-2986019I0J-115814D01*
G03X5118103Y-2754391I0J115814D01*
G01X5118103Y-3516391D02*
G03X5118103Y-3748019I0J-115814D01*
G03X5118103Y-3516391I0J115814D01*
G01X5118103Y-3262391D02*
G03X5118103Y-3494019I0J-115814D01*
G03X5118103Y-3262391I0J115814D01*
G01X5118103Y-3770391D02*
G03X5118103Y-4002019I0J-115814D01*
G03X5118103Y-3770391I0J115814D01*
G01X6213932Y-5317988D02*
G01X6213932Y-5057988D01*
G03X5942305Y-5057988I-135814J0D01*
G01X5942305Y-5317988D01*
G03X6213932Y-5317988I135814J0D01*
G01X6248093Y-4853800D02*
G01X6508092Y-4853800D01*
G03X6508092Y-4582173I0J135814D01*
G01X6248093Y-4582173D01*
G03X6248093Y-4853800I0J-135814D01*
G01X6326789Y-2692400D02*
G03X6578417Y-2692400I125814J0D01*
G03X6326789Y-2692400I-125814J0D01*
G01X6562268Y-5058014D02*
G01X6562268Y-5318013D01*
G03X6833895Y-5318013I135814J0D01*
G01X6833895Y-5058014D01*
G03X6562268Y-5058014I-135814J0D01*
G01X7086783Y-2692400D02*
G03X7338411Y-2692400I125814J0D01*
G03X7086783Y-2692400I-125814J0D01*
G54D11*
G01X5118103Y-584205D02*
G01X5118103Y-478551D01*
G01X5118103Y-584205D02*
G01X5118103Y-689859D01*
G01X5118103Y-584205D02*
G01X5223756Y-584205D01*
G01X5118103Y-584205D02*
G01X5012449Y-584205D01*
G01X6378092Y-4717986D02*
G01X6633746Y-4717986D01*
G01X6378092Y-4717986D02*
G01X6122439Y-4717986D01*
G01X6378092Y-4717986D02*
G01X6378092Y-4843640D01*
G01X6378092Y-4717986D02*
G01X6378092Y-4592333D01*
G01X7212597Y-2692400D02*
G01X7096943Y-2692400D01*
G01X7212597Y-2692400D02*
G01X7328251Y-2692400D01*
G01X7212597Y-2692400D02*
G01X7212597Y-2576746D01*
G01X7212597Y-2692400D02*
G01X7212597Y-2808054D01*
G01X5118103Y-330205D02*
G01X5118103Y-224551D01*
G01X5118103Y-330205D02*
G01X5118103Y-435859D01*
G01X5118103Y-330205D02*
G01X5223756Y-330205D01*
G01X5118103Y-330205D02*
G01X5012449Y-330205D01*
G01X4851400Y-7023100D02*
G01X4851400Y-7148754D01*
G01X4851400Y-7023100D02*
G01X4851400Y-6897446D01*
G01X1752600Y-6832600D02*
G01X1863254Y-6832600D01*
G01X1752600Y-6832600D02*
G01X1641946Y-6832600D01*
G01X1752600Y-6832600D02*
G01X1752600Y-6943254D01*
G01X1752600Y-6832600D02*
G01X1752600Y-6721946D01*
G04 Copper End*

G04 Pad Start*
G54D12*
G01X7212597Y-2692400D03*
G01X6452603Y-2692400D03*
G54D13*
G01X6078118Y-5187988D03*
G01X6698082Y-5188013D03*
G54D14*
G01X6378092Y-4717986D03*
G54D15*
G01X3594103Y-330205D03*
G01X3594103Y-584205D03*
G01X3594103Y-838205D03*
G01X3594103Y-1092205D03*
G01X3594103Y-1346205D03*
G01X3594103Y-1600205D03*
G01X3594103Y-1854205D03*
G01X3594103Y-2108205D03*
G01X3594103Y-2362205D03*
G01X3594103Y-2616205D03*
G01X3594103Y-2870205D03*
G01X3594103Y-3124205D03*
G01X3594103Y-3378205D03*
G01X3594103Y-3632205D03*
G01X3594103Y-3886205D03*
G01X3594103Y-4140205D03*
G01X3594103Y-4394205D03*
G01X3594103Y-4648205D03*
G01X3594103Y-4902205D03*
G01X3594103Y-5156205D03*
G01X5118103Y-5156205D03*
G01X5118103Y-4902205D03*
G01X5118103Y-4648205D03*
G01X5118103Y-4394205D03*
G01X5118103Y-4140205D03*
G01X5118103Y-3886205D03*
G01X5118103Y-3632205D03*
G01X5118103Y-3378205D03*
G01X5118103Y-3124205D03*
G01X5118103Y-2870205D03*
G01X5118103Y-2616205D03*
G01X5118103Y-2362205D03*
G01X5118103Y-2108205D03*
G01X5118103Y-1854205D03*
G01X5118103Y-1600205D03*
G01X5118103Y-1346205D03*
G01X5118103Y-1092205D03*
G01X5118103Y-838205D03*
G01X5118103Y-584205D03*
G01X5118103Y-330205D03*
G54D16*
G01X2324100Y-2730500D03*
G54D18*
G01X2324100Y-2476500D03*
G01X2324100Y-2222500D03*
G01X2324100Y-1968500D03*
G54D19*
G01X3962400Y-6515100D03*
G01X4089400Y-7023100D03*
G01X4216400Y-6515100D03*
G01X4343400Y-7023100D03*
G01X4470400Y-6515100D03*
G01X4597400Y-7023100D03*
G01X4724400Y-6515100D03*
G01X4851400Y-7023100D03*
G01X4978400Y-6515100D03*
G01X5105400Y-7023100D03*
G01X5232400Y-6515100D03*
G01X5359400Y-7023100D03*
G01X5486400Y-6515100D03*
G01X5613400Y-7023100D03*
G54D20*
G01X5740400Y-6515100D03*
G54D21*
G01X1752600Y-6832600D03*
G54D22*
G01X1498600Y-6832600D03*
G01X1244600Y-6832600D03*
G01X990600Y-6832600D03*
G04 Pad End*

G04 Via Start*
G54D23*
G01X226009Y-787400D03*
G01X2304898Y-4064000D03*
G01X2952598Y-5778500D03*
G01X2874899Y-6096000D03*
G01X3657600Y-5913501D03*
G04 Via End*

G04 Track Start*
G54D11*
G01X226009Y-787400D02*
G01X1407109Y-1968500D01*
G01X2324100Y-1968500D01*
G01X2304898Y-4064000D02*
G01X2304898Y-5130800D01*
G01X2952598Y-5778500D01*
G01X2874899Y-6096000D02*
G01X2138302Y-6832597D01*
G01X1752600Y-6832597D01*
G01X7212597Y-2692400D02*
G01X7505700Y-2985503D01*
G01X7505700Y-4279900D01*
G01X7099300Y-4686300D01*
G01X6409779Y-4686300D02*
G01X6378092Y-4717986D01*
G01X7099300Y-4686300D02*
G01X6409779Y-4686300D01*
G01X3657600Y-5913501D02*
G01X3087599Y-5913501D01*
G01X2952598Y-5778500D01*
G04 Track End*

M02*

