G04 Layer: BottomSolderMaskLayer*
G04 EasyEDA Pro v3.2.116, 2026-06-17 16:20:27*
G04 Gerber Generator version 0.3*
G04 Scale: 100 percent, Rotated: No, Reflected: No*
G04 Dimensions in millimeters*
G04 Leading zeros omitted, absolute positions, 4 integers and 5 decimals*
G04 Generated by one-click*
%FSLAX45Y45*%
%MOMM*%
%AMRoundRect*1,1,$1,$2,$3*1,1,$1,$4,$5*1,1,$1,0-$2,0-$3*1,1,$1,0-$4,0-$5*20,1,$1,$2,$3,$4,$5,0*20,1,$1,$4,$5,0-$2,0-$3,0*20,1,$1,0-$2,0-$3,0-$4,0-$5,0*20,1,$1,0-$4,0-$5,$2,$3,0*4,1,4,$2,$3,$4,$5,0-$2,0-$3,0-$4,0-$5,$2,$3,0*%
%ADD10C,1.9016*%
%ADD11O,2.1016X4.70159*%
%ADD12O,4.70159X2.1016*%
%ADD13C,1.7016*%
%ADD14RoundRect,0.1016X-0.6477X-0.6477X-0.6477X0.6477*%
%ADD15C,1.397*%
%ADD16C,2.1016*%
%ADD17RoundRect,0.1016X-1.0X0.8X1.0X0.8*%
%ADD18RoundRect,0.1016X-0.85X0.85X0.85X0.85*%
%ADD19C,1.8099*%
%ADD20C,1.8016*%
G75*


G04 Pad Start*
G54D10*
G01X7212597Y-2692400D03*
G01X6452603Y-2692400D03*
G54D11*
G01X6078118Y-5187988D03*
G01X6698082Y-5188013D03*
G54D12*
G01X6378092Y-4717986D03*
G54D13*
G01X3594103Y-330205D03*
G01X3594103Y-584205D03*
G01X3594103Y-838205D03*
G01X3594103Y-1092205D03*
G01X3594103Y-1346205D03*
G01X3594103Y-1600205D03*
G01X3594103Y-1854205D03*
G01X3594103Y-2108205D03*
G01X3594103Y-2362205D03*
G01X3594103Y-2616205D03*
G01X3594103Y-2870205D03*
G01X3594103Y-3124205D03*
G01X3594103Y-3378205D03*
G01X3594103Y-3632205D03*
G01X3594103Y-3886205D03*
G01X3594103Y-4140205D03*
G01X3594103Y-4394205D03*
G01X3594103Y-4648205D03*
G01X3594103Y-4902205D03*
G01X3594103Y-5156205D03*
G01X5118103Y-5156205D03*
G01X5118103Y-4902205D03*
G01X5118103Y-4648205D03*
G01X5118103Y-4394205D03*
G01X5118103Y-4140205D03*
G01X5118103Y-3886205D03*
G01X5118103Y-3632205D03*
G01X5118103Y-3378205D03*
G01X5118103Y-3124205D03*
G01X5118103Y-2870205D03*
G01X5118103Y-2616205D03*
G01X5118103Y-2362205D03*
G01X5118103Y-2108205D03*
G01X5118103Y-1854205D03*
G01X5118103Y-1600205D03*
G01X5118103Y-1346205D03*
G01X5118103Y-1092205D03*
G01X5118103Y-838205D03*
G01X5118103Y-584205D03*
G01X5118103Y-330205D03*
G54D14*
G01X2324100Y-2730500D03*
G54D15*
G01X2324100Y-2476500D03*
G01X2324100Y-2222500D03*
G01X2324100Y-1968500D03*
G54D16*
G01X3962400Y-6515100D03*
G01X4089400Y-7023100D03*
G01X4216400Y-6515100D03*
G01X4343400Y-7023100D03*
G01X4470400Y-6515100D03*
G01X4597400Y-7023100D03*
G01X4724400Y-6515100D03*
G01X4851400Y-7023100D03*
G01X4978400Y-6515100D03*
G01X5105400Y-7023100D03*
G01X5232400Y-6515100D03*
G01X5359400Y-7023100D03*
G01X5486400Y-6515100D03*
G01X5613400Y-7023100D03*
G54D17*
G01X5740400Y-6515100D03*
G54D18*
G01X1752600Y-6832600D03*
G54D20*
G01X1498600Y-6832600D03*
G01X1244600Y-6832600D03*
G01X990600Y-6832600D03*
G04 Pad End*

M02*

