G04 Layer: TopSilkscreenLayer*
G04 EasyEDA Pro v3.2.116, 2026-06-17 16:20:27*
G04 Gerber Generator version 0.3*
G04 Scale: 100 percent, Rotated: No, Reflected: No*
G04 Dimensions in millimeters*
G04 Leading zeros omitted, absolute positions, 4 integers and 5 decimals*
G04 Generated by one-click*
%FSLAX45Y45*%
%MOMM*%
%ADD10C,0.1524*%
%ADD11C,0.254*%
%ADD12C,0.15001*%
%ADD13C,0.152*%
%ADD14C,0.2032*%
%ADD15C,0.2766*%
G75*


G04 Text Start*
G54D10*
G01X6427229Y-2484374D02*
G01X6427229Y-2547366D01*
G01X6395733Y-2515870D02*
G01X6458725Y-2515870D01*
G01X6687820Y-2407666D02*
G01X6687820Y-2472690D01*
G01X6687820Y-2407666D02*
G01X6715760Y-2407666D01*
G01X6724904Y-2410714D01*
G01X6727952Y-2413762D01*
G01X6731254Y-2420112D01*
G01X6731254Y-2426208D01*
G01X6727952Y-2432304D01*
G01X6724904Y-2435352D01*
G01X6715760Y-2438654D01*
G01X6687820Y-2438654D02*
G01X6715760Y-2438654D01*
G01X6724904Y-2441702D01*
G01X6727952Y-2444750D01*
G01X6731254Y-2450846D01*
G01X6731254Y-2460244D01*
G01X6727952Y-2466340D01*
G01X6724904Y-2469642D01*
G01X6715760Y-2472690D01*
G01X6687820Y-2472690D01*
G01X6761480Y-2407666D02*
G01X6761480Y-2454148D01*
G01X6764528Y-2463292D01*
G01X6770624Y-2469642D01*
G01X6780022Y-2472690D01*
G01X6786118Y-2472690D01*
G01X6795516Y-2469642D01*
G01X6801612Y-2463292D01*
G01X6804660Y-2454148D01*
G01X6804660Y-2407666D01*
G01X6878066Y-2407666D02*
G01X6834886Y-2472690D01*
G01X6834886Y-2407666D02*
G01X6878066Y-2407666D01*
G01X6834886Y-2472690D02*
G01X6878066Y-2472690D01*
G01X6951472Y-2407666D02*
G01X6908292Y-2472690D01*
G01X6908292Y-2407666D02*
G01X6951472Y-2407666D01*
G01X6908292Y-2472690D02*
G01X6951472Y-2472690D01*
G01X6981698Y-2407666D02*
G01X6981698Y-2472690D01*
G01X6981698Y-2407666D02*
G01X7021830Y-2407666D01*
G01X6981698Y-2438654D02*
G01X7006336Y-2438654D01*
G01X6981698Y-2472690D02*
G01X7021830Y-2472690D01*
G01X7052056Y-2407666D02*
G01X7052056Y-2472690D01*
G01X7052056Y-2407666D02*
G01X7079742Y-2407666D01*
G01X7089140Y-2410714D01*
G01X7092188Y-2413762D01*
G01X7095236Y-2420112D01*
G01X7095236Y-2426208D01*
G01X7092188Y-2432304D01*
G01X7089140Y-2435352D01*
G01X7079742Y-2438654D01*
G01X7052056Y-2438654D01*
G01X7073646Y-2438654D02*
G01X7095236Y-2472690D01*
G01X7125462Y-2420112D02*
G01X7131558Y-2416810D01*
G01X7140702Y-2407666D01*
G01X7140702Y-2472690D01*
G01X2277311Y-3888849D02*
G01X2274263Y-3882499D01*
G01X2267913Y-3876403D01*
G01X2261817Y-3873355D01*
G01X2249371Y-3873355D01*
G01X2243275Y-3876403D01*
G01X2236925Y-3882499D01*
G01X2233877Y-3888849D01*
G01X2230829Y-3897993D01*
G01X2230829Y-3913487D01*
G01X2233877Y-3922885D01*
G01X2236925Y-3928981D01*
G01X2243275Y-3935331D01*
G01X2249371Y-3938379D01*
G01X2261817Y-3938379D01*
G01X2267913Y-3935331D01*
G01X2274263Y-3928981D01*
G01X2277311Y-3922885D01*
G01X2347669Y-3894945D02*
G01X2344621Y-3904343D01*
G01X2338271Y-3910439D01*
G01X2329127Y-3913487D01*
G01X2326079Y-3913487D01*
G01X2316681Y-3910439D01*
G01X2310585Y-3904343D01*
G01X2307537Y-3894945D01*
G01X2307537Y-3891897D01*
G01X2310585Y-3882499D01*
G01X2316681Y-3876403D01*
G01X2326079Y-3873355D01*
G01X2329127Y-3873355D01*
G01X2338271Y-3876403D01*
G01X2344621Y-3882499D01*
G01X2347669Y-3894945D01*
G01X2347669Y-3910439D01*
G01X2344621Y-3925933D01*
G01X2338271Y-3935331D01*
G01X2329127Y-3938379D01*
G01X2322777Y-3938379D01*
G01X2313633Y-3935331D01*
G01X2310585Y-3928981D01*
G01X3673602Y-6220460D02*
G01X3670554Y-6214110D01*
G01X3664204Y-6208014D01*
G01X3658108Y-6204966D01*
G01X3645662Y-6204966D01*
G01X3639566Y-6208014D01*
G01X3633216Y-6214110D01*
G01X3630168Y-6220460D01*
G01X3627120Y-6229604D01*
G01X3627120Y-6245098D01*
G01X3630168Y-6254496D01*
G01X3633216Y-6260592D01*
G01X3639566Y-6266942D01*
G01X3645662Y-6269990D01*
G01X3658108Y-6269990D01*
G01X3664204Y-6266942D01*
G01X3670554Y-6260592D01*
G01X3673602Y-6254496D01*
G01X3703828Y-6217412D02*
G01X3709924Y-6214110D01*
G01X3719068Y-6204966D01*
G01X3719068Y-6269990D01*
G01X3767836Y-6204966D02*
G01X3758438Y-6208014D01*
G01X3752342Y-6217412D01*
G01X3749294Y-6232652D01*
G01X3749294Y-6242050D01*
G01X3752342Y-6257544D01*
G01X3758438Y-6266942D01*
G01X3767836Y-6269990D01*
G01X3773932Y-6269990D01*
G01X3783330Y-6266942D01*
G01X3789426Y-6257544D01*
G01X3792474Y-6242050D01*
G01X3792474Y-6232652D01*
G01X3789426Y-6217412D01*
G01X3783330Y-6208014D01*
G01X3773932Y-6204966D01*
G01X3767836Y-6204966D01*
G01X2542540Y-3419602D02*
G01X2548890Y-3416554D01*
G01X2554986Y-3410204D01*
G01X2558034Y-3404108D01*
G01X2558034Y-3391662D01*
G01X2554986Y-3385566D01*
G01X2548890Y-3379216D01*
G01X2542540Y-3376168D01*
G01X2533396Y-3373120D01*
G01X2517902Y-3373120D01*
G01X2508504Y-3376168D01*
G01X2502408Y-3379216D01*
G01X2496058Y-3385566D01*
G01X2493010Y-3391662D01*
G01X2493010Y-3404108D01*
G01X2496058Y-3410204D01*
G01X2502408Y-3416554D01*
G01X2508504Y-3419602D01*
G01X2545588Y-3449828D02*
G01X2548890Y-3455924D01*
G01X2558034Y-3465068D01*
G01X2493010Y-3465068D01*
G01X2545588Y-3495294D02*
G01X2548890Y-3501390D01*
G01X2558034Y-3510534D01*
G01X2493010Y-3510534D01*
G01X3120189Y-5953651D02*
G01X3123237Y-5960001D01*
G01X3129587Y-5966097D01*
G01X3135683Y-5969145D01*
G01X3148129Y-5969145D01*
G01X3154225Y-5966097D01*
G01X3160575Y-5960001D01*
G01X3163623Y-5953651D01*
G01X3166671Y-5944507D01*
G01X3166671Y-5929013D01*
G01X3163623Y-5919615D01*
G01X3160575Y-5913519D01*
G01X3154225Y-5907169D01*
G01X3148129Y-5904121D01*
G01X3135683Y-5904121D01*
G01X3129587Y-5907169D01*
G01X3123237Y-5913519D01*
G01X3120189Y-5919615D01*
G01X3089963Y-5956699D02*
G01X3083867Y-5960001D01*
G01X3074723Y-5969145D01*
G01X3074723Y-5904121D01*
G01X3041449Y-5953651D02*
G01X3041449Y-5956699D01*
G01X3038401Y-5963049D01*
G01X3035353Y-5966097D01*
G01X3029257Y-5969145D01*
G01X3016811Y-5969145D01*
G01X3010461Y-5966097D01*
G01X3007413Y-5963049D01*
G01X3004365Y-5956699D01*
G01X3004365Y-5950603D01*
G01X3007413Y-5944507D01*
G01X3013763Y-5935109D01*
G01X3044497Y-5904121D01*
G01X3001317Y-5904121D01*
G01X7473173Y-5757659D02*
G01X7473173Y-5692635D01*
G01X7473173Y-5757659D02*
G01X7451583Y-5757659D01*
G01X7442185Y-5754611D01*
G01X7436089Y-5748515D01*
G01X7433041Y-5742165D01*
G01X7429739Y-5733021D01*
G01X7429739Y-5717527D01*
G01X7433041Y-5708129D01*
G01X7436089Y-5702033D01*
G01X7442185Y-5695683D01*
G01X7451583Y-5692635D01*
G01X7473173Y-5692635D01*
G01X7353285Y-5742165D02*
G01X7356333Y-5748515D01*
G01X7362429Y-5754611D01*
G01X7368779Y-5757659D01*
G01X7380971Y-5757659D01*
G01X7387321Y-5754611D01*
G01X7393417Y-5748515D01*
G01X7396465Y-5742165D01*
G01X7399513Y-5733021D01*
G01X7399513Y-5717527D01*
G01X7396465Y-5708129D01*
G01X7393417Y-5702033D01*
G01X7387321Y-5695683D01*
G01X7380971Y-5692635D01*
G01X7368779Y-5692635D01*
G01X7362429Y-5695683D01*
G01X7356333Y-5702033D01*
G01X7353285Y-5708129D01*
G01X7323059Y-5745213D02*
G01X7316963Y-5748515D01*
G01X7307819Y-5757659D01*
G01X7307819Y-5692635D01*
G01X6061522Y-4130717D02*
G01X6061522Y-4065693D01*
G01X6061522Y-4065693D02*
G01X6024438Y-4065693D01*
G01X5994212Y-4130717D02*
G01X5994212Y-4065693D01*
G01X5994212Y-4130717D02*
G01X5954080Y-4130717D01*
G01X5994212Y-4099729D02*
G01X5969574Y-4099729D01*
G01X5994212Y-4065693D02*
G01X5954080Y-4065693D01*
G01X5923854Y-4130717D02*
G01X5923854Y-4065693D01*
G01X5923854Y-4130717D02*
G01X5902264Y-4130717D01*
G01X5893120Y-4127669D01*
G01X5886770Y-4121573D01*
G01X5883722Y-4115223D01*
G01X5880674Y-4106079D01*
G01X5880674Y-4090585D01*
G01X5883722Y-4081187D01*
G01X5886770Y-4075091D01*
G01X5893120Y-4068741D01*
G01X5902264Y-4065693D01*
G01X5923854Y-4065693D01*
G01X5850448Y-4118271D02*
G01X5844352Y-4121573D01*
G01X5835208Y-4130717D01*
G01X5835208Y-4065693D01*
G01X6061522Y-4425860D02*
G01X6061522Y-4360836D01*
G01X6061522Y-4360836D02*
G01X6024438Y-4360836D01*
G01X5994212Y-4425860D02*
G01X5994212Y-4360836D01*
G01X5994212Y-4425860D02*
G01X5954080Y-4425860D01*
G01X5994212Y-4394872D02*
G01X5969574Y-4394872D01*
G01X5994212Y-4360836D02*
G01X5954080Y-4360836D01*
G01X5923854Y-4425860D02*
G01X5923854Y-4360836D01*
G01X5923854Y-4425860D02*
G01X5902264Y-4425860D01*
G01X5893120Y-4422812D01*
G01X5886770Y-4416716D01*
G01X5883722Y-4410366D01*
G01X5880674Y-4401222D01*
G01X5880674Y-4385728D01*
G01X5883722Y-4376330D01*
G01X5886770Y-4370234D01*
G01X5893120Y-4363884D01*
G01X5902264Y-4360836D01*
G01X5923854Y-4360836D01*
G01X5847400Y-4410366D02*
G01X5847400Y-4413414D01*
G01X5844352Y-4419764D01*
G01X5841304Y-4422812D01*
G01X5835208Y-4425860D01*
G01X5822762Y-4425860D01*
G01X5816412Y-4422812D01*
G01X5813364Y-4419764D01*
G01X5810316Y-4413414D01*
G01X5810316Y-4407318D01*
G01X5813364Y-4401222D01*
G01X5819714Y-4391824D01*
G01X5850448Y-4360836D01*
G01X5807268Y-4360836D01*
G01X6061522Y-3924530D02*
G01X6061522Y-3859506D01*
G01X6061522Y-3859506D02*
G01X6024438Y-3859506D01*
G01X5994212Y-3924530D02*
G01X5994212Y-3859506D01*
G01X5994212Y-3924530D02*
G01X5954080Y-3924530D01*
G01X5994212Y-3893542D02*
G01X5969574Y-3893542D01*
G01X5994212Y-3859506D02*
G01X5954080Y-3859506D01*
G01X5923854Y-3924530D02*
G01X5923854Y-3859506D01*
G01X5923854Y-3924530D02*
G01X5902264Y-3924530D01*
G01X5893120Y-3921482D01*
G01X5886770Y-3915386D01*
G01X5883722Y-3909036D01*
G01X5880674Y-3899892D01*
G01X5880674Y-3884398D01*
G01X5883722Y-3875000D01*
G01X5886770Y-3868904D01*
G01X5893120Y-3862554D01*
G01X5902264Y-3859506D01*
G01X5923854Y-3859506D01*
G01X5844352Y-3924530D02*
G01X5810316Y-3924530D01*
G01X5828858Y-3899892D01*
G01X5819714Y-3899892D01*
G01X5813364Y-3896844D01*
G01X5810316Y-3893542D01*
G01X5807268Y-3884398D01*
G01X5807268Y-3878048D01*
G01X5810316Y-3868904D01*
G01X5816412Y-3862554D01*
G01X5825810Y-3859506D01*
G01X5835208Y-3859506D01*
G01X5844352Y-3862554D01*
G01X5847400Y-3865856D01*
G01X5850448Y-3871952D01*
G01X6061522Y-3718343D02*
G01X6061522Y-3653319D01*
G01X6061522Y-3653319D02*
G01X6024438Y-3653319D01*
G01X5994212Y-3718343D02*
G01X5994212Y-3653319D01*
G01X5994212Y-3718343D02*
G01X5954080Y-3718343D01*
G01X5994212Y-3687355D02*
G01X5969574Y-3687355D01*
G01X5994212Y-3653319D02*
G01X5954080Y-3653319D01*
G01X5923854Y-3718343D02*
G01X5923854Y-3653319D01*
G01X5923854Y-3718343D02*
G01X5902264Y-3718343D01*
G01X5893120Y-3715295D01*
G01X5886770Y-3709199D01*
G01X5883722Y-3702849D01*
G01X5880674Y-3693705D01*
G01X5880674Y-3678211D01*
G01X5883722Y-3668813D01*
G01X5886770Y-3662717D01*
G01X5893120Y-3656367D01*
G01X5902264Y-3653319D01*
G01X5923854Y-3653319D01*
G01X5819714Y-3718343D02*
G01X5850448Y-3675163D01*
G01X5804220Y-3675163D01*
G01X5819714Y-3718343D02*
G01X5819714Y-3653319D01*
G01X5629262Y-2171225D02*
G01X5623166Y-2174273D01*
G01X5616816Y-2180369D01*
G01X5613768Y-2186719D01*
G01X5610720Y-2195863D01*
G01X5610720Y-2211357D01*
G01X5613768Y-2220755D01*
G01X5616816Y-2226851D01*
G01X5623166Y-2233201D01*
G01X5629262Y-2236249D01*
G01X5641708Y-2236249D01*
G01X5647804Y-2233201D01*
G01X5654154Y-2226851D01*
G01X5657202Y-2220755D01*
G01X5660250Y-2211357D01*
G01X5660250Y-2195863D01*
G01X5657202Y-2186719D01*
G01X5654154Y-2180369D01*
G01X5647804Y-2174273D01*
G01X5641708Y-2171225D01*
G01X5629262Y-2171225D01*
G01X5638660Y-2223803D02*
G01X5657202Y-2242345D01*
G01X5690476Y-2183671D02*
G01X5696572Y-2180369D01*
G01X5705716Y-2171225D01*
G01X5705716Y-2236249D01*
G01X7179419Y-4417033D02*
G01X7179419Y-4352009D01*
G01X7179419Y-4417033D02*
G01X7151479Y-4417033D01*
G01X7142335Y-4413985D01*
G01X7139287Y-4410937D01*
G01X7135985Y-4404587D01*
G01X7135985Y-4398491D01*
G01X7139287Y-4392395D01*
G01X7142335Y-4389347D01*
G01X7151479Y-4386045D01*
G01X7179419Y-4386045D01*
G01X7157829Y-4386045D02*
G01X7135985Y-4352009D01*
G01X7105759Y-4404587D02*
G01X7099663Y-4407889D01*
G01X7090519Y-4417033D01*
G01X7090519Y-4352009D01*
G01X7179419Y-4121890D02*
G01X7179419Y-4056866D01*
G01X7179419Y-4121890D02*
G01X7151479Y-4121890D01*
G01X7142335Y-4118842D01*
G01X7139287Y-4115794D01*
G01X7135985Y-4109444D01*
G01X7135985Y-4103348D01*
G01X7139287Y-4097252D01*
G01X7142335Y-4094204D01*
G01X7151479Y-4090902D01*
G01X7179419Y-4090902D01*
G01X7157829Y-4090902D02*
G01X7135985Y-4056866D01*
G01X7102711Y-4106396D02*
G01X7102711Y-4109444D01*
G01X7099663Y-4115794D01*
G01X7096615Y-4118842D01*
G01X7090519Y-4121890D01*
G01X7078073Y-4121890D01*
G01X7071723Y-4118842D01*
G01X7068675Y-4115794D01*
G01X7065627Y-4109444D01*
G01X7065627Y-4103348D01*
G01X7068675Y-4097252D01*
G01X7075025Y-4087854D01*
G01X7105759Y-4056866D01*
G01X7062579Y-4056866D01*
G01X7179419Y-3915703D02*
G01X7179419Y-3850679D01*
G01X7179419Y-3915703D02*
G01X7151479Y-3915703D01*
G01X7142335Y-3912655D01*
G01X7139287Y-3909607D01*
G01X7135985Y-3903257D01*
G01X7135985Y-3897161D01*
G01X7139287Y-3891065D01*
G01X7142335Y-3888017D01*
G01X7151479Y-3884715D01*
G01X7179419Y-3884715D01*
G01X7157829Y-3884715D02*
G01X7135985Y-3850679D01*
G01X7099663Y-3915703D02*
G01X7065627Y-3915703D01*
G01X7084169Y-3891065D01*
G01X7075025Y-3891065D01*
G01X7068675Y-3888017D01*
G01X7065627Y-3884715D01*
G01X7062579Y-3875571D01*
G01X7062579Y-3869221D01*
G01X7065627Y-3860077D01*
G01X7071723Y-3853727D01*
G01X7081121Y-3850679D01*
G01X7090519Y-3850679D01*
G01X7099663Y-3853727D01*
G01X7102711Y-3857029D01*
G01X7105759Y-3863125D01*
G01X7179419Y-3709516D02*
G01X7179419Y-3644492D01*
G01X7179419Y-3709516D02*
G01X7151479Y-3709516D01*
G01X7142335Y-3706468D01*
G01X7139287Y-3703420D01*
G01X7135985Y-3697070D01*
G01X7135985Y-3690974D01*
G01X7139287Y-3684878D01*
G01X7142335Y-3681830D01*
G01X7151479Y-3678528D01*
G01X7179419Y-3678528D01*
G01X7157829Y-3678528D02*
G01X7135985Y-3644492D01*
G01X7075025Y-3709516D02*
G01X7105759Y-3666336D01*
G01X7059531Y-3666336D01*
G01X7075025Y-3709516D02*
G01X7075025Y-3644492D01*
G01X6075680Y-2989834D02*
G01X6075680Y-2924810D01*
G01X6075680Y-2989834D02*
G01X6047740Y-2989834D01*
G01X6038596Y-2986786D01*
G01X6035548Y-2983738D01*
G01X6032246Y-2977388D01*
G01X6032246Y-2971292D01*
G01X6035548Y-2965196D01*
G01X6038596Y-2962148D01*
G01X6047740Y-2958846D01*
G01X6075680Y-2958846D01*
G01X6054090Y-2958846D02*
G01X6032246Y-2924810D01*
G01X5964936Y-2989834D02*
G01X5995924Y-2989834D01*
G01X5998972Y-2962148D01*
G01X5995924Y-2965196D01*
G01X5986780Y-2968244D01*
G01X5977382Y-2968244D01*
G01X5967984Y-2965196D01*
G01X5961888Y-2958846D01*
G01X5958840Y-2949702D01*
G01X5958840Y-2943352D01*
G01X5961888Y-2934208D01*
G01X5967984Y-2927858D01*
G01X5977382Y-2924810D01*
G01X5986780Y-2924810D01*
G01X5995924Y-2927858D01*
G01X5998972Y-2931160D01*
G01X6002020Y-2937256D01*
G01X6946563Y-642170D02*
G01X6940213Y-636074D01*
G01X6931069Y-633026D01*
G01X6918623Y-633026D01*
G01X6909225Y-636074D01*
G01X6903129Y-642170D01*
G01X6903129Y-648520D01*
G01X6906177Y-654616D01*
G01X6909225Y-657664D01*
G01X6915575Y-660712D01*
G01X6934117Y-667062D01*
G01X6940213Y-670110D01*
G01X6943261Y-673158D01*
G01X6946563Y-679508D01*
G01X6946563Y-688652D01*
G01X6940213Y-695002D01*
G01X6931069Y-698050D01*
G01X6918623Y-698050D01*
G01X6909225Y-695002D01*
G01X6903129Y-688652D01*
G01X6976789Y-633026D02*
G01X6992029Y-698050D01*
G01X7007523Y-633026D02*
G01X6992029Y-698050D01*
G01X7007523Y-633026D02*
G01X7023017Y-698050D01*
G01X7038511Y-633026D02*
G01X7023017Y-698050D01*
G01X7068737Y-645472D02*
G01X7074833Y-642170D01*
G01X7083977Y-633026D01*
G01X7083977Y-698050D01*
G01X6946563Y-223070D02*
G01X6940213Y-216974D01*
G01X6931069Y-213926D01*
G01X6918623Y-213926D01*
G01X6909225Y-216974D01*
G01X6903129Y-223070D01*
G01X6903129Y-229420D01*
G01X6906177Y-235516D01*
G01X6909225Y-238564D01*
G01X6915575Y-241612D01*
G01X6934117Y-247962D01*
G01X6940213Y-251010D01*
G01X6943261Y-254058D01*
G01X6946563Y-260408D01*
G01X6946563Y-269552D01*
G01X6940213Y-275902D01*
G01X6931069Y-278950D01*
G01X6918623Y-278950D01*
G01X6909225Y-275902D01*
G01X6903129Y-269552D01*
G01X6976789Y-213926D02*
G01X6992029Y-278950D01*
G01X7007523Y-213926D02*
G01X6992029Y-278950D01*
G01X7007523Y-213926D02*
G01X7023017Y-278950D01*
G01X7038511Y-213926D02*
G01X7023017Y-278950D01*
G01X7071785Y-229420D02*
G01X7071785Y-226372D01*
G01X7074833Y-220022D01*
G01X7077881Y-216974D01*
G01X7083977Y-213926D01*
G01X7096423Y-213926D01*
G01X7102773Y-216974D01*
G01X7105821Y-220022D01*
G01X7108869Y-226372D01*
G01X7108869Y-232468D01*
G01X7105821Y-238564D01*
G01X7099471Y-247962D01*
G01X7068737Y-278950D01*
G01X7111917Y-278950D01*
G01X215563Y-83370D02*
G01X209213Y-77274D01*
G01X200069Y-74226D01*
G01X187623Y-74226D01*
G01X178225Y-77274D01*
G01X172129Y-83370D01*
G01X172129Y-89720D01*
G01X175177Y-95816D01*
G01X178225Y-98864D01*
G01X184575Y-101912D01*
G01X203117Y-108262D01*
G01X209213Y-111310D01*
G01X212261Y-114358D01*
G01X215563Y-120708D01*
G01X215563Y-129852D01*
G01X209213Y-136202D01*
G01X200069Y-139250D01*
G01X187623Y-139250D01*
G01X178225Y-136202D01*
G01X172129Y-129852D01*
G01X245789Y-74226D02*
G01X261029Y-139250D01*
G01X276523Y-74226D02*
G01X261029Y-139250D01*
G01X276523Y-74226D02*
G01X292017Y-139250D01*
G01X307511Y-74226D02*
G01X292017Y-139250D01*
G01X343833Y-74226D02*
G01X377869Y-74226D01*
G01X359327Y-98864D01*
G01X368471Y-98864D01*
G01X374821Y-101912D01*
G01X377869Y-105214D01*
G01X380917Y-114358D01*
G01X380917Y-120708D01*
G01X377869Y-129852D01*
G01X371773Y-136202D01*
G01X362375Y-139250D01*
G01X352977Y-139250D01*
G01X343833Y-136202D01*
G01X340785Y-132900D01*
G01X337737Y-126804D01*
G01X6959263Y-1073970D02*
G01X6952913Y-1067874D01*
G01X6943769Y-1064826D01*
G01X6931323Y-1064826D01*
G01X6921925Y-1067874D01*
G01X6915829Y-1073970D01*
G01X6915829Y-1080320D01*
G01X6918877Y-1086416D01*
G01X6921925Y-1089464D01*
G01X6928275Y-1092512D01*
G01X6946817Y-1098862D01*
G01X6952913Y-1101910D01*
G01X6955961Y-1104958D01*
G01X6959263Y-1111308D01*
G01X6959263Y-1120452D01*
G01X6952913Y-1126802D01*
G01X6943769Y-1129850D01*
G01X6931323Y-1129850D01*
G01X6921925Y-1126802D01*
G01X6915829Y-1120452D01*
G01X6989489Y-1064826D02*
G01X7004729Y-1129850D01*
G01X7020223Y-1064826D02*
G01X7004729Y-1129850D01*
G01X7020223Y-1064826D02*
G01X7035717Y-1129850D01*
G01X7051211Y-1064826D02*
G01X7035717Y-1129850D01*
G01X7112171Y-1064826D02*
G01X7081437Y-1108006D01*
G01X7127665Y-1108006D01*
G01X7112171Y-1064826D02*
G01X7112171Y-1129850D01*
G01X6946563Y-1480370D02*
G01X6940213Y-1474274D01*
G01X6931069Y-1471226D01*
G01X6918623Y-1471226D01*
G01X6909225Y-1474274D01*
G01X6903129Y-1480370D01*
G01X6903129Y-1486720D01*
G01X6906177Y-1492816D01*
G01X6909225Y-1495864D01*
G01X6915575Y-1498912D01*
G01X6934117Y-1505262D01*
G01X6940213Y-1508310D01*
G01X6943261Y-1511358D01*
G01X6946563Y-1517708D01*
G01X6946563Y-1526852D01*
G01X6940213Y-1533202D01*
G01X6931069Y-1536250D01*
G01X6918623Y-1536250D01*
G01X6909225Y-1533202D01*
G01X6903129Y-1526852D01*
G01X6976789Y-1471226D02*
G01X6992029Y-1536250D01*
G01X7007523Y-1471226D02*
G01X6992029Y-1536250D01*
G01X7007523Y-1471226D02*
G01X7023017Y-1536250D01*
G01X7038511Y-1471226D02*
G01X7023017Y-1536250D01*
G01X7105821Y-1471226D02*
G01X7074833Y-1471226D01*
G01X7071785Y-1498912D01*
G01X7074833Y-1495864D01*
G01X7083977Y-1492816D01*
G01X7093375Y-1492816D01*
G01X7102773Y-1495864D01*
G01X7108869Y-1502214D01*
G01X7111917Y-1511358D01*
G01X7111917Y-1517708D01*
G01X7108869Y-1526852D01*
G01X7102773Y-1533202D01*
G01X7093375Y-1536250D01*
G01X7083977Y-1536250D01*
G01X7074833Y-1533202D01*
G01X7071785Y-1529900D01*
G01X7068737Y-1523804D01*
G01X215563Y-527870D02*
G01X209213Y-521774D01*
G01X200069Y-518726D01*
G01X187623Y-518726D01*
G01X178225Y-521774D01*
G01X172129Y-527870D01*
G01X172129Y-534220D01*
G01X175177Y-540316D01*
G01X178225Y-543364D01*
G01X184575Y-546412D01*
G01X203117Y-552762D01*
G01X209213Y-555810D01*
G01X212261Y-558858D01*
G01X215563Y-565208D01*
G01X215563Y-574352D01*
G01X209213Y-580702D01*
G01X200069Y-583750D01*
G01X187623Y-583750D01*
G01X178225Y-580702D01*
G01X172129Y-574352D01*
G01X245789Y-518726D02*
G01X261029Y-583750D01*
G01X276523Y-518726D02*
G01X261029Y-583750D01*
G01X276523Y-518726D02*
G01X292017Y-583750D01*
G01X307511Y-518726D02*
G01X292017Y-583750D01*
G01X374821Y-527870D02*
G01X371773Y-521774D01*
G01X362375Y-518726D01*
G01X356279Y-518726D01*
G01X346881Y-521774D01*
G01X340785Y-531172D01*
G01X337737Y-546412D01*
G01X337737Y-561906D01*
G01X340785Y-574352D01*
G01X346881Y-580702D01*
G01X356279Y-583750D01*
G01X359327Y-583750D01*
G01X368471Y-580702D01*
G01X374821Y-574352D01*
G01X377869Y-565208D01*
G01X377869Y-561906D01*
G01X374821Y-552762D01*
G01X368471Y-546412D01*
G01X359327Y-543364D01*
G01X356279Y-543364D01*
G01X346881Y-546412D01*
G01X340785Y-552762D01*
G01X337737Y-561906D01*
G01X5631434Y-2103120D02*
G01X5584952Y-2103120D01*
G01X5575808Y-2106168D01*
G01X5569458Y-2112518D01*
G01X5566410Y-2121662D01*
G01X5566410Y-2128012D01*
G01X5569458Y-2137156D01*
G01X5575808Y-2143252D01*
G01X5584952Y-2146554D01*
G01X5631434Y-2146554D01*
G01X5618988Y-2176780D02*
G01X5622290Y-2182876D01*
G01X5631434Y-2192020D01*
G01X5566410Y-2192020D01*
G01X1977676Y-1364338D02*
G01X1931194Y-1364338D01*
G01X1922050Y-1367386D01*
G01X1915700Y-1373736D01*
G01X1912652Y-1382880D01*
G01X1912652Y-1389230D01*
G01X1915700Y-1398374D01*
G01X1922050Y-1404470D01*
G01X1931194Y-1407772D01*
G01X1977676Y-1407772D01*
G01X1977676Y-1444094D02*
G01X1977676Y-1478130D01*
G01X1953038Y-1459588D01*
G01X1953038Y-1468732D01*
G01X1949990Y-1475082D01*
G01X1946688Y-1478130D01*
G01X1937544Y-1481178D01*
G01X1931194Y-1481178D01*
G01X1922050Y-1478130D01*
G01X1915700Y-1472034D01*
G01X1912652Y-1462636D01*
G01X1912652Y-1453238D01*
G01X1915700Y-1444094D01*
G01X1919002Y-1441046D01*
G01X1925098Y-1437998D01*
G01X1969503Y-2984579D02*
G01X2015985Y-2984579D01*
G01X2025129Y-2981531D01*
G01X2031479Y-2975181D01*
G01X2034527Y-2966037D01*
G01X2034527Y-2959687D01*
G01X2031479Y-2950543D01*
G01X2025129Y-2944447D01*
G01X2015985Y-2941145D01*
G01X1969503Y-2941145D01*
G01X1969503Y-2880185D02*
G01X2012683Y-2910919D01*
G01X2012683Y-2864691D01*
G01X1969503Y-2880185D02*
G01X2034527Y-2880185D01*
G01X4831080Y-6837934D02*
G01X4831080Y-6791452D01*
G01X4828032Y-6782308D01*
G01X4821682Y-6775958D01*
G01X4812538Y-6772910D01*
G01X4806188Y-6772910D01*
G01X4797044Y-6775958D01*
G01X4790948Y-6782308D01*
G01X4787646Y-6791452D01*
G01X4787646Y-6837934D01*
G01X4720336Y-6837934D02*
G01X4751324Y-6837934D01*
G01X4754372Y-6810248D01*
G01X4751324Y-6813296D01*
G01X4742180Y-6816344D01*
G01X4732782Y-6816344D01*
G01X4723384Y-6813296D01*
G01X4717288Y-6806946D01*
G01X4714240Y-6797802D01*
G01X4714240Y-6791452D01*
G01X4717288Y-6782308D01*
G01X4723384Y-6775958D01*
G01X4732782Y-6772910D01*
G01X4742180Y-6772910D01*
G01X4751324Y-6775958D01*
G01X4754372Y-6779260D01*
G01X4757420Y-6785356D01*
G01X6649720Y-6357366D02*
G01X6649720Y-6403848D01*
G01X6652768Y-6412992D01*
G01X6659118Y-6419342D01*
G01X6668262Y-6422390D01*
G01X6674612Y-6422390D01*
G01X6683756Y-6419342D01*
G01X6689852Y-6412992D01*
G01X6693154Y-6403848D01*
G01X6693154Y-6357366D01*
G01X6760464Y-6366510D02*
G01X6757416Y-6360414D01*
G01X6748018Y-6357366D01*
G01X6741922Y-6357366D01*
G01X6732524Y-6360414D01*
G01X6726428Y-6369812D01*
G01X6723380Y-6385052D01*
G01X6723380Y-6400546D01*
G01X6726428Y-6412992D01*
G01X6732524Y-6419342D01*
G01X6741922Y-6422390D01*
G01X6744970Y-6422390D01*
G01X6754114Y-6419342D01*
G01X6760464Y-6412992D01*
G01X6763512Y-6403848D01*
G01X6763512Y-6400546D01*
G01X6760464Y-6391402D01*
G01X6754114Y-6385052D01*
G01X6744970Y-6382004D01*
G01X6741922Y-6382004D01*
G01X6732524Y-6385052D01*
G01X6726428Y-6391402D01*
G01X6723380Y-6400546D01*
G01X2801620Y-6306566D02*
G01X2801620Y-6353048D01*
G01X2804668Y-6362192D01*
G01X2811018Y-6368542D01*
G01X2820162Y-6371590D01*
G01X2826512Y-6371590D01*
G01X2835656Y-6368542D01*
G01X2841752Y-6362192D01*
G01X2845054Y-6353048D01*
G01X2845054Y-6306566D01*
G01X2918460Y-6306566D02*
G01X2887472Y-6371590D01*
G01X2875280Y-6306566D02*
G01X2918460Y-6306566D01*
G01X3726434Y-5684520D02*
G01X3679952Y-5684520D01*
G01X3670808Y-5687568D01*
G01X3664458Y-5693918D01*
G01X3661410Y-5703062D01*
G01X3661410Y-5709412D01*
G01X3664458Y-5718556D01*
G01X3670808Y-5724652D01*
G01X3679952Y-5727954D01*
G01X3726434Y-5727954D01*
G01X3704844Y-5798312D02*
G01X3695446Y-5795264D01*
G01X3689350Y-5788914D01*
G01X3686302Y-5779770D01*
G01X3686302Y-5776722D01*
G01X3689350Y-5767324D01*
G01X3695446Y-5761228D01*
G01X3704844Y-5758180D01*
G01X3707892Y-5758180D01*
G01X3717290Y-5761228D01*
G01X3723386Y-5767324D01*
G01X3726434Y-5776722D01*
G01X3726434Y-5779770D01*
G01X3723386Y-5788914D01*
G01X3717290Y-5795264D01*
G01X3704844Y-5798312D01*
G01X3689350Y-5798312D01*
G01X3673856Y-5795264D01*
G01X3664458Y-5788914D01*
G01X3661410Y-5779770D01*
G01X3661410Y-5773420D01*
G01X3664458Y-5764276D01*
G01X3670808Y-5761228D01*
G01X3197281Y-6329934D02*
G01X3197281Y-6283452D01*
G01X3194233Y-6274308D01*
G01X3187883Y-6267958D01*
G01X3178739Y-6264910D01*
G01X3172389Y-6264910D01*
G01X3163245Y-6267958D01*
G01X3157149Y-6274308D01*
G01X3153847Y-6283452D01*
G01X3153847Y-6329934D01*
G01X3123621Y-6317488D02*
G01X3117525Y-6320790D01*
G01X3108381Y-6329934D01*
G01X3108381Y-6264910D01*
G01X3059613Y-6329934D02*
G01X3069011Y-6326886D01*
G01X3075107Y-6317488D01*
G01X3078155Y-6302248D01*
G01X3078155Y-6292850D01*
G01X3075107Y-6277356D01*
G01X3069011Y-6267958D01*
G01X3059613Y-6264910D01*
G01X3053517Y-6264910D01*
G01X3044119Y-6267958D01*
G01X3038023Y-6277356D01*
G01X3034975Y-6292850D01*
G01X3034975Y-6302248D01*
G01X3038023Y-6317488D01*
G01X3044119Y-6326886D01*
G01X3053517Y-6329934D01*
G01X3059613Y-6329934D01*
G01X1905681Y-7079234D02*
G01X1905681Y-7014210D01*
G01X1862247Y-7079234D02*
G01X1862247Y-7014210D01*
G01X1905681Y-7048246D02*
G01X1862247Y-7048246D01*
G01X1832021Y-7066788D02*
G01X1825925Y-7070090D01*
G01X1816781Y-7079234D01*
G01X1816781Y-7014210D01*
G04 Text End*

G04 PolygonModel Start*
G54D11*
G01X2346881Y-4134957D02*
G01X2266884Y-4134957D01*
G01X2402926Y-4135003D02*
G01X2482924Y-4135003D01*
G01X2346881Y-3992989D02*
G01X2266884Y-3992989D01*
G01X2402926Y-3993037D02*
G01X2482924Y-3993037D01*
G01X2235909Y-4103975D02*
G01X2235909Y-4023970D01*
G01X2513902Y-4024023D02*
G01X2513902Y-4104025D01*
G01X2482919Y-3993037D02*
G02X2513902Y-4024023I0J-30983D01*
G01X2513902Y-4104020D02*
G02X2482919Y-4135003I-30983J0D01*
G01X2266889Y-4134957D02*
G02X2235909Y-4103975I3J30983D01*
G01X2235909Y-4023977D02*
G02X2266889Y-3992989I30983J5D01*
G01X3591481Y-6205057D02*
G01X3511484Y-6205057D01*
G01X3647526Y-6205103D02*
G01X3727524Y-6205103D01*
G01X3591481Y-6063089D02*
G01X3511484Y-6063089D01*
G01X3647526Y-6063137D02*
G01X3727524Y-6063137D01*
G01X3480509Y-6174075D02*
G01X3480509Y-6094070D01*
G01X3758502Y-6094123D02*
G01X3758502Y-6174125D01*
G01X3727519Y-6063137D02*
G02X3758502Y-6094123I0J-30983D01*
G01X3758502Y-6174120D02*
G02X3727519Y-6205103I-30983J0D01*
G01X3511489Y-6205057D02*
G02X3480509Y-6174075I3J30983D01*
G01X3480509Y-6094077D02*
G02X3511489Y-6063089I30983J5D01*
G54D10*
G01X2384803Y-3720338D02*
G01X2589019Y-3720338D01*
G01X2589019Y-3720338D02*
G01X2589019Y-3319523D01*
G01X2589019Y-3319523D02*
G01X2458212Y-3188462D01*
G01X2458212Y-3188462D02*
G01X2384803Y-3188462D01*
G01X2263397Y-3719319D02*
G01X2062223Y-3719319D01*
G01X2062223Y-3719319D02*
G01X2062223Y-3317243D01*
G01X2062223Y-3317243D02*
G01X2191004Y-3188462D01*
G01X2191004Y-3188462D02*
G01X2263397Y-3188462D01*
G36*
G01X2261700Y-3250400D02*
G01X2261700Y-3264799D01*
G01X2165701Y-3264799D01*
G01X2165701Y-3250400D01*
G01X2261700Y-3250400D01*
G37*
G36*
G01X2220900Y-3228800D02*
G01X2220900Y-3286399D01*
G01X2206501Y-3286399D01*
G01X2206501Y-3228800D01*
G01X2220900Y-3228800D01*
G37*
G36*
G01X2220900Y-3680000D02*
G01X2206501Y-3680000D01*
G01X2206501Y-3622401D01*
G01X2220900Y-3622401D01*
G01X2220900Y-3680000D01*
G37*
G54D11*
G01X3050619Y-5707543D02*
G01X3130616Y-5707543D01*
G01X2994574Y-5707497D02*
G01X2914576Y-5707497D01*
G01X3050619Y-5849511D02*
G01X3130616Y-5849511D01*
G01X2994574Y-5849463D02*
G01X2914576Y-5849463D01*
G01X3161591Y-5738525D02*
G01X3161591Y-5818530D01*
G01X2883599Y-5818477D02*
G01X2883599Y-5738475D01*
G01X2914581Y-5849463D02*
G02X2883599Y-5818477I0J30983D01*
G01X2883599Y-5738480D02*
G02X2914581Y-5707497I30983J0D01*
G01X3130611Y-5707543D02*
G02X3161591Y-5738525I-3J-30983D01*
G01X3161591Y-5818523D02*
G02X3130611Y-5849511I-30983J-5D01*
G01X7468090Y-4738025D02*
G01X7468093Y-5638025D01*
G01X7468093Y-5638025D02*
G01X6028055Y-5638025D01*
G01X7098055Y-4738027D02*
G01X7098055Y-5638025D01*
G01X7090054Y-4868024D02*
G01X6028055Y-4868024D01*
G01X7090054Y-5508003D02*
G01X6028055Y-5508003D01*
G01X6028055Y-5638025D02*
G01X6028055Y-5430464D01*
G01X6028055Y-4945563D02*
G01X6028055Y-4738025D01*
G01X7468090Y-4738025D02*
G01X6629560Y-4738025D01*
G01X6126625Y-4738025D02*
G01X6028055Y-4738025D01*
G54D12*
G01X5731640Y-3976277D02*
G01X5731640Y-3986280D01*
G01X5731640Y-3986280D02*
G01X5761634Y-4016282D01*
G01X5731640Y-3906285D02*
G01X5731640Y-3896270D01*
G01X5731640Y-3896270D02*
G01X5761634Y-3866275D01*
G01X5731640Y-3906285D02*
G01X5731640Y-3976277D01*
G01X6061641Y-3866287D02*
G01X6061641Y-4014278D01*
G01X5876635Y-4016282D02*
G01X5761634Y-4016282D01*
G01X5876635Y-3866275D02*
G01X5761634Y-3866275D01*
G01X5936638Y-4016282D02*
G01X6061641Y-4016282D01*
G01X5936638Y-3866275D02*
G01X6061641Y-3866275D01*
G01X5919346Y-3979376D02*
G01X5919346Y-3903176D01*
G01X5919346Y-3940636D02*
G01X5893946Y-3940636D01*
G01X5731640Y-4271420D02*
G01X5731640Y-4281422D01*
G01X5731640Y-4281422D02*
G01X5761634Y-4311425D01*
G01X5731640Y-4201428D02*
G01X5731640Y-4191412D01*
G01X5731640Y-4191412D02*
G01X5761634Y-4161418D01*
G01X5731640Y-4201428D02*
G01X5731640Y-4271420D01*
G01X6061641Y-4161430D02*
G01X6061641Y-4309421D01*
G01X5876635Y-4311425D02*
G01X5761634Y-4311425D01*
G01X5876635Y-4161418D02*
G01X5761634Y-4161418D01*
G01X5936638Y-4311425D02*
G01X6061641Y-4311425D01*
G01X5936638Y-4161418D02*
G01X6061641Y-4161418D01*
G01X5919346Y-4274519D02*
G01X5919346Y-4198319D01*
G01X5919346Y-4235779D02*
G01X5893946Y-4235779D01*
G01X5731640Y-3770090D02*
G01X5731640Y-3780093D01*
G01X5731640Y-3780093D02*
G01X5761634Y-3810095D01*
G01X5731640Y-3700098D02*
G01X5731640Y-3690083D01*
G01X5731640Y-3690083D02*
G01X5761634Y-3660088D01*
G01X5731640Y-3700098D02*
G01X5731640Y-3770090D01*
G01X6061641Y-3660100D02*
G01X6061641Y-3808091D01*
G01X5876635Y-3810095D02*
G01X5761634Y-3810095D01*
G01X5876635Y-3660088D02*
G01X5761634Y-3660088D01*
G01X5936638Y-3810095D02*
G01X6061641Y-3810095D01*
G01X5936638Y-3660088D02*
G01X6061641Y-3660088D01*
G01X5919346Y-3773189D02*
G01X5919346Y-3696989D01*
G01X5919346Y-3734449D02*
G01X5893946Y-3734449D01*
G01X5731640Y-3563903D02*
G01X5731640Y-3573905D01*
G01X5731640Y-3573905D02*
G01X5761634Y-3603908D01*
G01X5731640Y-3493911D02*
G01X5731640Y-3483895D01*
G01X5731640Y-3483895D02*
G01X5761634Y-3453901D01*
G01X5731640Y-3493911D02*
G01X5731640Y-3563903D01*
G01X6061641Y-3453913D02*
G01X6061641Y-3601904D01*
G01X5876635Y-3603908D02*
G01X5761634Y-3603908D01*
G01X5876635Y-3453901D02*
G01X5761634Y-3453901D01*
G01X5936638Y-3603908D02*
G01X6061641Y-3603908D01*
G01X5936638Y-3453901D02*
G01X6061641Y-3453901D01*
G01X5919346Y-3567002D02*
G01X5919346Y-3490802D01*
G01X5919346Y-3528262D02*
G01X5893946Y-3528262D01*
G54D10*
G01X5825721Y-2285779D02*
G01X5680479Y-2285779D01*
G01X5680479Y-2285779D02*
G01X5680479Y-2388941D01*
G01X5825721Y-2591021D02*
G01X5680479Y-2591021D01*
G01X5680479Y-2591021D02*
G01X5680479Y-2487859D01*
G01X5825721Y-2392860D02*
G01X5825721Y-2483940D01*
G01X6998289Y-4170358D02*
G01X6902402Y-4170358D01*
G01X6902402Y-4170358D02*
G01X6902402Y-4302479D01*
G01X6902402Y-4302479D02*
G01X6998289Y-4302479D01*
G01X7083532Y-4170358D02*
G01X7179419Y-4170358D01*
G01X7179419Y-4170358D02*
G01X7179419Y-4302479D01*
G01X7179419Y-4302479D02*
G01X7083532Y-4302479D01*
G01X6998289Y-3875216D02*
G01X6902402Y-3875216D01*
G01X6902402Y-3875216D02*
G01X6902402Y-4007336D01*
G01X6902402Y-4007336D02*
G01X6998289Y-4007336D01*
G01X7083532Y-3875216D02*
G01X7179419Y-3875216D01*
G01X7179419Y-3875216D02*
G01X7179419Y-4007336D01*
G01X7179419Y-4007336D02*
G01X7083532Y-4007336D01*
G01X6998289Y-3669028D02*
G01X6902402Y-3669028D01*
G01X6902402Y-3669028D02*
G01X6902402Y-3801149D01*
G01X6902402Y-3801149D02*
G01X6998289Y-3801149D01*
G01X7083532Y-3669028D02*
G01X7179419Y-3669028D01*
G01X7179419Y-3669028D02*
G01X7179419Y-3801149D01*
G01X7179419Y-3801149D02*
G01X7083532Y-3801149D01*
G01X6998289Y-3462841D02*
G01X6902402Y-3462841D01*
G01X6902402Y-3462841D02*
G01X6902402Y-3594962D01*
G01X6902402Y-3594962D02*
G01X6998289Y-3594962D01*
G01X7083532Y-3462841D02*
G01X7179419Y-3462841D01*
G01X7179419Y-3462841D02*
G01X7179419Y-3594962D01*
G01X7179419Y-3594962D02*
G01X7083532Y-3594962D01*
G01X5735879Y-2766040D02*
G01X5639991Y-2766040D01*
G01X5639991Y-2766040D02*
G01X5639991Y-2898160D01*
G01X5639991Y-2898160D02*
G01X5735879Y-2898160D01*
G01X5821121Y-2766040D02*
G01X5917009Y-2766040D01*
G01X5917009Y-2766040D02*
G01X5917009Y-2898160D01*
G01X5917009Y-2898160D02*
G01X5821121Y-2898160D01*
G54D13*
G01X6972879Y-747580D02*
G01X6972879Y-790687D01*
G01X6972879Y-1055820D02*
G01X6972879Y-1012713D01*
G01X7378121Y-1012713D02*
G01X7378121Y-1055820D01*
G01X7378121Y-747580D02*
G01X7378121Y-790687D01*
G54D10*
G01X7378121Y-747580D02*
G01X6972879Y-747580D01*
G01X7378121Y-1055820D02*
G01X6972879Y-1055820D01*
G54D13*
G01X6972879Y-328480D02*
G01X6972879Y-371587D01*
G01X6972879Y-636720D02*
G01X6972879Y-593613D01*
G01X7378121Y-593613D02*
G01X7378121Y-636720D01*
G01X7378121Y-328480D02*
G01X7378121Y-371587D01*
G54D10*
G01X7378121Y-328480D02*
G01X6972879Y-328480D01*
G01X7378121Y-636720D02*
G01X6972879Y-636720D01*
G54D13*
G01X241879Y-188780D02*
G01X241879Y-231887D01*
G01X241879Y-497020D02*
G01X241879Y-453913D01*
G01X647121Y-453913D02*
G01X647121Y-497020D01*
G01X647121Y-188780D02*
G01X647121Y-231887D01*
G54D10*
G01X647121Y-188780D02*
G01X241879Y-188780D01*
G01X647121Y-497020D02*
G01X241879Y-497020D01*
G54D13*
G01X6985579Y-1179380D02*
G01X6985579Y-1222487D01*
G01X6985579Y-1487620D02*
G01X6985579Y-1444513D01*
G01X7390821Y-1444513D02*
G01X7390821Y-1487620D01*
G01X7390821Y-1179380D02*
G01X7390821Y-1222487D01*
G54D10*
G01X7390821Y-1179380D02*
G01X6985579Y-1179380D01*
G01X7390821Y-1487620D02*
G01X6985579Y-1487620D01*
G54D13*
G01X6972879Y-1585780D02*
G01X6972879Y-1628887D01*
G01X6972879Y-1894020D02*
G01X6972879Y-1850913D01*
G01X7378121Y-1850913D02*
G01X7378121Y-1894020D01*
G01X7378121Y-1585780D02*
G01X7378121Y-1628887D01*
G54D10*
G01X7378121Y-1585780D02*
G01X6972879Y-1585780D01*
G01X7378121Y-1894020D02*
G01X6972879Y-1894020D01*
G54D13*
G01X241879Y-633280D02*
G01X241879Y-676387D01*
G01X241879Y-941520D02*
G01X241879Y-898413D01*
G01X647121Y-898413D02*
G01X647121Y-941520D01*
G01X647121Y-633280D02*
G01X647121Y-676387D01*
G54D10*
G01X647121Y-633280D02*
G01X241879Y-633280D01*
G01X647121Y-941520D02*
G01X241879Y-941520D01*
G54D11*
G01X3761646Y-76205D02*
G01X3878646Y-193205D01*
G01X3878646Y-193205D02*
G01X4756099Y-193205D01*
G01X4756099Y-193205D02*
G01X4835906Y-193205D01*
G01X4835906Y-193205D02*
G01X4952906Y-76205D01*
G01X4956099Y-2743200D02*
G01X4356100Y-2143201D01*
G01X4356100Y-2143201D02*
G01X3756101Y-2743200D01*
G01X3756101Y-2743200D02*
G01X4356100Y-3343199D01*
G01X4356100Y-3343199D02*
G01X4956099Y-2743200D01*
G01X5499097Y-76205D02*
G01X3213103Y-76205D01*
G01X5499097Y-76205D02*
G01X5499097Y-5410195D01*
G01X5499097Y-5410195D02*
G01X3213103Y-5410195D01*
G01X3213103Y-5410195D02*
G01X3213103Y-76205D01*
G01X4956101Y-4943201D02*
G01X4956101Y-5143200D01*
G01X3756104Y-5143200D01*
G01X3756104Y-4943201D01*
G01X4956101Y-4943201D01*
G01X190500Y-2326325D02*
G01X190500Y-2312553D01*
G01X190500Y-2526325D02*
G01X190500Y-2512553D01*
G01X190500Y-2726324D02*
G01X190500Y-2712552D01*
G01X190500Y-2926324D02*
G01X190500Y-2912552D01*
G01X190500Y-3126323D02*
G01X190500Y-3112552D01*
G01X190500Y-3326323D02*
G01X190500Y-3312551D01*
G01X190500Y-3526323D02*
G01X190500Y-3512551D01*
G01X397487Y-3769195D02*
G01X190500Y-3769195D01*
G01X190500Y-3769195D02*
G01X190500Y-3712550D01*
G01X597284Y-3769195D02*
G01X583715Y-3769195D01*
G01X797156Y-3769195D02*
G01X783511Y-3769195D01*
G01X997232Y-3769195D02*
G01X983384Y-3769195D01*
G01X1197155Y-3769195D02*
G01X1183460Y-3769195D01*
G01X1397155Y-3769195D02*
G01X1383383Y-3769195D01*
G01X1790446Y-3712550D02*
G01X1790446Y-3769195D01*
G01X1790446Y-3769195D02*
G01X1583383Y-3769195D01*
G01X1790446Y-3512551D02*
G01X1790446Y-3526323D01*
G01X1790446Y-3312551D02*
G01X1790446Y-3326323D01*
G01X1790446Y-3112552D02*
G01X1790446Y-3126323D01*
G01X1790446Y-2912552D02*
G01X1790446Y-2926324D01*
G01X1790446Y-2712552D02*
G01X1790446Y-2726324D01*
G01X1790446Y-2512553D02*
G01X1790446Y-2526325D01*
G01X1790446Y-2312553D02*
G01X1790446Y-2326325D01*
G01X190500Y-2126325D02*
G01X190500Y-1369418D01*
G01X1790446Y-1369418D02*
G01X1790446Y-2126325D01*
G01X1490447Y-1969417D02*
G01X490449Y-1969417D01*
G01X490449Y-1969417D02*
G01X490449Y-1469418D01*
G01X490449Y-1469418D02*
G01X590448Y-1469418D01*
G01X590448Y-1469418D02*
G01X590448Y-1769417D01*
G01X590448Y-1769417D02*
G01X690448Y-1769417D01*
G01X690448Y-1769417D02*
G01X690448Y-1469418D01*
G01X690448Y-1469418D02*
G01X790448Y-1469418D01*
G01X790448Y-1469418D02*
G01X790448Y-1769417D01*
G01X790448Y-1769417D02*
G01X890448Y-1769417D01*
G01X890448Y-1769417D02*
G01X890448Y-1469418D01*
G01X890448Y-1469418D02*
G01X990448Y-1469418D01*
G01X990448Y-1469418D02*
G01X990448Y-1769417D01*
G01X990448Y-1769417D02*
G01X1090447Y-1769417D01*
G01X1090447Y-1769417D02*
G01X1090447Y-1469418D01*
G01X1090447Y-1469418D02*
G01X1690446Y-1469418D01*
G01X390449Y-2269416D02*
G01X390449Y-3569414D01*
G01X390449Y-3569414D02*
G01X1590446Y-3569414D01*
G01X1590446Y-3569414D02*
G01X1590446Y-2269416D01*
G01X1590446Y-2269416D02*
G01X390449Y-2269416D01*
G01X290449Y-2069417D02*
G01X1690446Y-2069417D01*
G01X190449Y-1369418D02*
G01X1790446Y-1369418D01*
G01X2674112Y-1718564D02*
G01X2090075Y-1718564D01*
G01X2090075Y-1718564D02*
G01X2089137Y-1719501D01*
G01X2089137Y-1719501D02*
G01X2089137Y-2979499D01*
G01X2089137Y-2979499D02*
G01X2674112Y-2979499D01*
G54D14*
G01X2674112Y-2032000D02*
G01X2514600Y-2032000D01*
G01X2514600Y-2032000D02*
G01X2514600Y-2159000D01*
G01X2514600Y-2159000D02*
G01X2674112Y-2159000D01*
G01X2674112Y-2286000D02*
G01X2514600Y-2286000D01*
G01X2514600Y-2286000D02*
G01X2514600Y-2413000D01*
G01X2514600Y-2413000D02*
G01X2674112Y-2413000D01*
G01X2674112Y-2540000D02*
G01X2514600Y-2540000D01*
G01X2514600Y-2540000D02*
G01X2514600Y-2667000D01*
G01X2514600Y-2667000D02*
G01X2674112Y-2667000D01*
G01X2674112Y-2980436D02*
G01X2674112Y-1968500D01*
G01X2674112Y-1968500D02*
G01X2674112Y-1718564D01*
G54D11*
G01X5831396Y-7318096D02*
G01X3871405Y-7318096D01*
G01X5831396Y-6978099D02*
G01X5831396Y-7478098D01*
G01X3871405Y-7478098D02*
G01X3871405Y-6978099D01*
G01X5831396Y-7478098D02*
G01X3871405Y-7478098D01*
G01X5740400Y-6616700D02*
G01X5740400Y-6964497D01*
G01X5482189Y-6978099D02*
G01X5482189Y-6638099D01*
G01X5233269Y-6978099D02*
G01X5233269Y-6638099D01*
G01X4979269Y-6978099D02*
G01X4979269Y-6638099D01*
G01X4722731Y-6978099D02*
G01X4722731Y-6638099D01*
G01X4468731Y-6978099D02*
G01X4468731Y-6638099D01*
G01X4217269Y-6978099D02*
G01X4217269Y-6638099D01*
G01X3958189Y-6978099D02*
G01X3958189Y-6638099D01*
G01X3871405Y-6978099D02*
G01X3974826Y-6978099D01*
G01X4203974Y-6978099D02*
G01X4228826Y-6978099D01*
G01X4457974Y-6978099D02*
G01X4482826Y-6978099D01*
G01X4711974Y-6978099D02*
G01X4736826Y-6978099D01*
G01X4965974Y-6978099D02*
G01X4990826Y-6978099D01*
G01X5219974Y-6978099D02*
G01X5244826Y-6978099D01*
G01X5473974Y-6978099D02*
G01X5498826Y-6978099D01*
G01X5727974Y-6978099D02*
G01X5831396Y-6978099D01*
G01X6685676Y-6985003D02*
G01X6532006Y-6985003D01*
G01X6532006Y-6985003D02*
G01X6532006Y-5969003D01*
G01X6532006Y-5969003D02*
G01X6685676Y-5969003D01*
G54D10*
G01X3170258Y-7012821D02*
G01X3170258Y-6347579D01*
G01X3170258Y-6347579D02*
G01X3464537Y-6347579D01*
G01X3464537Y-6347579D02*
G01X3464537Y-7012821D01*
G01X3464537Y-7012821D02*
G01X3170258Y-7012821D01*
G54D11*
G01X3543300Y-5618498D02*
G01X3543300Y-5765688D01*
G01X3543300Y-5765688D02*
G01X3543300Y-5938500D01*
G01X3771900Y-5618500D02*
G01X3771900Y-5938502D01*
G01X3771900Y-5618500D02*
G01X3750714Y-5618500D01*
G01X3564486Y-5618500D02*
G01X3543300Y-5618500D01*
G01X3771900Y-5938502D02*
G01X3750714Y-5938502D01*
G01X3564486Y-5938502D02*
G01X3543300Y-5938502D01*
G36*
G01X3771900Y-5715000D02*
G01X3771900Y-5740400D01*
G01X3543300Y-5740400D01*
G01X3543300Y-5727700D01*
G01X3543300Y-5715000D01*
G01X3771900Y-5715000D01*
G37*
G01X3169902Y-5981700D02*
G01X3022712Y-5981700D01*
G01X3022712Y-5981700D02*
G01X2849900Y-5981700D01*
G01X3169900Y-6210300D02*
G01X2849898Y-6210300D01*
G01X3169900Y-6210300D02*
G01X3169900Y-6189114D01*
G01X3169900Y-6002886D02*
G01X3169900Y-5981700D01*
G01X2849898Y-6210300D02*
G01X2849898Y-6189114D01*
G01X2849898Y-6002886D02*
G01X2849898Y-5981700D01*
G36*
G01X3073400Y-6210300D02*
G01X3048000Y-6210300D01*
G01X3048000Y-5981700D01*
G01X3060700Y-5981700D01*
G01X3073400Y-5981700D01*
G01X3073400Y-6210300D01*
G37*
G01X842599Y-6959600D02*
G01X842599Y-6705600D01*
G01X1900601Y-6959600D02*
G01X842599Y-6959600D01*
G01X1623248Y-6959600D02*
G01X1623248Y-6705600D01*
G01X1900601Y-6705600D02*
G01X842599Y-6705600D01*
G01X1900601Y-6959600D02*
G01X1900601Y-6705600D01*

G04 Circle Start*
G01X6705587Y-2692400D02*
G03X6959587Y-2692400I127000J0D01*
G03X6705587Y-2692400I-127000J0D01*
G01X6232589Y-2692400D02*
G03X7432586Y-2692400I599999J0D01*
G03X6232589Y-2692400I-599999J0D01*
G01X7085508Y-901700D02*
G03X7265492Y-901700I89992J0D01*
G03X7085508Y-901700I-89992J0D01*
G01X7085508Y-482600D02*
G03X7265492Y-482600I89992J0D01*
G03X7085508Y-482600I-89992J0D01*
G01X354508Y-342900D02*
G03X534492Y-342900I89992J0D01*
G03X354508Y-342900I-89992J0D01*
G01X7098208Y-1333500D02*
G03X7278192Y-1333500I89992J0D01*
G03X7098208Y-1333500I-89992J0D01*
G01X7085508Y-1739900D02*
G03X7265492Y-1739900I89992J0D01*
G03X7085508Y-1739900I-89992J0D01*
G01X354508Y-787400D02*
G03X534492Y-787400I89992J0D01*
G03X354508Y-787400I-89992J0D01*
G01X98603Y-2070087D02*
G03X155397Y-2070087I28397J0D01*
G03X98603Y-2070087I-28397J0D01*
G01X6241174Y-6007100D02*
G03X6266574Y-6007100I12700J0D01*
G03X6241174Y-6007100I-12700J0D01*
G04 Circle End*

M02*

