G04 Layer: TopPasteMaskLayer*
G04 EasyEDA Pro v3.2.116, 2026-06-17 16:20:27*
G04 Gerber Generator version 0.3*
G04 Scale: 100 percent, Rotated: No, Reflected: No*
G04 Dimensions in millimeters*
G04 Leading zeros omitted, absolute positions, 4 integers and 5 decimals*
G04 Generated by one-click*
%FSLAX45Y45*%
%MOMM*%
%AMPolygonMacro1*4,1,8,2.54,3.683,2.54,5.461,4.064,5.461,4.064,-5.461,2.54,-5.461,2.54,-4.31749,-4.064,-4.31749,-4.064,3.683,2.54,3.683,0*%
%ADD10R,0.8X0.9*%
%ADD11R,1.1X2.79999*%
%ADD12R,0.89992X1.0*%
%ADD13R,1.0X0.65001*%
%ADD14R,1.23X1.85999*%
%ADD15R,2.49999X1.4*%
%ADD16R,1.4X1.7*%
%ADD17R,3.19999X1.15001*%
%ADD18C,0.1645*%
%ADD19PolygonMacro1*%
%ADD20R,2.49999X1.1*%
%ADD21R,2.34X3.59999*%
%ADD22R,1.4X1.2*%
%ADD23R,1.2X1.4*%
G75*


G04 PolygonModel Start*
G36*
G01X6921409Y-4281417D02*
G01X6916410Y-4276416D01*
G01X6916410Y-4196416D01*
G01X6921409Y-4191418D01*
G01X7001408Y-4191418D01*
G01X7006410Y-4196416D01*
G01X7006410Y-4220620D01*
G01X6969409Y-4220620D01*
G01X6969409Y-4253620D01*
G01X7006410Y-4253620D01*
G01X7006410Y-4276416D01*
G01X7001408Y-4281417D01*
G01X6921409Y-4281417D01*
G37*
G36*
G01X7160412Y-4191420D02*
G01X7165411Y-4196421D01*
G01X7165411Y-4276421D01*
G01X7160412Y-4281420D01*
G01X7080413Y-4281420D01*
G01X7075411Y-4276421D01*
G01X7075411Y-4252218D01*
G01X7112411Y-4252218D01*
G01X7112411Y-4219218D01*
G01X7075411Y-4219218D01*
G01X7075411Y-4196421D01*
G01X7080413Y-4191420D01*
G01X7160412Y-4191420D01*
G37*
G36*
G01X6921409Y-3986274D02*
G01X6916410Y-3981273D01*
G01X6916410Y-3901273D01*
G01X6921409Y-3896275D01*
G01X7001408Y-3896275D01*
G01X7006410Y-3901273D01*
G01X7006410Y-3925477D01*
G01X6969409Y-3925477D01*
G01X6969409Y-3958477D01*
G01X7006410Y-3958477D01*
G01X7006410Y-3981273D01*
G01X7001408Y-3986274D01*
G01X6921409Y-3986274D01*
G37*
G36*
G01X7160412Y-3896277D02*
G01X7165411Y-3901278D01*
G01X7165411Y-3981278D01*
G01X7160412Y-3986277D01*
G01X7080413Y-3986277D01*
G01X7075411Y-3981278D01*
G01X7075411Y-3957075D01*
G01X7112411Y-3957075D01*
G01X7112411Y-3924075D01*
G01X7075411Y-3924075D01*
G01X7075411Y-3901278D01*
G01X7080413Y-3896277D01*
G01X7160412Y-3896277D01*
G37*
G36*
G01X6921409Y-3780087D02*
G01X6916410Y-3775086D01*
G01X6916410Y-3695086D01*
G01X6921409Y-3690088D01*
G01X7001408Y-3690088D01*
G01X7006410Y-3695086D01*
G01X7006410Y-3719290D01*
G01X6969409Y-3719290D01*
G01X6969409Y-3752290D01*
G01X7006410Y-3752290D01*
G01X7006410Y-3775086D01*
G01X7001408Y-3780087D01*
G01X6921409Y-3780087D01*
G37*
G36*
G01X7160412Y-3690090D02*
G01X7165411Y-3695091D01*
G01X7165411Y-3775091D01*
G01X7160412Y-3780090D01*
G01X7080413Y-3780090D01*
G01X7075411Y-3775091D01*
G01X7075411Y-3750888D01*
G01X7112411Y-3750888D01*
G01X7112411Y-3717888D01*
G01X7075411Y-3717888D01*
G01X7075411Y-3695091D01*
G01X7080413Y-3690090D01*
G01X7160412Y-3690090D01*
G37*
G36*
G01X6921409Y-3573900D02*
G01X6916410Y-3568899D01*
G01X6916410Y-3488899D01*
G01X6921409Y-3483901D01*
G01X7001408Y-3483901D01*
G01X7006410Y-3488899D01*
G01X7006410Y-3513103D01*
G01X6969409Y-3513103D01*
G01X6969409Y-3546103D01*
G01X7006410Y-3546103D01*
G01X7006410Y-3568899D01*
G01X7001408Y-3573900D01*
G01X6921409Y-3573900D01*
G37*
G36*
G01X7160412Y-3483903D02*
G01X7165411Y-3488904D01*
G01X7165411Y-3568904D01*
G01X7160412Y-3573903D01*
G01X7080413Y-3573903D01*
G01X7075411Y-3568904D01*
G01X7075411Y-3544701D01*
G01X7112411Y-3544701D01*
G01X7112411Y-3511701D01*
G01X7075411Y-3511701D01*
G01X7075411Y-3488904D01*
G01X7080413Y-3483903D01*
G01X7160412Y-3483903D01*
G37*
G36*
G01X5658998Y-2877099D02*
G01X5653999Y-2872097D01*
G01X5653999Y-2792098D01*
G01X5658998Y-2787099D01*
G01X5738998Y-2787099D01*
G01X5743999Y-2792098D01*
G01X5743999Y-2816301D01*
G01X5706999Y-2816301D01*
G01X5706999Y-2849301D01*
G01X5743999Y-2849301D01*
G01X5743999Y-2872097D01*
G01X5738998Y-2877099D01*
G01X5658998Y-2877099D01*
G37*
G36*
G01X5898002Y-2787101D02*
G01X5903001Y-2792103D01*
G01X5903001Y-2872102D01*
G01X5898002Y-2877101D01*
G01X5818002Y-2877101D01*
G01X5813001Y-2872102D01*
G01X5813001Y-2847899D01*
G01X5850001Y-2847899D01*
G01X5850001Y-2814899D01*
G01X5813001Y-2814899D01*
G01X5813001Y-2792103D01*
G01X5818002Y-2787101D01*
G01X5898002Y-2787101D01*
G37*

G04 Pad Start*
G54D10*
G01X2444902Y-4064000D03*
G01X2304898Y-4064000D03*
G01X3689502Y-6134100D03*
G01X3549498Y-6134100D03*
G54D11*
G01X2324103Y-3664410D03*
G01X2324103Y-3244395D03*
G54D10*
G01X2952598Y-5778500D03*
G01X3092602Y-5778500D03*
G54D12*
G01X5991647Y-3941276D03*
G01X5821644Y-3941276D03*
G01X5991647Y-4236419D03*
G01X5821644Y-4236419D03*
G01X5991647Y-3735089D03*
G01X5821644Y-3735089D03*
G01X5991647Y-3528902D03*
G01X5821644Y-3528902D03*
G54D13*
G01X5853100Y-2533396D03*
G01X5853100Y-2343404D03*
G01X5653100Y-2438400D03*
G54D14*
G01X6957009Y-901700D03*
G01X7393991Y-901700D03*
G01X6957009Y-482600D03*
G01X7393991Y-482600D03*
G01X226009Y-342900D03*
G01X662991Y-342900D03*
G01X6969709Y-1333500D03*
G01X7406691Y-1333500D03*
G01X6957009Y-1739900D03*
G01X7393991Y-1739900D03*
G01X226009Y-787400D03*
G01X662991Y-787400D03*
G54D15*
G01X1745666Y-2219439D03*
G01X1745640Y-2419439D03*
G01X1745666Y-2619438D03*
G01X1745590Y-2819438D03*
G01X1745666Y-3019438D03*
G01X1745742Y-3219437D03*
G01X1745615Y-3419437D03*
G01X1745463Y-3619436D03*
G54D16*
G01X1490269Y-3749535D03*
G01X1290269Y-3749459D03*
G01X1090346Y-3749459D03*
G01X890270Y-3749459D03*
G01X690397Y-3749408D03*
G01X490601Y-3749561D03*
G54D15*
G01X235534Y-3619436D03*
G01X235458Y-3419437D03*
G01X235458Y-3219437D03*
G01X235458Y-3019438D03*
G01X235458Y-2819438D03*
G01X235458Y-2619438D03*
G01X235458Y-2419439D03*
G01X235458Y-2219439D03*
G54D17*
G01X6217526Y-6817360D03*
G01X6217526Y-6647180D03*
G01X6217526Y-6306820D03*
G01X6217526Y-6477000D03*
G01X6217526Y-6136640D03*
G54D19*
G01X7219074Y-6477000D03*
G54D20*
G01X3624395Y-6910197D03*
G01X3624395Y-6680200D03*
G01X3624395Y-6450203D03*
G54D21*
G01X3030403Y-6680200D03*
G54D22*
G01X3657600Y-5643499D03*
G01X3657600Y-5913501D03*
G54D23*
G01X3144901Y-6096000D03*
G01X2874899Y-6096000D03*
G04 Pad End*

M02*

